<svg width="24" height="25" viewBox="0 0 24 25" fill="none" xmlns="http://www.w3.org/2000/svg">
<path d="M21.97 18.5903C21.97 18.9503 21.89 19.3203 21.72 19.6803C21.55 20.0403 21.33 20.3803 21.04 20.7003C20.55 21.2403 20.01 21.6303 19.4 21.8803C18.8 22.1303 18.15 22.2603 17.45 22.2603C16.43 22.2603 15.34 22.0203 14.19 21.5303C13.04 21.0403 11.89 20.3803 10.75 19.5503C9.6 18.7103 8.51 17.7803 7.47 16.7503C6.44 15.7103 5.51 14.6203 4.68 13.4803C3.86 12.3403 3.2 11.2003 2.72 10.0703C2.24 8.93025 2 7.84025 2 6.80025C2 6.12025 2.12 5.47025 2.36 4.87025C2.6 4.26025 2.98 3.70025 3.51 3.20025C4.15 2.57025 4.85 2.26025 5.59 2.26025C5.87 2.26025 6.15 2.32025 6.4 2.44025C6.66 2.56025 6.89 2.74025 7.07 3.00025L9.39 6.27025C9.57 6.52025 9.7 6.75025 9.79 6.97025C9.88 7.18025 9.93 7.39025 9.93 7.58025C9.93 7.82025 9.86 8.06025 9.72 8.29025C9.59 8.52025 9.4 8.76025 9.16 9.00025L8.4 9.79025C8.29 9.90025 8.24 10.0303 8.24 10.1903C8.24 10.2703 8.25 10.3403 8.27 10.4203C8.3 10.5003 8.33 10.5603 8.35 10.6203C8.53 10.9503 8.84 11.3803 9.28 11.9003C9.73 12.4203 10.21 12.9503 10.73 13.4803C11.27 14.0103 11.79 14.5003 12.32 14.9503C12.84 15.3903 13.27 15.6903 13.61 15.8703C13.66 15.8903 13.72 15.9203 13.79 15.9503C13.87 15.9803 13.95 15.9903 14.04 15.9903C14.21 15.9903 14.34 15.9303 14.45 15.8203L15.21 15.0703C15.46 14.8203 15.7 14.6303 15.93 14.5103C16.16 14.3703 16.39 14.3003 16.64 14.3003C16.83 14.3003 17.03 14.3403 17.25 14.4303C17.47 14.5203 17.7 14.6503 17.95 14.8203L21.26 17.1703C21.52 17.3503 21.7 17.5603 21.81 17.8103C21.91 18.0603 21.97 18.3103 21.97 18.5903Z" stroke="white" stroke-width="1.5" stroke-miterlimit="10"/>
</svg>
