<svg width="48" height="48" viewBox="0 0 48 48" fill="none" xmlns="http://www.w3.org/2000/svg">
<path d="M10.4598 3.90381L10.4596 3.90409L1.18061 15.2426L10.4598 3.90381ZM10.4598 3.90381C11.512 2.61611 13.4084 2.42687 14.6956 3.48L14.6957 3.48003M10.4598 3.90381L14.6957 3.48003M14.6957 3.48003L16.4744 4.93499C16.4744 4.935 16.4744 4.93501 16.4744 4.93502C17.7613 5.98795 17.9509 7.88499 16.8974 9.17206L16.8973 9.17214M14.6957 3.48003L16.8973 9.17214M16.8973 9.17214L7.61938 20.5119C7.61934 20.5119 7.6193 20.512 7.61926 20.512M16.8973 9.17214L7.61926 20.512M40.8181 28.6311L40.8181 28.6307C40.6372 26.8166 39.7624 25.1824 38.3283 24.0052L34.5773 21.096L34.5768 21.0956C34.4853 21.0245 34.3738 20.9872 34.2545 20.9838L34.178 20.9816L34.1056 20.9565C33.8848 20.8802 33.6362 20.9473 33.4888 21.1359C32.2003 22.7923 30.665 23.6984 28.8085 23.825L28.8081 23.825C26.521 23.9792 24.2359 22.9068 22.564 21.8483C20.8871 20.7866 19.7416 19.6837 19.6917 19.6347L40.8181 28.6311ZM40.8181 28.6311C41.0009 30.4481 40.464 32.2244 39.3064 33.6391L34.8641 39.0657L34.864 39.0658C33.7066 40.4804 32.0702 41.3576 30.2554 41.5378M40.8181 28.6311L13.5061 43.656M30.3046 42.0353C29.6932 42.0958 29.0864 42.0822 28.4936 41.9947M30.3046 42.0353C32.2518 41.8421 34.0096 40.8996 35.251 39.3825L28.4936 41.9947M30.3046 42.0353L30.2554 41.5378M30.3046 42.0353L30.2552 41.5378C30.2553 41.5378 30.2553 41.5378 30.2554 41.5378M28.4936 41.9947C27.3748 41.8302 26.3165 41.3912 25.3774 40.7318L28.4936 41.9947ZM30.2554 41.5378C29.6837 41.5943 29.1179 41.5815 28.5667 41.5L28.5663 41.5C27.5302 41.3477 26.5446 40.9404 25.6647 40.3226L25.2847 40.0557L24.9905 40.4151L23.1242 42.695L23.1241 42.6951C21.6111 44.5444 19.1979 45.4772 16.8323 45.1282L16.8322 45.1282C15.6146 44.9487 14.4636 44.4397 13.5061 43.656M13.5061 43.656L8.07889 39.2126L8.07876 39.2125C6.66485 38.0556 5.78743 36.4197 5.60565 34.6023L13.5061 43.656ZM7.11967 29.5954L7.11936 29.5958C5.96205 31.0081 5.42448 32.7855 5.60564 34.6022L7.11967 29.5954ZM7.11967 29.5954L9.60587 26.5555L9.60598 26.5553M7.11967 29.5954L9.60598 26.5553M9.60598 26.5553C9.69882 26.4418 9.83331 26.3696 9.9792 26.3551L9.98041 26.355M9.60598 26.5553L9.98041 26.355M9.98041 26.355C10.124 26.3403 10.271 26.3846 10.3842 26.4772L10.3842 26.4773M9.98041 26.355L10.3842 26.4773M10.3842 26.4773L22.687 36.5469L22.7354 36.5866M10.3842 26.4773L22.7354 36.5866M22.7354 36.5866L22.7922 36.6131M22.7354 36.5866L22.7922 36.6131M22.7922 36.6131C22.8461 36.6382 22.8826 36.6607 22.908 36.6815L25.9473 39.1682C27.1311 40.1367 28.6222 40.5888 30.1431 40.4365L30.1432 40.4365M22.7922 36.6131L30.1432 40.4365M30.1432 40.4365C31.6644 40.2837 33.0383 39.5469 34.0066 38.3646L34.0066 38.3645M30.1432 40.4365L34.0066 38.3645M34.0066 38.3645L38.4496 32.9373L38.4496 32.9372M34.0066 38.3645L38.4496 32.9372M38.4496 32.9372C40.4509 30.492 40.0879 26.8772 37.6443 24.8763L37.6444 24.8761M38.4496 32.9372L37.6444 24.8761M37.6444 24.8761L37.634 24.868M37.6444 24.8761L37.634 24.868M37.634 24.868L34.4777 22.4197L34.1151 22.1385M37.634 24.868L34.1151 22.1385M34.1151 22.1385L33.8039 22.4756M34.1151 22.1385L33.8039 22.4756M33.8039 22.4756C32.4065 23.989 30.7571 24.8046 28.8761 24.9304C27.0478 25.0526 25.2257 24.4971 23.6289 23.7167C22.0354 22.938 20.7002 21.9521 19.8579 21.2581L19.4395 20.9134M33.8039 22.4756L19.4395 20.9134M19.4395 20.9134L19.1297 21.3582M19.4395 20.9134L19.1297 21.3582M19.1297 21.3582C16.7888 24.719 14.0667 24.7719 14.0109 24.7728C13.9816 24.773 13.9545 24.771 13.9283 24.7669L13.9283 24.7668L13.9224 24.766C13.8593 24.7569 13.7971 24.7365 13.7401 24.7062C12.739 24.1647 12.2241 23.5387 12.0421 22.8086L12.0421 22.8083C11.793 21.8111 12.1371 20.5406 13.4436 18.5758L13.4438 18.5755C15.03 16.1862 16.7331 15.0294 18.291 14.4606C19.8619 13.8871 21.3224 13.8957 22.4775 13.9051L22.4778 13.9051L22.5362 13.9055C23.0283 13.9093 23.5084 13.913 23.8878 13.8575C24.8161 13.7228 25.4642 13.1794 25.8668 12.7021C26.2688 12.2255 26.46 11.7763 26.4762 11.7357L26.4768 11.7343C26.5886 11.4523 26.9102 11.3119 27.1954 11.4221M19.1297 21.3582L27.1954 11.4221M27.1954 11.4221C27.4799 11.5356 27.6183 11.8571 27.5062 12.1398L27.5062 12.1398L27.5043 12.1447C27.5044 12.1444 27.5033 12.1473 27.5009 12.1532L27.4909 12.1772C27.4821 12.1977 27.4694 12.2267 27.4525 12.2631C27.4187 12.336 27.3685 12.4377 27.3008 12.5595C27.165 12.8037 26.961 13.1242 26.6802 13.4521C26.1184 14.108 25.2668 14.775 24.0468 14.9518L24.0467 14.9518C23.5853 15.0187 23.068 15.0156 22.4679 15.011L22.443 15.0108C21.3339 15.0016 19.9973 14.9904 18.6007 15.5145C17.1779 16.0484 15.7387 17.117 14.3641 19.1869C13.7745 20.0745 13.431 20.7549 13.2491 21.2824C13.0688 21.8049 13.0344 22.2147 13.1153 22.5384C13.1926 22.856 13.4051 23.1953 13.9643 23.5538L14.1319 23.6613L14.3275 23.6241C15.1221 23.4731 17.1363 22.7856 18.8217 19.7611C18.9056 19.6111 19.0552 19.5083 19.2256 19.4837C19.397 19.4589 19.5699 19.5154 19.691 19.634L27.1954 11.4221ZM24.4045 39.3839L24.0879 39.7708L22.2673 41.996L22.2671 41.9963C20.9792 43.5681 19.0062 44.3309 16.9928 44.0347L16.9926 44.0347C15.9726 43.8841 15.0087 43.4573 14.2062 42.8002L8.77907 38.3569C7.596 37.3891 6.85855 36.0145 6.70635 34.4926L6.70632 34.4922C6.55541 32.972 7.0045 31.4802 7.97349 30.2975L24.4045 39.3839ZM24.4045 39.3839L24.0176 39.0673L10.4972 28.002L10.1102 27.6852L9.7935 28.0724L7.97378 30.2972L24.4045 39.3839ZM7.61926 20.512C6.56563 21.7986 4.66905 21.9884 3.38213 20.9361M7.61926 20.512L3.38213 20.9361M3.38213 20.9361C3.38209 20.9361 3.38205 20.936 3.38201 20.936M3.38213 20.9361L3.38201 20.936M3.38201 20.936L1.60348 19.4806L3.38201 20.936ZM35.3808 3.6348L35.3809 3.63493L46.4592 13.2237L46.7864 12.8457L46.4592 13.2238C47.7165 14.312 47.8534 16.2134 46.7643 17.4716L46.7642 17.4718L45.2614 19.2091C44.173 20.4661 42.2703 20.6032 41.0135 19.5149L41.0134 19.5149L29.9357 9.92607L29.9356 9.926C28.6779 8.83784 28.5414 6.93705 29.6288 5.67934C29.6288 5.6793 29.6289 5.67925 29.6289 5.67921C29.6289 5.67918 29.629 5.67915 29.629 5.67911L31.1341 3.9407L31.1342 3.94054C32.2215 2.68369 34.1239 2.54609 35.3808 3.6348ZM1.60337 19.4805C0.317651 18.4277 0.127836 16.5312 1.18038 15.2428L1.60337 19.4805Z" fill="#48EAEB" stroke="#48EAEB"/>
</svg>
