<svg width="48" height="48" viewBox="0 0 48 48" fill="none" xmlns="http://www.w3.org/2000/svg">
<g clip-path="url(#clip0_171_1996)">
<path d="M43.5001 14.505V14.37C41.8674 10.1254 38.9867 6.47515 35.2379 3.90053C31.489 1.3259 27.0479 -0.0522461 22.5001 -0.0522461C17.9523 -0.0522461 13.5112 1.3259 9.76237 3.90053C6.0135 6.47515 3.13284 10.1254 1.50012 14.37V14.505C-0.500041 19.6525 -0.500041 25.3625 1.50012 30.51C1.50012 30.51 1.50012 30.585 1.50012 30.615C3.04085 34.602 5.68112 38.0701 9.11427 40.6164C12.5474 43.1628 16.6325 44.6828 20.8951 45H21.0001C21.3979 45 21.7795 44.842 22.0608 44.5607C22.3421 44.2794 22.5001 43.8978 22.5001 43.5V42C22.4356 41.6598 22.2554 41.3525 21.9901 41.13C19.0028 38.5024 16.6839 35.2014 15.2251 31.5H21.0001C21.3979 31.5 21.7795 31.342 22.0608 31.0607C22.3421 30.7794 22.5001 30.3978 22.5001 30C22.5001 29.6022 22.3421 29.2207 22.0608 28.9393C21.7795 28.658 21.3979 28.5 21.0001 28.5H14.2651C13.76 26.5399 13.503 24.5241 13.5001 22.5C13.5046 20.4769 13.7564 18.4619 14.2501 16.5H30.7501C31.2438 18.4619 31.4957 20.4769 31.5001 22.5C31.5001 22.8978 31.6582 23.2794 31.9395 23.5607C32.2208 23.842 32.6023 24 33.0001 24C33.3979 24 33.7795 23.842 34.0608 23.5607C34.3421 23.2794 34.5001 22.8978 34.5001 22.5C34.4998 20.4827 34.2835 18.4713 33.8551 16.5H41.0401C41.6744 18.4369 41.9984 20.4619 42.0001 22.5C42.0001 22.8978 42.1582 23.2794 42.4395 23.5607C42.7208 23.842 43.1023 24 43.5001 24C43.8979 24 44.2795 23.842 44.5608 23.5607C44.8421 23.2794 45.0001 22.8978 45.0001 22.5C44.9982 19.7652 44.4896 17.0545 43.5001 14.505ZM18.0001 41.505C15.2822 40.8437 12.737 39.6088 10.5354 37.8832C8.33382 36.1577 6.52665 33.9813 5.23512 31.5H12.0001C13.272 35.212 15.317 38.6119 18.0001 41.475V41.505ZM3.97512 28.5C3.3298 26.5654 3.00058 24.5394 3.00012 22.5C3.00189 20.4619 3.32589 18.4369 3.96012 16.5H11.1451C10.7167 18.4713 10.5005 20.4827 10.5001 22.5C10.5038 24.5187 10.7302 26.5309 11.1751 28.5H3.97512ZM12.0001 13.5H5.22012C6.5119 11.0208 8.32164 8.84827 10.5267 7.1298C12.7317 5.41132 15.2805 4.18706 18.0001 3.54001C15.3103 6.39233 13.2642 9.78885 12.0001 13.5ZM15.2251 13.5C16.7681 9.58398 19.2695 6.11802 22.5001 3.42001C25.7362 6.11625 28.2429 9.58236 29.7901 13.5H15.2251ZM33.0001 13.5C31.736 9.78885 29.6899 6.39233 27.0001 3.54001C29.7198 4.18706 32.2685 5.41132 34.4736 7.1298C36.6786 8.84827 38.4883 11.0208 39.7801 13.5H33.0001Z" fill="#48EAEB"/>
<path d="M33 28.5H39V33C39 33.3978 38.842 33.7794 38.5607 34.0607C38.2794 34.342 37.8978 34.5 37.5 34.5H34.5C34.1022 34.5 33.7206 34.342 33.4393 34.0607C33.158 33.7794 33 33.3978 33 33V28.5Z" fill="#48EAEB"/>
<path d="M42 48H30C28.8065 48 27.6619 47.5259 26.818 46.682C25.9741 45.8381 25.5 44.6935 25.5 43.5V31.5C25.5 30.3065 25.9741 29.1619 26.818 28.318C27.6619 27.4741 28.8065 27 30 27H42C43.1935 27 44.3381 27.4741 45.182 28.318C46.0259 29.1619 46.5 30.3065 46.5 31.5V43.5C46.5 44.6935 46.0259 45.8381 45.182 46.682C44.3381 47.5259 43.1935 48 42 48ZM30 30C29.6022 30 29.2206 30.158 28.9393 30.4393C28.658 30.7206 28.5 31.1022 28.5 31.5V43.5C28.5 43.8978 28.658 44.2794 28.9393 44.5607C29.2206 44.842 29.6022 45 30 45H42C42.3978 45 42.7794 44.842 43.0607 44.5607C43.342 44.2794 43.5 43.8978 43.5 43.5V31.5C43.5 31.1022 43.342 30.7206 43.0607 30.4393C42.7794 30.158 42.3978 30 42 30H30Z" fill="#48EAEB"/>
<path d="M34.5 42H33C32.6022 42 32.2206 41.842 31.9393 41.5607C31.658 41.2794 31.5 40.8978 31.5 40.5C31.5 40.1022 31.658 39.7206 31.9393 39.4393C32.2206 39.158 32.6022 39 33 39H34.5C34.8978 39 35.2794 39.158 35.5607 39.4393C35.842 39.7206 36 40.1022 36 40.5C36 40.8978 35.842 41.2794 35.5607 41.5607C35.2794 41.842 34.8978 42 34.5 42Z" fill="#48EAEB"/>
</g>
<defs>
<clipPath id="clip0_171_1996">
<rect width="48" height="48" fill="white"/>
</clipPath>
</defs>
</svg>
