<svg width="48" height="48" viewBox="0 0 48 48" fill="none" xmlns="http://www.w3.org/2000/svg">
<path d="M8.00641 48H32.0022C32.4265 48 32.8334 47.842 33.1334 47.5608C33.4334 47.2795 33.602 46.8981 33.602 46.5003V42.0013H36.8014C38.0742 42.0013 39.2949 41.5273 40.1949 40.6835C41.0949 39.8398 41.6006 38.6954 41.6006 37.5022V32.4303L47.1148 29.8538C47.3179 29.7588 47.4971 29.6243 47.6405 29.4593C47.7839 29.2943 47.8882 29.1026 47.9464 28.8969C48.0047 28.6912 48.0156 28.4763 47.9784 28.2663C47.9412 28.0564 47.8568 27.8563 47.7307 27.6793L41.6006 19.0426C41.5008 14.9561 40.033 11.0024 37.4047 7.74096C34.7763 4.47949 31.1206 2.07532 26.9547 0.868595C22.7888 -0.33813 18.3236 -0.28632 14.1908 1.0167C10.058 2.31971 6.46693 4.80796 3.92552 8.12943C3.80241 8.28905 3.71405 8.46983 3.66548 8.66147C3.6169 8.8531 3.60907 9.05183 3.64241 9.24631C3.67576 9.44078 3.74965 9.62719 3.85984 9.7949C3.97004 9.96261 4.11439 10.1083 4.28466 10.2237C4.45493 10.3391 4.64778 10.422 4.8522 10.4675C5.05661 10.5131 5.2686 10.5204 5.47604 10.4891C5.68349 10.4579 5.88234 10.3886 6.06123 10.2853C6.24013 10.182 6.39557 10.0467 6.51867 9.88705C8.69202 7.05437 11.7675 4.94068 15.303 3.84985C18.8385 2.75902 22.652 2.74724 26.1951 3.8162C29.7382 4.88516 32.8284 6.97979 35.0217 9.79899C37.2149 12.6182 38.3981 16.0167 38.4011 19.506C38.4016 19.8022 38.4951 20.0916 38.6699 20.3383L44.0641 27.9222L39.2858 30.1613C39.0198 30.2858 38.7962 30.4774 38.6399 30.7145C38.4837 30.9516 38.401 31.2248 38.4011 31.5035V37.5022C38.4011 37.9 38.2326 38.2814 37.9326 38.5627C37.6326 38.8439 37.2257 39.0019 36.8014 39.0019H32.0022C31.578 39.0019 31.1711 39.1599 30.8711 39.4412C30.5711 39.7224 30.4025 40.1038 30.4025 40.5016V45.0006H9.60613V41.9503C9.67226 37.0476 8.32063 32.2196 5.69482 27.9792C3.74521 24.9222 2.9034 21.3556 3.29523 17.8129C3.37973 16.993 3.53325 16.1806 3.75435 15.3834C3.85007 15.0017 3.78255 14.6001 3.56625 14.2645C3.34995 13.929 3.00206 13.6862 2.59712 13.5881C2.19218 13.4901 1.76239 13.5446 1.3998 13.74C1.03722 13.9354 0.770683 14.2562 0.657291 14.6336C0.395626 15.5822 0.212711 16.5483 0.110188 17.5234C-0.351334 21.7052 0.64492 25.9145 2.94969 29.5209C5.27802 33.2954 6.47263 37.5905 6.40669 41.9503V46.5003C6.40669 46.8981 6.57523 47.2795 6.87524 47.5608C7.17524 47.842 7.58214 48 8.00641 48Z" fill="#48EAEB"/>
<path d="M28.8024 42.0013H32.0018C32.4261 42.0013 32.833 41.8433 33.133 41.5621C33.433 41.2808 33.6016 40.8994 33.6016 40.5016C33.6016 40.1039 33.433 39.7224 33.133 39.4412C32.833 39.16 32.4261 39.002 32.0018 39.002H28.8024C28.3781 39.002 27.9712 39.16 27.6712 39.4412C27.3712 39.7224 27.2027 40.1039 27.2027 40.5016C27.2027 40.8994 27.3712 41.2808 27.6712 41.5621C27.9712 41.8433 28.3781 42.0013 28.8024 42.0013Z" fill="#48EAEB"/>
<path d="M19.0883 28.5041H22.5181C23.3044 28.5044 24.0611 28.2236 24.6342 27.719C25.2073 27.2143 25.5535 26.5238 25.6024 25.7882C26.305 26.1167 27.1148 26.1815 27.8666 25.9695C28.6184 25.7574 29.2556 25.2844 29.6481 24.6469L31.3614 21.8635C31.7521 21.2251 31.8691 20.4714 31.6888 19.7551C31.5085 19.0388 31.0443 18.4136 30.3904 18.0063C31.0443 17.5991 31.5085 16.9739 31.6888 16.2576C31.8691 15.5413 31.7521 14.7875 31.3614 14.1491L29.6465 11.3657C29.254 10.7287 28.6171 10.2559 27.8657 10.0439C27.1142 9.83181 26.3048 9.8964 25.6024 10.2245C25.5535 9.48882 25.2073 8.79832 24.6342 8.29369C24.0611 7.78906 23.3044 7.50827 22.5181 7.50855H19.0883C18.3019 7.50755 17.5447 7.7881 16.9714 8.29287C16.3982 8.79765 16.0522 9.48857 16.0041 10.2245C15.3011 9.89563 14.4908 9.83078 13.7386 10.0432C12.9864 10.2556 12.3491 10.7292 11.9568 11.3672L10.2451 14.1491C9.8544 14.7875 9.73735 15.5413 9.91768 16.2576C10.098 16.9739 10.5622 17.5991 11.2161 18.0063C10.5629 18.4138 10.0993 19.0388 9.9193 19.7547C9.73929 20.4707 9.85632 21.224 10.2467 21.862L11.9632 24.6469C12.356 25.2845 12.9934 25.7575 13.7455 25.9696C14.4976 26.1817 15.3077 26.1168 16.0105 25.7882C16.0585 26.5231 16.4036 27.2131 16.9755 27.7177C17.5474 28.2224 18.303 28.5036 19.0883 28.5041ZM22.403 25.5047H19.2035C19.184 25.0157 19.0325 24.5394 18.7632 24.1202C18.4939 23.701 18.1156 23.3527 17.6636 23.1079C17.2117 22.8631 16.7008 22.7297 16.1789 22.7204C15.657 22.711 15.1411 22.8259 14.6795 23.0543L13.0798 20.4553C13.522 20.1951 13.8865 19.8339 14.1392 19.4056C14.3919 18.9773 14.5244 18.4958 14.5244 18.0063C14.5244 17.5169 14.3919 17.0354 14.1392 16.6071C13.8865 16.1787 13.522 15.8176 13.0798 15.5573L14.6795 12.9584C15.1411 13.1868 15.657 13.3017 16.1789 13.2923C16.7008 13.2829 17.2117 13.1496 17.6636 12.9048C18.1156 12.66 18.4939 12.3117 18.7632 11.8925C19.0325 11.4733 19.184 10.9969 19.2035 10.5079H22.403C22.4227 10.9968 22.5744 11.473 22.8438 11.892C23.1132 12.311 23.4916 12.659 23.9435 12.9037C24.3954 13.1483 24.9062 13.2815 25.4279 13.2908C25.9497 13.3001 26.4654 13.1852 26.927 12.9569L28.5267 15.5573C28.0845 15.8176 27.7199 16.1787 27.4673 16.6071C27.2146 17.0354 27.082 17.5169 27.082 18.0063C27.082 18.4958 27.2146 18.9773 27.4673 19.4056C27.7199 19.8339 28.0845 20.1951 28.5267 20.4553L26.927 23.0558C26.4654 22.8274 25.9497 22.7125 25.4279 22.7218C24.9062 22.7311 24.3954 22.8643 23.9435 23.109C23.4916 23.3536 23.1132 23.7017 22.8438 24.1207C22.5744 24.5397 22.4227 25.0159 22.403 25.5047Z" fill="#48EAEB"/>
<path d="M20.8045 21.0057C21.4373 21.0057 22.0558 20.8298 22.582 20.5002C23.1081 20.1706 23.5182 19.7022 23.7604 19.1541C24.0025 18.6061 24.0659 18.003 23.9424 17.4212C23.819 16.8394 23.5143 16.3049 23.0668 15.8855C22.6194 15.466 22.0493 15.1803 21.4286 15.0646C20.808 14.9489 20.1647 15.0083 19.5801 15.2353C18.9955 15.4623 18.4958 15.8467 18.1442 16.34C17.7927 16.8332 17.605 17.4131 17.605 18.0063C17.605 18.8018 17.9421 19.5647 18.5421 20.1272C19.1421 20.6897 19.9559 21.0057 20.8045 21.0057Z" fill="#48EAEB"/>
</svg>
