<svg width="48" height="46" viewBox="0 0 48 46" fill="none" xmlns="http://www.w3.org/2000/svg">
<path d="M43.5 8H39C38.6022 8 38.2207 8.15804 37.9394 8.43934C37.6581 8.72064 37.5 9.10218 37.5 9.5C37.5 9.89782 37.6581 10.2794 37.9394 10.5607C38.2207 10.842 38.6022 11 39 11H43.5C43.8978 11 44.2794 11.158 44.5607 11.4393C44.842 11.7206 45 12.1022 45 12.5V20.2565C45.0002 20.4537 44.9614 20.649 44.886 20.8313C44.8106 21.0135 44.7 21.1791 44.5605 21.3185L40.3185 25.5605C40.1791 25.7 40.0135 25.8106 39.8313 25.886C39.6491 25.9614 39.4537 26.0002 39.2565 26H8.74352C8.5463 26.0002 8.35099 25.9614 8.16876 25.886C7.98653 25.8106 7.82096 25.7 7.68152 25.5605L3.43952 21.3185C3.30005 21.1791 3.18944 21.0135 3.11402 20.8313C3.03861 20.649 2.99987 20.4537 3.00002 20.2565V12.5C3.00002 12.1022 3.15806 11.7206 3.43936 11.4393C3.72067 11.158 4.1022 11 4.50002 11H33C33.3978 11 33.7794 10.842 34.0607 10.5607C34.342 10.2794 34.5 9.89782 34.5 9.5V5C34.5 3.80653 34.0259 2.66193 33.182 1.81802C32.3381 0.974106 31.1935 0.5 30 0.5H18C16.8065 0.5 15.662 0.974106 14.818 1.81802C13.9741 2.66193 13.5 3.80653 13.5 5V8H4.50002C3.30655 8 2.16196 8.47411 1.31804 9.31802C0.474128 10.1619 2.26294e-05 11.3065 2.26294e-05 12.5V20.2565C-0.00185981 20.8479 0.11372 21.4338 0.340057 21.9802C0.566393 22.5266 0.898981 23.0226 1.31852 23.4395L5.56052 27.6815C5.97738 28.101 6.47339 28.4336 7.01979 28.66C7.56619 28.8863 8.1521 29.0019 8.74352 29H39.2565C39.8479 29.0019 40.4338 28.8863 40.9802 28.66C41.5266 28.4336 42.0227 28.101 42.4395 27.6815L43.5 26.621V41C43.5 41.3978 43.342 41.7794 43.0607 42.0607C42.7794 42.342 42.3978 42.5 42 42.5H6.00002C5.6022 42.5 5.22067 42.342 4.93936 42.0607C4.65806 41.7794 4.50002 41.3978 4.50002 41V30.5C4.50002 30.1022 4.34199 29.7206 4.06068 29.4393C3.77938 29.158 3.39785 29 3.00002 29C2.6022 29 2.22067 29.158 1.93936 29.4393C1.65806 29.7206 1.50002 30.1022 1.50002 30.5V41C1.50358 42.1924 1.97883 43.3349 2.82198 44.178C3.66512 45.0212 4.80764 45.4964 6.00002 45.5H42C43.1924 45.4964 44.3349 45.0212 45.1781 44.178C46.0212 43.3349 46.4965 42.1924 46.5 41V23.621L46.6815 23.4395C47.1011 23.0226 47.4336 22.5266 47.66 21.9802C47.8863 21.4338 48.0019 20.8479 48 20.2565V12.5C48 11.3065 47.5259 10.1619 46.682 9.31802C45.8381 8.47411 44.6935 8 43.5 8ZM16.5 5C16.5 4.60218 16.6581 4.22064 16.9394 3.93934C17.2207 3.65804 17.6022 3.5 18 3.5H30C30.3978 3.5 30.7794 3.65804 31.0607 3.93934C31.342 4.22064 31.5 4.60218 31.5 5V8H16.5V5Z" fill="#48EAEB"/>
<path d="M15 23H12C11.1716 23 10.5 23.6716 10.5 24.5V30.5C10.5 31.3284 11.1716 32 12 32H15C15.8284 32 16.5 31.3284 16.5 30.5V24.5C16.5 23.6716 15.8284 23 15 23Z" fill="#48EAEB"/>
<path d="M36 23H33C32.1716 23 31.5 23.6716 31.5 24.5V30.5C31.5 31.3284 32.1716 32 33 32H36C36.8284 32 37.5 31.3284 37.5 30.5V24.5C37.5 23.6716 36.8284 23 36 23Z" fill="#48EAEB"/>
</svg>
