<svg width="161" height="51" viewBox="0 0 161 51" fill="none" xmlns="http://www.w3.org/2000/svg">
<path d="M26.1066 50.1207L0 7.61909L0.001708 7.61793C0.082893 7.56678 0.828986 7.09909 2.01175 6.42864C2.74355 6.01383 3.49767 5.60306 4.2527 5.2084C5.19686 4.71472 6.14603 4.24426 7.0738 3.80958C9.43516 2.70365 11.6733 1.82248 13.7262 1.19053C14.8643 0.835325 16.0217 0.547142 17.1925 0.327425C17.7736 0.221312 18.3417 0.139909 18.8809 0.0855823C19.4445 0.0288309 19.9923 2.15806e-05 20.5092 2.15806e-05C20.9398 -0.000773887 21.3701 0.020422 21.7986 0.0635281C22.2086 0.104919 22.6157 0.17153 23.0177 0.262995C23.4041 0.351086 23.7836 0.467394 24.1534 0.611009C24.5133 0.75115 24.8609 0.921535 25.1927 1.12039C25.8633 1.52254 26.4528 2.04981 26.9299 2.67432C27.1854 3.0096 27.4103 3.3678 27.6017 3.74446C27.8105 4.15675 27.9855 4.58572 28.125 5.02706C28.1477 5.0987 28.1715 5.17035 28.1954 5.24003C28.5614 6.58025 29.1405 7.85098 29.9098 9.0022C31.0528 10.7141 32.5846 12.1225 34.3761 13.109C36.4261 14.2359 38.7431 14.7669 41.0717 14.6435C43.4003 14.52 45.6501 13.7468 47.573 12.4092L26.1068 50.1204L26.1066 50.1207ZM53.0476 2.79123C53.0486 2.77772 53.0495 2.76439 53.0505 2.75082L53.0843 2.72686L53.0476 2.79123Z" fill="#27B4B8"/>
<mask id="mask0_203_96" style="mask-type:luminance" maskUnits="userSpaceOnUse" x="0" y="0" width="54" height="51">
<path d="M26.1086 50.1917L0.00195312 7.69013L0.00366112 7.68898C0.0848461 7.63783 0.830939 7.17013 2.0137 6.49968C2.7455 6.08487 3.49963 5.6741 4.25466 5.27944C5.19882 4.78577 6.14799 4.3153 7.07575 3.88063C9.43712 2.7747 11.6753 1.89352 13.7281 1.26158C14.8662 0.90637 16.0236 0.618187 17.1945 0.39847C17.7755 0.292357 18.3436 0.210954 18.8829 0.156627C19.4465 0.0998758 19.9942 0.0710665 20.5111 0.0710665C20.9417 0.070271 21.3721 0.091467 21.8006 0.134573C22.2105 0.175964 22.6177 0.242575 23.0197 0.33404C23.406 0.422131 23.7856 0.538439 24.1554 0.682054C24.5152 0.822195 24.8629 0.99258 25.1947 1.19143C25.8653 1.59359 26.4547 2.12085 26.9319 2.74537C27.1874 3.08065 27.4122 3.43884 27.6037 3.81551C27.8124 4.22779 27.9874 4.65676 28.1269 5.0981C28.1497 5.16975 28.1735 5.24139 28.1974 5.31108C28.5634 6.6513 29.1425 7.92203 29.9118 9.07324C31.0548 10.7851 32.5865 12.1935 34.3781 13.18C36.428 14.307 38.7451 14.838 41.0737 14.7145C43.4023 14.591 45.6521 13.8179 47.5749 12.4803L26.1088 50.1914L26.1086 50.1917ZM53.0495 2.86228C53.0505 2.84877 53.0515 2.83543 53.0525 2.82187L53.0863 2.79791L53.0495 2.86228Z" fill="white"/>
</mask>
<g mask="url(#mask0_203_96)">
<g opacity="0.5">
<g style="mix-blend-mode:color-dodge">
<path d="M-57.5742 2.37378C-57.5742 2.37378 -10.9543 33.0114 29.5369 39.3106" stroke="white" stroke-width="0.00566923" stroke-miterlimit="10"/>
</g>
<g style="mix-blend-mode:color-dodge">
<path d="M-57.5742 5.01465C-57.5742 5.01465 -11.5184 35.1478 29.5369 39.3105" stroke="white" stroke-width="0.00566923" stroke-miterlimit="10"/>
</g>
<g style="mix-blend-mode:color-dodge">
<path d="M-57.5742 7.65576C-57.5742 7.65576 -12.0826 37.2843 29.5369 39.3107" stroke="white" stroke-width="0.00566923" stroke-miterlimit="10"/>
</g>
<g style="mix-blend-mode:color-dodge">
<path d="M-57.5742 10.2966C-57.5742 10.2966 -12.6466 39.4211 29.5369 39.3106" stroke="white" stroke-width="0.00566923" stroke-miterlimit="10"/>
</g>
<g style="mix-blend-mode:color-dodge">
<path d="M-57.5742 12.9375C-57.5742 12.9375 -13.2108 41.5576 29.5369 39.3105" stroke="white" stroke-width="0.00566923" stroke-miterlimit="10"/>
</g>
<g style="mix-blend-mode:color-dodge">
<path d="M-57.5742 15.5789C-57.5742 15.5789 -13.7752 43.6943 29.5369 39.3104" stroke="white" stroke-width="0.00566923" stroke-miterlimit="10"/>
</g>
<g style="mix-blend-mode:color-dodge">
<path d="M-57.5742 18.2197C-57.5742 18.2197 -14.3392 45.8309 29.5369 39.3106" stroke="white" stroke-width="0.00566923" stroke-miterlimit="10"/>
</g>
<g style="mix-blend-mode:color-dodge">
<path d="M-57.5742 20.8606C-57.5742 20.8606 -14.9037 47.9671 29.5369 39.3105" stroke="white" stroke-width="0.00566923" stroke-miterlimit="10"/>
</g>
<g style="mix-blend-mode:color-dodge">
<path d="M-57.5742 23.5017C-57.5742 23.5017 -15.4673 50.1038 29.5369 39.3107" stroke="white" stroke-width="0.00566923" stroke-miterlimit="10"/>
</g>
<g style="mix-blend-mode:color-dodge">
<path d="M-57.5742 26.1426C-57.5742 26.1426 -16.0317 52.2402 29.5369 39.3106" stroke="white" stroke-width="0.00566923" stroke-miterlimit="10"/>
</g>
<g style="mix-blend-mode:color-dodge">
<path d="M-57.5742 28.7837C-57.5742 28.7837 -16.5958 54.3767 29.5369 39.3107" stroke="white" stroke-width="0.00566923" stroke-miterlimit="10"/>
</g>
<g style="mix-blend-mode:color-dodge">
<path d="M-57.5742 31.4246C-57.5742 31.4246 -17.16 56.5133 29.5369 39.3109" stroke="white" stroke-width="0.00566923" stroke-miterlimit="10"/>
</g>
<g style="mix-blend-mode:color-dodge">
<path d="M-57.5742 34.0654C-57.5742 34.0654 -17.7241 58.6497 29.5369 39.3105" stroke="white" stroke-width="0.00566923" stroke-miterlimit="10"/>
</g>
<g style="mix-blend-mode:color-dodge">
<path d="M-57.5742 36.7065C-57.5742 36.7065 -18.2882 60.7864 29.5369 39.3107" stroke="white" stroke-width="0.00566923" stroke-miterlimit="10"/>
</g>
<g style="mix-blend-mode:color-dodge">
<path d="M-57.5742 39.3476C-57.5742 39.3476 -18.8524 62.9227 29.5369 39.3105" stroke="white" stroke-width="0.00566923" stroke-miterlimit="10"/>
</g>
<g style="mix-blend-mode:color-dodge">
<path d="M-57.5742 41.9887C-57.5742 41.9887 -19.4168 65.0594 29.5369 39.3105" stroke="white" stroke-width="0.00566923" stroke-miterlimit="10"/>
</g>
<g style="mix-blend-mode:color-dodge">
<path d="M-57.5742 44.6296C-57.5742 44.6296 -19.9811 67.1961 29.5369 39.3105" stroke="white" stroke-width="0.00566923" stroke-miterlimit="10"/>
</g>
</g>
<g style="mix-blend-mode:color-dodge" opacity="0.468">
<path d="M-57.5742 22.05C-57.5742 22.05 -35.8297 10.013 11.9283 34.7207C37.4497 47.9242 49.8663 33.0422 62.1438 33.0735C80.64 33.1204 90.7806 52.2431 124.954 30.5252" stroke="white" stroke-width="0.0453538" stroke-miterlimit="10"/>
<path d="M-57.5742 24.1894C-57.5742 24.1894 -34.4771 9.00221 12.8486 33.1836C39.3277 46.5799 50.6388 34.5047 63.4774 34.4312C82.1459 34.3722 92.9166 51.2922 124.954 30.9316" stroke="white" stroke-width="0.0453538" stroke-miterlimit="10"/>
<path d="M-57.5742 26.3279C-57.5742 26.3279 -33.2091 8.16356 13.7691 31.6461C41.1569 45.3361 51.4108 35.9361 64.8108 35.7886C83.6514 35.5807 95.0524 50.3408 124.954 31.3374" stroke="white" stroke-width="0.0453538" stroke-miterlimit="10"/>
<path d="M-57.5742 28.4669C-57.5742 28.4669 -31.8847 7.21362 14.6895 30.1086C43.016 44.0338 52.1828 37.3866 66.1443 37.1459C85.157 36.818 97.1882 49.3895 124.954 31.7436" stroke="white" stroke-width="0.0453538" stroke-miterlimit="10"/>
<path d="M-57.5742 30.6057C-57.5742 30.6057 -30.5525 6.24872 15.6097 28.5711C44.8784 42.7243 52.9548 38.8392 67.478 38.5031C86.6622 38.0586 99.3241 48.4381 124.954 32.1496" stroke="white" stroke-width="0.0453538" stroke-miterlimit="10"/>
<path d="M-57.5742 32.7442C-57.5742 32.7442 -29.2132 5.26999 16.5301 27.0334C46.7444 41.4085 53.7267 40.2944 68.8114 39.8601C88.1675 39.3028 101.46 47.4863 124.954 32.5552" stroke="white" stroke-width="0.0453538" stroke-miterlimit="10"/>
<path d="M-57.5742 34.8834C-57.5742 34.8834 -27.8676 4.27915 17.4506 25.496C48.614 40.0862 54.4987 41.7519 70.1448 41.2178C89.673 40.551 103.596 46.535 124.954 32.9615" stroke="white" stroke-width="0.0453538" stroke-miterlimit="10"/>
<path d="M-57.5742 37.0225C-57.5742 37.0225 -26.5164 3.27603 18.371 23.959C50.4867 38.7571 55.2707 43.2117 71.4782 42.5754C91.1784 41.8018 105.732 45.5844 124.954 33.368" stroke="white" stroke-width="0.0453538" stroke-miterlimit="10"/>
<path d="M-57.5742 39.1612C-57.5742 39.1612 -25.1601 2.26182 19.2912 22.4212C52.3629 37.4199 56.0429 44.6733 72.8117 43.9325C92.6839 43.0547 107.867 44.6327 124.954 33.7736" stroke="white" stroke-width="0.0453538" stroke-miterlimit="10"/>
<path d="M-57.5742 41.3002C-57.5742 41.3002 -23.7997 1.23776 20.2116 20.8839C54.243 36.0753 56.8149 46.1373 74.1451 45.2901C94.1894 44.3104 110.003 43.6815 124.954 34.1799" stroke="white" stroke-width="0.0453538" stroke-miterlimit="10"/>
<path d="M-57.5742 43.4392C-57.5742 43.4392 -22.4349 0.203918 21.132 19.3466C56.1261 34.7222 57.5873 47.6029 75.4788 46.6475C95.6953 45.5679 112.139 42.7304 124.954 34.5862" stroke="white" stroke-width="0.0453538" stroke-miterlimit="10"/>
<path d="M-57.5742 45.578C-57.5742 45.578 -21.067 -0.838613 22.0522 17.8091C58.0127 33.3606 58.3598 49.0709 76.8122 48.005C97.2014 46.8272 114.275 41.7791 124.954 34.992" stroke="white" stroke-width="0.0453538" stroke-miterlimit="10"/>
<path d="M-57.5742 47.7169C-57.5742 47.7169 -19.6962 -1.88939 22.9726 16.2715C59.9027 31.9902 59.1324 50.5403 78.1454 49.3623C98.707 48.0881 116.411 40.8276 124.954 35.3981" stroke="white" stroke-width="0.0453538" stroke-miterlimit="10"/>
<path d="M-57.5742 49.8559C-57.5742 49.8559 -18.3223 -2.94823 23.8931 14.7343C61.796 30.6104 59.9079 52.0507 79.479 50.7197C100.216 49.3918 118.547 39.8765 124.954 35.8044" stroke="white" stroke-width="0.0453538" stroke-miterlimit="10"/>
<path d="M-57.5742 51.9942C-57.5742 51.9942 -16.9467 -4.01468 24.8132 13.1963C63.693 29.2202 60.6804 53.5122 80.8125 52.0766C101.722 50.6428 120.683 38.9247 124.954 36.21" stroke="white" stroke-width="0.0453538" stroke-miterlimit="10"/>
<path d="M-57.5742 54.1334C-57.5742 54.1334 -15.5416 -5.1556 25.7337 11.6589C65.6193 27.7548 61.4528 54.9747 82.1459 53.4344C103.228 51.8947 122.818 37.9735 124.954 36.6163" stroke="white" stroke-width="0.0453538" stroke-miterlimit="10"/>
<path d="M-57.5742 56.2725C-57.5742 56.2725 -14.1892 -6.16665 26.6541 10.1219C67.4974 26.4104 62.2252 56.4369 83.4796 54.7918C104.734 53.1466 124.954 37.0225 124.954 37.0225" stroke="white" stroke-width="0.0453538" stroke-miterlimit="10"/>
</g>
<g style="mix-blend-mode:color-dodge">
<path d="M-57.5742 14.3588C-57.5742 14.3588 -33.8253 48.6603 -0.240085 49.3185C32.9273 49.9686 77.2739 -9.41569 124.954 20.9401" stroke="white" stroke-width="0.0680307" stroke-miterlimit="10"/>
</g>
<g style="mix-blend-mode:color-dodge">
<path d="M-57.5742 59.6456C-57.5742 59.6456 -26.8488 4.65154 9.71283 2.98716C49.0005 1.19888 61.3053 42.0442 83.3633 48.9791C108.263 56.8077 124.954 48.6632 124.954 48.6632" stroke="white" stroke-width="0.0680307" stroke-miterlimit="10"/>
</g>
<g style="mix-blend-mode:color-dodge">
<path d="M-57.5742 9.66945C-57.5742 9.66945 -41.0454 2.0188 -22.6302 6.13215C-5.80114 9.89108 31.1813 44.3032 49.2901 50.5552C69.6729 57.5924 102.179 51.5425 124.954 9.75189" stroke="white" stroke-width="0.0680307" stroke-miterlimit="10"/>
</g>
<g style="mix-blend-mode:color-dodge">
<path d="M-57.5742 45.4232C-57.5742 45.4232 -37.0298 56.2725 -11.5975 51.872C10.2154 48.0977 37.8878 15.914 63.3635 15.949C87.8632 15.9828 103.781 26.4502 124.954 54.8335" stroke="white" stroke-width="0.0680307" stroke-miterlimit="10"/>
</g>
<g style="mix-blend-mode:color-dodge">
<path d="M124.954 15.8295C124.954 15.8295 81.3703 -18.3827 26.7778 14.3334C-15.9333 39.9292 -24.9019 47.2176 -57.5742 27.5004" stroke="white" stroke-width="0.0680307" stroke-miterlimit="10"/>
</g>
<g style="mix-blend-mode:color-dodge">
<path d="M124.954 16.6287C124.954 16.6287 81.3703 -17.5835 26.7778 15.1329C-15.9333 40.7285 -24.9019 48.0168 -57.5742 28.2999" stroke="white" stroke-width="0.0680307" stroke-miterlimit="10"/>
</g>
<path d="M18.0137 18.2924C18.0137 18.3553 18.032 18.4168 18.0664 18.4691C18.1008 18.5214 18.1498 18.5621 18.207 18.5862C18.2642 18.6103 18.3271 18.6166 18.3879 18.6043C18.4486 18.592 18.5044 18.5617 18.5482 18.5173C18.592 18.4728 18.6218 18.4161 18.6339 18.3544C18.646 18.2927 18.6398 18.2288 18.6161 18.1707C18.5924 18.1126 18.5523 18.0629 18.5008 18.028C18.4493 17.993 18.3887 17.9744 18.3268 17.9744C18.2438 17.9744 18.1641 18.0079 18.1054 18.0675C18.0467 18.1271 18.0137 18.208 18.0137 18.2924Z" fill="#07EAD3" stroke="white" stroke-width="0.0226769"/>
<path d="M20.9538 31.8073C21.1268 31.8073 21.267 31.6649 21.267 31.4892C21.267 31.3136 21.1268 31.1711 20.9538 31.1711C20.7808 31.1711 20.6406 31.3136 20.6406 31.4892C20.6406 31.6649 20.7808 31.8073 20.9538 31.8073Z" fill="#07EAD3" stroke="white" stroke-width="0.0226769"/>
<path d="M28.6641 39.3103C28.6641 39.4858 28.7154 39.6573 28.8115 39.8031C28.9076 39.949 29.0442 40.0627 29.204 40.1298C29.3639 40.197 29.5397 40.2145 29.7094 40.1803C29.8791 40.1461 30.0349 40.0616 30.1573 39.9376C30.2796 39.8135 30.3629 39.6555 30.3967 39.4834C30.4304 39.3113 30.4131 39.133 30.3469 38.9709C30.2807 38.8088 30.1686 38.6703 30.0247 38.5728C29.8809 38.4754 29.7118 38.4233 29.5388 38.4233C29.4239 38.4233 29.3101 38.4463 29.204 38.4908C29.0979 38.5354 29.0015 38.6008 28.9202 38.6831C28.839 38.7655 28.7746 38.8633 28.7306 38.9709C28.6867 39.0785 28.6641 39.1939 28.6641 39.3103Z" fill="white" stroke="white" stroke-width="0.0226769"/>
<path d="M38.8945 46.8234C38.8945 46.8863 38.9129 46.9478 38.9473 47.0001C38.9817 47.0524 39.0306 47.0931 39.0878 47.1172C39.145 47.1413 39.208 47.1476 39.2687 47.1353C39.3295 47.123 39.3853 47.0927 39.4291 47.0483C39.4729 47.0038 39.5027 46.9471 39.5148 46.8854C39.5268 46.8237 39.5206 46.7598 39.4969 46.7017C39.4732 46.6436 39.4331 46.5939 39.3816 46.559C39.3301 46.524 39.2696 46.5054 39.2077 46.5054C39.1246 46.5055 39.045 46.539 38.9863 46.5986C38.9276 46.6582 38.8946 46.7391 38.8945 46.8234Z" fill="#07EAD3" stroke="white" stroke-width="0.0226769"/>
<path d="M45.2604 39.9601C45.4334 39.9601 45.5736 39.8177 45.5736 39.6421C45.5736 39.4664 45.4334 39.324 45.2604 39.324C45.0875 39.324 44.9473 39.4664 44.9473 39.6421C44.9473 39.8177 45.0875 39.9601 45.2604 39.9601Z" fill="#07EAD3" stroke="white" stroke-width="0.0226769"/>
<path d="M41.7148 42.3773C41.7148 42.4402 41.7332 42.5017 41.7676 42.554C41.802 42.6063 41.8509 42.6471 41.9081 42.6712C41.9654 42.6952 42.0283 42.7015 42.0891 42.6893C42.1498 42.677 42.2056 42.6467 42.2494 42.6022C42.2932 42.5577 42.323 42.5011 42.3351 42.4394C42.3472 42.3777 42.341 42.3138 42.3173 42.2556C42.2936 42.1975 42.2534 42.1479 42.2019 42.1129C42.1504 42.078 42.0899 42.0593 42.028 42.0593C41.9449 42.0593 41.8653 42.0928 41.8066 42.1525C41.7478 42.2121 41.7148 42.293 41.7148 42.3773Z" fill="#07EAD3" stroke="white" stroke-width="0.0226769"/>
<path d="M11.0202 36.6076C11.1932 36.6076 11.3334 36.4652 11.3334 36.2895C11.3334 36.1138 11.1932 35.9714 11.0202 35.9714C10.8472 35.9714 10.707 36.1138 10.707 36.2895C10.707 36.4652 10.8472 36.6076 11.0202 36.6076Z" fill="#8CEFF4" stroke="white" stroke-width="0.0226769"/>
<path d="M19.1641 25.2973C19.1641 25.3602 19.1824 25.4217 19.2168 25.4739C19.2512 25.5262 19.3001 25.567 19.3574 25.5911C19.4146 25.6151 19.4775 25.6214 19.5383 25.6092C19.599 25.5969 19.6548 25.5666 19.6986 25.5221C19.7424 25.4777 19.7722 25.421 19.7843 25.3593C19.7964 25.2976 19.7902 25.2337 19.7665 25.1756C19.7428 25.1175 19.7026 25.0678 19.6512 25.0328C19.5997 24.9979 19.5391 24.9792 19.4772 24.9792C19.4361 24.9792 19.3953 24.9875 19.3574 25.0035C19.3194 25.0194 19.2849 25.0429 19.2558 25.0724C19.2267 25.1019 19.2036 25.137 19.1879 25.1756C19.1722 25.2142 19.1641 25.2555 19.1641 25.2973Z" fill="#07EAD3" stroke="white" stroke-width="0.0226769"/>
<path d="M33.5865 39.424C33.6484 39.4225 33.7084 39.4023 33.7591 39.3661C33.8097 39.3299 33.8486 39.2792 33.8709 39.2206C33.8932 39.1619 33.8978 39.0978 33.8843 39.0364C33.8707 38.9751 33.8395 38.9192 33.7947 38.8758C33.7498 38.8324 33.6933 38.8035 33.6323 38.7928C33.5713 38.782 33.5085 38.7899 33.4519 38.8153C33.3953 38.8408 33.3474 38.8828 33.3142 38.9359C33.2811 38.989 33.2642 39.0509 33.2657 39.1138C33.2667 39.1556 33.2758 39.1967 33.2925 39.2349C33.3091 39.2731 33.333 39.3076 33.3628 39.3364C33.3926 39.3652 33.4277 39.3878 33.4661 39.4028C33.5044 39.4178 33.5454 39.4251 33.5865 39.424Z" fill="#07EAD3" stroke="white" stroke-width="0.0226769"/>
<path d="M15.7285 32.2313C15.7285 32.2638 15.7381 32.2957 15.7559 32.3228C15.7738 32.3498 15.7991 32.3709 15.8287 32.3834C15.8584 32.3958 15.891 32.3991 15.9225 32.3927C15.9539 32.3863 15.9828 32.3706 16.0055 32.3475C16.0282 32.3245 16.0436 32.2951 16.0498 32.2632C16.0561 32.2312 16.0528 32.1981 16.0405 32.168C16.0282 32.1379 16.0074 32.1122 15.9807 32.0941C15.954 32.076 15.9227 32.0664 15.8906 32.0664C15.8693 32.0664 15.8482 32.0707 15.8285 32.0789C15.8088 32.0872 15.7909 32.0994 15.7759 32.1147C15.7608 32.13 15.7489 32.1482 15.7408 32.1682C15.7326 32.1882 15.7285 32.2096 15.7285 32.2313Z" fill="#07EAD3" stroke="white" stroke-width="0.0226769"/>
<path d="M18.0391 34.0585C18.0391 34.0884 18.0478 34.1177 18.0642 34.1426C18.0806 34.1674 18.1039 34.1868 18.1312 34.1983C18.1584 34.2097 18.1884 34.2127 18.2173 34.2068C18.2462 34.2009 18.2728 34.1865 18.2936 34.1653C18.3144 34.1441 18.3286 34.1171 18.3343 34.0878C18.34 34.0584 18.3371 34.028 18.3258 34.0003C18.3145 33.9727 18.2953 33.949 18.2708 33.9324C18.2463 33.9158 18.2175 33.907 18.188 33.907C18.1485 33.907 18.1106 33.923 18.0827 33.9514C18.0547 33.9798 18.0391 34.0183 18.0391 34.0585Z" fill="#07EAD3" stroke="white" stroke-width="0.0226769"/>
<path d="M19.2949 36.6605C19.2949 36.6932 19.3045 36.7251 19.3223 36.7522C19.3402 36.7794 19.3656 36.8006 19.3953 36.8131C19.425 36.8256 19.4577 36.8288 19.4892 36.8225C19.5208 36.8161 19.5498 36.8004 19.5725 36.7773C19.5952 36.7542 19.6107 36.7248 19.617 36.6927C19.6233 36.6607 19.62 36.6275 19.6077 36.5973C19.5954 36.5671 19.5746 36.5413 19.5479 36.5232C19.5211 36.505 19.4897 36.4954 19.4575 36.4954C19.4362 36.4954 19.415 36.4996 19.3953 36.5079C19.3756 36.5162 19.3576 36.5284 19.3425 36.5437C19.3274 36.559 19.3155 36.5773 19.3073 36.5973C19.2991 36.6173 19.2949 36.6388 19.2949 36.6605Z" fill="#07EAD3" stroke="white" stroke-width="0.0226769"/>
<path d="M19.4907 44.9808C19.5804 44.9808 19.6532 44.9069 19.6532 44.8157C19.6532 44.7245 19.5804 44.6506 19.4907 44.6506C19.4009 44.6506 19.3281 44.7245 19.3281 44.8157C19.3281 44.9069 19.4009 44.9808 19.4907 44.9808Z" fill="#07EAD3" stroke="white" stroke-width="0.0226769"/>
<path d="M19.8594 38.0277C19.8594 38.0603 19.869 38.0922 19.8868 38.1193C19.9047 38.1464 19.9301 38.1675 19.9598 38.18C19.9895 38.1924 20.0221 38.1957 20.0536 38.1893C20.0851 38.1829 20.1141 38.1671 20.1368 38.1441C20.1595 38.121 20.1749 38.0916 20.1811 38.0596C20.1874 38.0276 20.1841 37.9944 20.1718 37.9643C20.1595 37.9341 20.1387 37.9084 20.1119 37.8903C20.0852 37.8722 20.0538 37.8625 20.0217 37.8625C19.9786 37.8626 19.9373 37.88 19.9069 37.911C19.8764 37.942 19.8593 37.9839 19.8594 38.0277Z" fill="#07EAD3" stroke="white" stroke-width="0.0226769"/>
<path d="M25.002 33.0782C25.002 33.1108 25.0115 33.1427 25.0294 33.1698C25.0473 33.1969 25.0727 33.2181 25.1024 33.2305C25.1321 33.243 25.1647 33.2462 25.1962 33.2398C25.2277 33.2334 25.2566 33.2177 25.2793 33.1946C25.302 33.1715 25.3175 33.1421 25.3237 33.1101C25.33 33.0781 25.3267 33.0449 25.3144 33.0148C25.3021 32.9847 25.2812 32.9589 25.2545 32.9408C25.2278 32.9227 25.1964 32.9131 25.1643 32.9131C25.1429 32.9131 25.1218 32.9174 25.1021 32.9257C25.0824 32.934 25.0645 32.9462 25.0494 32.9615C25.0344 32.9768 25.0224 32.995 25.0143 33.0151C25.0061 33.0351 25.0019 33.0566 25.002 33.0782Z" fill="#07EAD3" stroke="white" stroke-width="0.0226769"/>
<path d="M24.2793 47.053C24.2793 47.0857 24.2888 47.1176 24.3067 47.1448C24.3245 47.1719 24.3499 47.1931 24.3796 47.2056C24.4093 47.2181 24.442 47.2214 24.4736 47.215C24.5051 47.2087 24.5341 47.193 24.5568 47.1699C24.5796 47.1468 24.5951 47.1174 24.6014 47.0853C24.6076 47.0533 24.6044 47.0201 24.5921 46.9899C24.5798 46.9597 24.559 46.9339 24.5322 46.9158C24.5055 46.8976 24.4741 46.8879 24.4419 46.8879C24.4205 46.8879 24.3994 46.8922 24.3797 46.9005C24.3599 46.9088 24.342 46.9209 24.3269 46.9363C24.3118 46.9516 24.2998 46.9698 24.2917 46.9898C24.2835 47.0099 24.2793 47.0313 24.2793 47.053Z" fill="#07EAD3" stroke="white" stroke-width="0.0226769"/>
<path d="M26.6719 25.7146C26.6719 25.7473 26.6814 25.7792 26.6992 25.8064C26.7171 25.8336 26.7425 25.8547 26.7722 25.8672C26.8019 25.8798 26.8346 25.883 26.8662 25.8767C26.8977 25.8703 26.9267 25.8546 26.9494 25.8315C26.9722 25.8084 26.9877 25.779 26.9939 25.7469C27.0002 25.7149 26.997 25.6817 26.9847 25.6515C26.9724 25.6213 26.9516 25.5955 26.9248 25.5774C26.8981 25.5592 26.8666 25.5496 26.8345 25.5496C26.8131 25.5495 26.792 25.5538 26.7722 25.5621C26.7525 25.5704 26.7346 25.5825 26.7195 25.5979C26.7044 25.6132 26.6924 25.6314 26.6842 25.6514C26.6761 25.6715 26.6719 25.693 26.6719 25.7146Z" fill="#07EAD3" stroke="white" stroke-width="0.0226769"/>
<path d="M33.4063 37.0426C33.4063 37.0752 33.4158 37.1072 33.4337 37.1343C33.4515 37.1615 33.4769 37.1827 33.5066 37.1952C33.5364 37.2076 33.569 37.2109 33.6006 37.2045C33.6321 37.1982 33.6611 37.1824 33.6838 37.1593C33.7066 37.1362 33.7221 37.1068 33.7283 37.0748C33.7346 37.0427 33.7314 37.0095 33.7191 36.9793C33.7067 36.9492 33.6859 36.9234 33.6591 36.9052C33.6324 36.8871 33.601 36.8774 33.5688 36.8774C33.5474 36.8774 33.5263 36.8817 33.5066 36.89C33.4869 36.8983 33.4689 36.9105 33.4538 36.9258C33.4387 36.9411 33.4268 36.9594 33.4186 36.9794C33.4104 36.9994 33.4062 37.0209 33.4063 37.0426Z" fill="#07EAD3" stroke="white" stroke-width="0.0226769"/>
<path d="M51.0586 5.96807C51.0585 6.00075 51.068 6.0327 51.0859 6.0599C51.1037 6.08709 51.1291 6.1083 51.1588 6.12084C51.1885 6.13339 51.2212 6.1367 51.2527 6.13036C51.2843 6.12402 51.3133 6.10832 51.3361 6.08523C51.3588 6.06215 51.3743 6.03273 51.3806 6.00068C51.3869 5.96864 51.3837 5.93542 51.3714 5.90523C51.3591 5.87504 51.3383 5.84923 51.3116 5.83107C51.2848 5.81291 51.2534 5.80322 51.2212 5.80322C51.1781 5.80321 51.1368 5.82056 51.1063 5.85147C51.0758 5.88238 51.0587 5.92432 51.0586 5.96807Z" fill="#07EAD3" stroke="white" stroke-width="0.0226769"/>
<path d="M47.5254 10.2723C47.5254 10.3049 47.5349 10.3368 47.5527 10.364C47.5706 10.3911 47.5959 10.4123 47.6256 10.4248C47.6553 10.4373 47.688 10.4405 47.7195 10.4342C47.751 10.4278 47.7799 10.4121 47.8027 10.389C47.8254 10.366 47.8409 10.3366 47.8471 10.3045C47.8534 10.2725 47.8502 10.2394 47.8379 10.2092C47.8256 10.1791 47.8047 10.1533 47.778 10.1352C47.7513 10.1171 47.7198 10.1074 47.6877 10.1074C47.6447 10.1075 47.6034 10.1249 47.573 10.1558C47.5426 10.1867 47.5254 10.2286 47.5254 10.2723Z" fill="#07EAD3" stroke="white" stroke-width="0.0226769"/>
<path d="M47.3945 23.3855C47.3945 23.4182 47.404 23.4501 47.4219 23.4773C47.4398 23.5045 47.4652 23.5256 47.4949 23.5382C47.5246 23.5507 47.5573 23.5539 47.5888 23.5476C47.6204 23.5412 47.6494 23.5255 47.6721 23.5024C47.6948 23.4793 47.7103 23.4498 47.7166 23.4178C47.7229 23.3858 47.7197 23.3526 47.7073 23.3224C47.695 23.2922 47.6742 23.2664 47.6474 23.2483C47.6207 23.2301 47.5892 23.2204 47.5571 23.2205C47.5357 23.2205 47.5146 23.2247 47.4949 23.233C47.4752 23.2413 47.4572 23.2535 47.4421 23.2688C47.427 23.2841 47.4151 23.3023 47.4069 23.3224C47.3987 23.3424 47.3945 23.3639 47.3945 23.3855Z" fill="#07EAD3" stroke="white" stroke-width="0.0226769"/>
<path d="M50.3516 43.2418C50.3516 43.2744 50.3611 43.3063 50.379 43.3335C50.3969 43.3606 50.4223 43.3817 50.452 43.3942C50.4817 43.4067 50.5143 43.4099 50.5459 43.4035C50.5774 43.3971 50.6063 43.3814 50.629 43.3583C50.6517 43.3352 50.6672 43.3058 50.6734 43.2738C50.6797 43.2417 50.6764 43.2086 50.6641 43.1784C50.6518 43.1483 50.631 43.1225 50.6042 43.1044C50.5775 43.0863 50.5461 43.0766 50.5139 43.0767C50.4926 43.0767 50.4715 43.081 50.4518 43.0893C50.4321 43.0976 50.4141 43.1097 50.3991 43.1251C50.384 43.1404 50.372 43.1586 50.3639 43.1786C50.3557 43.1987 50.3515 43.2201 50.3516 43.2418Z" fill="#07EAD3" stroke="white" stroke-width="0.0226769"/>
<path d="M48.6816 40.1477C48.6816 40.1804 48.6912 40.2123 48.709 40.2395C48.7269 40.2667 48.7523 40.2879 48.782 40.3004C48.8117 40.3129 48.8444 40.3161 48.8759 40.3098C48.9075 40.3034 48.9365 40.2877 48.9592 40.2646C48.982 40.2415 48.9974 40.212 49.0037 40.18C49.01 40.148 49.0068 40.1148 48.9944 40.0846C48.9821 40.0544 48.9613 40.0286 48.9345 40.0105C48.9078 39.9923 48.8763 39.9827 48.8442 39.9827C48.8228 39.9827 48.8017 39.9869 48.782 39.9952C48.7623 40.0035 48.7443 40.0157 48.7292 40.031C48.7142 40.0463 48.7022 40.0645 48.694 40.0846C48.6858 40.1046 48.6816 40.1261 48.6816 40.1477Z" fill="#07EAD3" stroke="white" stroke-width="0.0226769"/>
<path d="M52.5039 41.1952C52.5039 41.2278 52.5135 41.2597 52.5314 41.2868C52.5492 41.3139 52.5746 41.335 52.6043 41.3474C52.6339 41.3599 52.6666 41.3632 52.6981 41.3568C52.7296 41.3504 52.7585 41.3347 52.7812 41.3116C52.8039 41.2886 52.8194 41.2592 52.8256 41.2272C52.8319 41.1952 52.8287 41.162 52.8164 41.1319C52.8041 41.1018 52.7833 41.076 52.7566 41.0579C52.7299 41.0397 52.6986 41.0301 52.6664 41.03C52.6451 41.03 52.6239 41.0343 52.6042 41.0426C52.5845 41.0509 52.5666 41.063 52.5515 41.0784C52.5364 41.0937 52.5244 41.1119 52.5162 41.132C52.5081 41.152 52.5039 41.1735 52.5039 41.1952Z" fill="#07EAD3" stroke="white" stroke-width="0.0226769"/>
<path d="M46.1092 48.8349C46.1379 48.8496 46.1703 48.8553 46.2022 48.8512C46.2341 48.8472 46.2641 48.8337 46.2884 48.8123C46.3127 48.791 46.3302 48.7628 46.3388 48.7313C46.3473 48.6999 46.3465 48.6665 46.3364 48.6355C46.3262 48.6046 46.3073 48.5773 46.2819 48.5573C46.2566 48.5372 46.2259 48.5253 46.1939 48.5229C46.1618 48.5205 46.1298 48.5279 46.1019 48.544C46.0739 48.5601 46.0513 48.5843 46.0369 48.6135C46.0273 48.6328 46.0215 48.6539 46.02 48.6756C46.0184 48.6972 46.0211 48.7189 46.0278 48.7395C46.0345 48.76 46.0451 48.7791 46.0591 48.7955C46.0731 48.8118 46.0901 48.8253 46.1092 48.8349Z" fill="#07EAD3" stroke="white" stroke-width="0.0226769"/>
<path d="M31.4941 45.5875C31.4941 45.6201 31.5036 45.6521 31.5214 45.6793C31.5392 45.7065 31.5646 45.7277 31.5943 45.7402C31.624 45.7528 31.6567 45.7561 31.6883 45.7497C31.7199 45.7434 31.7489 45.7277 31.7716 45.7046C31.7944 45.6815 31.8099 45.6521 31.8162 45.62C31.8225 45.588 31.8193 45.5548 31.807 45.5246C31.7947 45.4944 31.7738 45.4686 31.7471 45.4504C31.7203 45.4323 31.6889 45.4226 31.6567 45.4226C31.6136 45.4226 31.5723 45.44 31.5418 45.4709C31.5114 45.5018 31.4942 45.5437 31.4941 45.5875Z" fill="#41EAF7" stroke="white" stroke-width="0.0226769"/>
<path d="M33.3965 48.2005C33.3965 48.2331 33.406 48.265 33.4239 48.2921C33.4418 48.3192 33.4671 48.3403 33.4968 48.3528C33.5265 48.3653 33.5591 48.3685 33.5906 48.3622C33.6221 48.3558 33.651 48.3401 33.6737 48.317C33.6965 48.294 33.7119 48.2646 33.7182 48.2326C33.7245 48.2006 33.7213 48.1675 33.709 48.1373C33.6967 48.1072 33.6759 48.0814 33.6493 48.0633C33.6226 48.0451 33.5912 48.0354 33.5591 48.0354C33.5377 48.0354 33.5166 48.0396 33.4969 48.0479C33.4771 48.0562 33.4592 48.0684 33.4441 48.0837C33.429 48.099 33.417 48.1172 33.4088 48.1373C33.4007 48.1573 33.3965 48.1788 33.3965 48.2005Z" fill="#41EAF7" stroke="white" stroke-width="0.0226769"/>
<path d="M48.9727 14.667C48.9726 14.6997 48.9821 14.7317 48.9999 14.7589C49.0178 14.7861 49.0431 14.8073 49.0728 14.8198C49.1025 14.8324 49.1352 14.8357 49.1668 14.8293C49.1984 14.823 49.2274 14.8073 49.2501 14.7842C49.2729 14.7611 49.2884 14.7317 49.2947 14.6997C49.301 14.6676 49.2978 14.6344 49.2855 14.6042C49.2732 14.574 49.2524 14.5482 49.2256 14.53C49.1989 14.5119 49.1674 14.5022 49.1353 14.5022C49.0922 14.5022 49.0509 14.5195 49.0204 14.5504C48.9899 14.5814 48.9727 14.6233 48.9727 14.667Z" fill="#41EAF7" stroke="white" stroke-width="0.0226769"/>
<path d="M39.9766 14.1736C39.9765 14.2063 39.986 14.2382 40.0039 14.2653C40.0217 14.2925 40.0471 14.3136 40.0768 14.3261C40.1064 14.3386 40.1391 14.3419 40.1706 14.3356C40.2021 14.3292 40.2311 14.3135 40.2538 14.2904C40.2765 14.2674 40.292 14.238 40.2983 14.2059C40.3046 14.1739 40.3013 14.1408 40.289 14.1106C40.2767 14.0805 40.2559 14.0547 40.2292 14.0366C40.2025 14.0184 40.1711 14.0088 40.1389 14.0088C40.0959 14.0088 40.0546 14.0262 40.0242 14.0571C39.9937 14.088 39.9766 14.1299 39.9766 14.1736Z" fill="#41EAF7" stroke="white" stroke-width="0.0226769"/>
<path d="M44.5781 7.94244C44.5781 7.97511 44.5876 8.00707 44.6054 8.03426C44.6232 8.06146 44.6486 8.08267 44.6783 8.09521C44.708 8.10775 44.7407 8.11107 44.7723 8.10473C44.8038 8.09839 44.8328 8.08268 44.8556 8.0596C44.8784 8.03651 44.8939 8.00709 44.9002 7.97505C44.9065 7.94301 44.9033 7.90979 44.891 7.8796C44.8787 7.84941 44.8578 7.8236 44.8311 7.80544C44.8043 7.78728 44.7729 7.77759 44.7407 7.77759C44.6976 7.77757 44.6563 7.79493 44.6258 7.82584C44.5953 7.85675 44.5782 7.89868 44.5781 7.94244Z" fill="#41EAF7" stroke="white" stroke-width="0.0226769"/>
<path d="M36.1211 2.53892C36.1211 2.57158 36.1306 2.60351 36.1485 2.63066C36.1664 2.65782 36.1918 2.67899 36.2215 2.69149C36.2512 2.70398 36.2839 2.70725 36.3154 2.70088C36.347 2.69451 36.3759 2.67878 36.3987 2.65569C36.4214 2.63259 36.4369 2.60317 36.4432 2.57113C36.4494 2.5391 36.4462 2.5059 36.4339 2.47572C36.4216 2.44555 36.4008 2.41976 36.374 2.40161C36.3473 2.38346 36.3158 2.37378 36.2837 2.37378C36.2623 2.37377 36.2412 2.37804 36.2215 2.38633C36.2017 2.39463 36.1838 2.40679 36.1687 2.42213C36.1536 2.43747 36.1416 2.45567 36.1335 2.47571C36.1253 2.49575 36.1211 2.51723 36.1211 2.53892Z" fill="#41EAF7" stroke="white" stroke-width="0.0226769"/>
<path d="M39.8535 0.805763C39.8535 0.838425 39.8631 0.870352 39.8809 0.897509C39.8988 0.924666 39.9242 0.945832 39.9539 0.958331C39.9836 0.97083 40.0163 0.9741 40.0478 0.967728C40.0794 0.961356 40.1083 0.945629 40.1311 0.922534C40.1538 0.899439 40.1693 0.870014 40.1756 0.83798C40.1819 0.805946 40.1786 0.772743 40.1663 0.742568C40.154 0.712393 40.1332 0.686601 40.1064 0.668456C40.0797 0.65031 40.0483 0.640625 40.0161 0.640625C39.9948 0.640617 39.9736 0.644884 39.9539 0.65318C39.9342 0.661476 39.9162 0.67364 39.9011 0.688976C39.886 0.704312 39.874 0.72252 39.8659 0.742559C39.8577 0.762598 39.8535 0.784075 39.8535 0.805763Z" fill="#41EAF7" stroke="white" stroke-width="0.0226769"/>
<path d="M45.0957 2.37327C45.0957 2.45777 45.1204 2.54037 45.1667 2.61062C45.213 2.68088 45.2788 2.73564 45.3558 2.76797C45.4328 2.80031 45.5175 2.80877 45.5992 2.79228C45.6809 2.7758 45.756 2.73511 45.8149 2.67536C45.8738 2.61561 45.9139 2.53949 45.9302 2.45662C45.9465 2.37374 45.9381 2.28784 45.9062 2.20978C45.8743 2.13171 45.8203 2.06499 45.7511 2.01805C45.6818 1.9711 45.6003 1.94604 45.517 1.94604C45.4053 1.94604 45.2981 1.99106 45.2191 2.07118C45.1401 2.1513 45.0957 2.25996 45.0957 2.37327Z" fill="#07EAD3" stroke="white" stroke-width="0.0226769"/>
<path d="M30.3086 42.1944C30.3086 42.227 30.3182 42.2589 30.336 42.286C30.3539 42.3131 30.3792 42.3342 30.4089 42.3467C30.4386 42.3592 30.4712 42.3624 30.5027 42.3561C30.5342 42.3497 30.5631 42.334 30.5859 42.3109C30.6086 42.2879 30.624 42.2585 30.6303 42.2265C30.6366 42.1945 30.6334 42.1614 30.6211 42.1312C30.6089 42.1011 30.5881 42.0753 30.5614 42.0572C30.5347 42.039 30.5033 42.0293 30.4712 42.0293C30.4498 42.0293 30.4287 42.0335 30.409 42.0418C30.3892 42.0501 30.3713 42.0623 30.3562 42.0776C30.3411 42.0929 30.3291 42.1111 30.321 42.1312C30.3128 42.1512 30.3086 42.1727 30.3086 42.1944Z" fill="#07EAD3" stroke="white" stroke-width="0.0226769"/>
<path d="M30.6328 41.2972C30.6328 41.3298 30.6423 41.3618 30.6602 41.3889C30.678 41.4161 30.7034 41.4373 30.7331 41.4498C30.7629 41.4623 30.7956 41.4656 30.8271 41.4592C30.8586 41.4528 30.8876 41.4371 30.9104 41.414C30.9331 41.3909 30.9486 41.3615 30.9549 41.3295C30.9612 41.2974 30.9579 41.2642 30.9456 41.234C30.9333 41.2039 30.9125 41.1781 30.8858 41.1599C30.859 41.1418 30.8276 41.1321 30.7954 41.1321C30.7741 41.1321 30.7529 41.1363 30.7332 41.1446C30.7135 41.1529 30.6955 41.1651 30.6804 41.1804C30.6653 41.1957 30.6533 41.2139 30.6452 41.234C30.637 41.254 30.6328 41.2755 30.6328 41.2972Z" fill="#07EAD3" stroke="white" stroke-width="0.0226769"/>
<path d="M25.4238 40.8011C25.4238 40.8337 25.4333 40.8657 25.4512 40.8928C25.4691 40.92 25.4945 40.9412 25.5242 40.9537C25.5539 40.9662 25.5866 40.9695 25.6181 40.9631C25.6497 40.9567 25.6786 40.941 25.7014 40.9179C25.7241 40.8948 25.7396 40.8654 25.7459 40.8334C25.7522 40.8013 25.749 40.7681 25.7367 40.7379C25.7243 40.7078 25.7035 40.682 25.6768 40.6638C25.65 40.6457 25.6186 40.636 25.5864 40.636C25.5651 40.636 25.5439 40.6402 25.5242 40.6485C25.5045 40.6568 25.4865 40.669 25.4714 40.6843C25.4563 40.6996 25.4444 40.7178 25.4362 40.7379C25.428 40.7579 25.4238 40.7794 25.4238 40.8011Z" fill="#07EAD3" stroke="white" stroke-width="0.0226769"/>
<path d="M25.4395 41.6852C25.4395 41.7178 25.449 41.7497 25.4669 41.7769C25.4847 41.8041 25.5101 41.8252 25.5398 41.8377C25.5695 41.8502 25.6022 41.8535 25.6338 41.8471C25.6653 41.8407 25.6943 41.825 25.717 41.8019C25.7398 41.7788 25.7553 41.7494 25.7615 41.7174C25.7678 41.6853 25.7646 41.6521 25.7523 41.622C25.74 41.5918 25.7191 41.566 25.6924 41.5479C25.6656 41.5297 25.6342 41.52 25.6021 41.52C25.5807 41.52 25.5595 41.5243 25.5398 41.5326C25.5201 41.5409 25.5022 41.553 25.4871 41.5684C25.472 41.5837 25.46 41.6019 25.4518 41.622C25.4436 41.642 25.4394 41.6635 25.4395 41.6852Z" fill="#07EAD3" stroke="white" stroke-width="0.0226769"/>
<path d="M13.8305 49.2999C13.9203 49.2999 13.9931 49.226 13.9931 49.1348C13.9931 49.0436 13.9203 48.9697 13.8305 48.9697C13.7407 48.9697 13.668 49.0436 13.668 49.1348C13.668 49.226 13.7407 49.2999 13.8305 49.2999Z" fill="#07EAD3" stroke="white" stroke-width="0.0226769"/>
<path d="M17.1797 40.7435C17.1797 40.7761 17.1892 40.808 17.207 40.8351C17.2248 40.8623 17.2502 40.8834 17.2798 40.8959C17.3095 40.9084 17.3422 40.9117 17.3737 40.9054C17.4052 40.8991 17.4341 40.8834 17.4569 40.8603C17.4796 40.8373 17.4951 40.8079 17.5014 40.7759C17.5077 40.7439 17.5045 40.7107 17.4922 40.6806C17.48 40.6504 17.4592 40.6247 17.4325 40.6065C17.4058 40.5884 17.3744 40.5786 17.3423 40.5786C17.2992 40.5786 17.2579 40.596 17.2274 40.6269C17.1969 40.6578 17.1797 40.6997 17.1797 40.7435Z" fill="#07EAD3" stroke="white" stroke-width="0.0226769"/>
<path d="M30.3086 31.2928C30.3086 31.3254 30.3182 31.3573 30.3361 31.3844C30.3539 31.4115 30.3793 31.4327 30.409 31.4451C30.4387 31.4576 30.4714 31.4608 30.5029 31.4544C30.5344 31.448 30.5633 31.4323 30.586 31.4092C30.6087 31.3861 30.6241 31.3567 30.6304 31.3247C30.6366 31.2927 30.6334 31.2595 30.621 31.2294C30.6087 31.1993 30.5879 31.1735 30.5612 31.1554C30.5344 31.1373 30.503 31.1277 30.4709 31.1277C30.4496 31.1277 30.4284 31.132 30.4087 31.1403C30.389 31.1486 30.3711 31.1608 30.3561 31.1761C30.341 31.1914 30.329 31.2096 30.3209 31.2297C30.3128 31.2497 30.3086 31.2712 30.3086 31.2928Z" fill="#07EAD3" stroke="white" stroke-width="0.0226769"/>
<path d="M35.5195 34.1107C35.5196 34.1433 35.5291 34.1752 35.547 34.2023C35.5649 34.2294 35.5903 34.2505 35.6199 34.263C35.6496 34.2754 35.6823 34.2787 35.7138 34.2723C35.7453 34.2659 35.7742 34.2502 35.7969 34.2271C35.8196 34.204 35.835 34.1746 35.8413 34.1426C35.8475 34.1106 35.8443 34.0774 35.832 34.0473C35.8197 34.0171 35.7988 33.9914 35.7721 33.9733C35.7454 33.9552 35.714 33.9455 35.6818 33.9456C35.6388 33.9456 35.5975 33.963 35.567 33.994C35.5366 34.025 35.5195 34.0669 35.5195 34.1107Z" fill="#07EAD3" stroke="white" stroke-width="0.0226769"/>
<path d="M43.3945 35.631C43.3945 35.6636 43.4041 35.6955 43.4219 35.7227C43.4398 35.7499 43.4652 35.771 43.4949 35.7835C43.5246 35.796 43.5573 35.7993 43.5889 35.7929C43.6204 35.7866 43.6494 35.7708 43.6721 35.7477C43.6948 35.7246 43.7103 35.6952 43.7166 35.6632C43.7229 35.6311 43.7197 35.5979 43.7073 35.5678C43.695 35.5376 43.6742 35.5118 43.6475 35.4937C43.6207 35.4755 43.5893 35.4658 43.5571 35.4658C43.5358 35.4658 43.5146 35.4701 43.4949 35.4784C43.4752 35.4867 43.4572 35.4988 43.4421 35.5142C43.427 35.5295 43.4151 35.5477 43.4069 35.5678C43.3987 35.5878 43.3945 35.6093 43.3945 35.631Z" fill="#07EAD3" stroke="white" stroke-width="0.0226769"/>
<path d="M34.623 30.7168C34.6231 30.7495 34.6326 30.7814 34.6505 30.8085C34.6684 30.8356 34.6937 30.8567 34.7234 30.8692C34.7531 30.8816 34.7858 30.8849 34.8173 30.8785C34.8488 30.8721 34.8777 30.8564 34.9004 30.8333C34.9231 30.8102 34.9386 30.7808 34.9448 30.7488C34.951 30.7168 34.9478 30.6836 34.9355 30.6535C34.9232 30.6234 34.9023 30.5976 34.8756 30.5795C34.8489 30.5614 34.8175 30.5517 34.7854 30.5518C34.764 30.5518 34.7429 30.5561 34.7232 30.5644C34.7035 30.5727 34.6856 30.5848 34.6705 30.6002C34.6555 30.6155 34.6435 30.6337 34.6354 30.6537C34.6272 30.6737 34.623 30.6952 34.623 30.7168Z" fill="#07EAD3" stroke="white" stroke-width="0.0226769"/>
<path d="M32.6016 9.68125C32.6016 9.71391 32.6111 9.74584 32.629 9.773C32.6468 9.80015 32.6722 9.82132 32.7019 9.83382C32.7316 9.84632 32.7643 9.84959 32.7959 9.84322C32.8274 9.83684 32.8564 9.82112 32.8791 9.79802C32.9019 9.77493 32.9174 9.7455 32.9236 9.71347C32.9299 9.68143 32.9267 9.64823 32.9144 9.61806C32.9021 9.58788 32.8812 9.56209 32.8545 9.54394C32.8278 9.5258 32.7963 9.51611 32.7642 9.51611C32.7428 9.51611 32.7217 9.52037 32.7019 9.52867C32.6822 9.53696 32.6643 9.54913 32.6492 9.56446C32.6341 9.5798 32.6221 9.59801 32.6139 9.61805C32.6058 9.63809 32.6016 9.65956 32.6016 9.68125Z" fill="#07EAD3" stroke="white" stroke-width="0.0226769"/>
<path d="M27.7676 23.909C27.7676 23.9417 27.7771 23.9736 27.795 24.0008C27.8128 24.0279 27.8382 24.0491 27.868 24.0616C27.8977 24.0741 27.9304 24.0774 27.9619 24.071C27.9934 24.0646 28.0224 24.0489 28.0451 24.0258C28.0679 24.0027 28.0834 23.9733 28.0896 23.9413C28.0959 23.9092 28.0927 23.876 28.0804 23.8458C28.0681 23.8157 28.0472 23.7899 28.0205 23.7717C27.9938 23.7536 27.9623 23.7439 27.9302 23.7439C27.9088 23.7439 27.8877 23.7482 27.8679 23.7565C27.8482 23.7647 27.8303 23.7769 27.8152 23.7922C27.8001 23.8076 27.7881 23.8258 27.7799 23.8458C27.7718 23.8659 27.7676 23.8873 27.7676 23.909Z" fill="#07EAD3" stroke="white" stroke-width="0.0226769"/>
<path d="M26.6016 10.3321C26.6015 10.3754 26.6141 10.4177 26.6378 10.4537C26.6614 10.4897 26.695 10.5177 26.7344 10.5343C26.7737 10.5509 26.8171 10.5552 26.8588 10.5468C26.9006 10.5384 26.939 10.5176 26.9692 10.487C26.9993 10.4564 27.0198 10.4174 27.0282 10.375C27.0365 10.3326 27.0322 10.2886 27.0159 10.2486C26.9996 10.2086 26.972 10.1744 26.9366 10.1504C26.9012 10.1264 26.8595 10.1135 26.8169 10.1135C26.7599 10.1136 26.7051 10.1366 26.6648 10.1776C26.6244 10.2186 26.6017 10.2741 26.6016 10.3321Z" fill="#07EAD3" stroke="white" stroke-width="0.0226769"/>
<path d="M26.6172 14.4983C26.6172 14.531 26.6267 14.5629 26.6446 14.5901C26.6624 14.6173 26.6878 14.6384 26.7175 14.6509C26.7472 14.6634 26.7799 14.6667 26.8115 14.6604C26.843 14.654 26.872 14.6383 26.8947 14.6152C26.9175 14.5921 26.933 14.5627 26.9393 14.5306C26.9455 14.4986 26.9423 14.4654 26.93 14.4352C26.9177 14.405 26.8969 14.3792 26.8701 14.3611C26.8434 14.3429 26.8119 14.3333 26.7798 14.3333C26.7584 14.3332 26.7373 14.3375 26.7175 14.3458C26.6978 14.354 26.6799 14.3662 26.6648 14.3815C26.6497 14.3969 26.6377 14.4151 26.6295 14.4351C26.6214 14.4552 26.6172 14.4766 26.6172 14.4983Z" fill="#07EAD3" stroke="white" stroke-width="0.0226769"/>
<path d="M10.209 17.5951C10.209 17.6277 10.2186 17.6596 10.2364 17.6867C10.2543 17.7138 10.2797 17.7349 10.3093 17.7473C10.339 17.7598 10.3716 17.7631 10.4031 17.7567C10.4346 17.7503 10.4636 17.7346 10.4863 17.7115C10.509 17.6885 10.5244 17.6591 10.5307 17.6271C10.537 17.5951 10.5338 17.562 10.5215 17.5318C10.5092 17.5017 10.4884 17.4759 10.4618 17.4578C10.4351 17.4397 10.4037 17.43 10.3716 17.4299C10.3502 17.4299 10.3291 17.4342 10.3094 17.4425C10.2896 17.4508 10.2717 17.4629 10.2566 17.4783C10.2415 17.4936 10.2295 17.5118 10.2213 17.5319C10.2132 17.5519 10.209 17.5734 10.209 17.5951Z" fill="#07EAD3" stroke="white" stroke-width="0.0226769"/>
<path d="M10.9121 21.4859C10.9121 21.5186 10.9216 21.5505 10.9395 21.5777C10.9574 21.6048 10.9828 21.626 11.0125 21.6385C11.0422 21.651 11.0749 21.6543 11.1064 21.6479C11.138 21.6415 11.1669 21.6258 11.1897 21.6027C11.2124 21.5796 11.2279 21.5502 11.2342 21.5182C11.2405 21.4861 11.2372 21.4529 11.2249 21.4227C11.2126 21.3926 11.1918 21.3668 11.165 21.3486C11.1383 21.3305 11.1069 21.3208 11.0747 21.3208C11.0534 21.3208 11.0322 21.3251 11.0125 21.3334C10.9927 21.3417 10.9748 21.3538 10.9597 21.3692C10.9446 21.3845 10.9326 21.4027 10.9245 21.4227C10.9163 21.4428 10.9121 21.4643 10.9121 21.4859Z" fill="#07EAD3" stroke="white" stroke-width="0.0226769"/>
<path d="M24.2188 30.7843C24.2188 30.8169 24.2283 30.8489 24.2462 30.876C24.264 30.9032 24.2894 30.9244 24.3191 30.9369C24.3489 30.9493 24.3815 30.9526 24.4131 30.9462C24.4446 30.9399 24.4736 30.9241 24.4963 30.901C24.5191 30.8779 24.5346 30.8485 24.5408 30.8165C24.5471 30.7844 24.5439 30.7512 24.5316 30.721C24.5192 30.6909 24.4984 30.6651 24.4716 30.6469C24.4449 30.6288 24.4135 30.6191 24.3813 30.6191C24.3599 30.6191 24.3388 30.6234 24.3191 30.6317C24.2994 30.64 24.2814 30.6522 24.2663 30.6675C24.2512 30.6828 24.2393 30.7011 24.2311 30.7211C24.2229 30.7411 24.2187 30.7626 24.2188 30.7843Z" fill="#07EAD3" stroke="white" stroke-width="0.0226769"/>
<path d="M39.0098 42.9945C39.0098 43.0271 39.0194 43.059 39.0372 43.0861C39.0551 43.1132 39.0805 43.1343 39.1102 43.1468C39.1399 43.1592 39.1725 43.1625 39.204 43.1561C39.2355 43.1497 39.2645 43.1339 39.2871 43.1109C39.3098 43.0878 39.3253 43.0584 39.3315 43.0264C39.3378 42.9944 39.3345 42.9612 39.3222 42.9311C39.3099 42.9009 39.2891 42.8752 39.2623 42.8571C39.2356 42.839 39.2042 42.8293 39.1721 42.8293C39.129 42.8294 39.0877 42.8468 39.0573 42.8778C39.0268 42.9087 39.0097 42.9507 39.0098 42.9945Z" fill="#07EAD3" stroke="white" stroke-width="0.0226769"/>
<path d="M41.8574 39.6419C41.8574 39.6745 41.867 39.7064 41.8849 39.7335C41.9027 39.7606 41.9281 39.7818 41.9578 39.7942C41.9875 39.8067 42.0201 39.8099 42.0516 39.8035C42.0832 39.7972 42.1121 39.7814 42.1348 39.7583C42.1575 39.7353 42.1729 39.7058 42.1792 39.6738C42.1854 39.6418 42.1822 39.6087 42.1699 39.5785C42.1576 39.5484 42.1367 39.5227 42.11 39.5045C42.0833 39.4864 42.0519 39.4768 42.0197 39.4768C41.9767 39.4769 41.9354 39.4943 41.9049 39.5252C41.8745 39.5562 41.8574 39.5981 41.8574 39.6419Z" fill="#07EAD3" stroke="white" stroke-width="0.0226769"/>
<path d="M25.4141 17.8861C25.4141 17.9187 25.4236 17.9507 25.4415 17.9778C25.4593 18.005 25.4847 18.0262 25.5144 18.0387C25.5441 18.0512 25.5768 18.0544 25.6084 18.0481C25.6399 18.0417 25.6689 18.026 25.6916 18.0029C25.7144 17.9798 25.7299 17.9503 25.7361 17.9183C25.7424 17.8863 25.7392 17.8531 25.7269 17.8229C25.7146 17.7927 25.6937 17.7669 25.667 17.7488C25.6403 17.7306 25.6088 17.7209 25.5767 17.7209C25.5553 17.7209 25.5342 17.7252 25.5144 17.7335C25.4947 17.7418 25.4768 17.754 25.4617 17.7693C25.4466 17.7846 25.4346 17.8028 25.4264 17.8229C25.4183 17.8429 25.4141 17.8644 25.4141 17.8861Z" fill="#07EAD3" stroke="white" stroke-width="0.0226769"/>
<path d="M28.5352 36.3866C28.5352 36.4192 28.5447 36.4512 28.5626 36.4783C28.5804 36.5055 28.6058 36.5266 28.6355 36.5391C28.6653 36.5516 28.698 36.5549 28.7295 36.5485C28.761 36.5422 28.79 36.5264 28.8127 36.5033C28.8355 36.4802 28.851 36.4508 28.8572 36.4188C28.8635 36.3867 28.8603 36.3535 28.848 36.3233C28.8356 36.2932 28.8148 36.2674 28.788 36.2492C28.7613 36.2311 28.7299 36.2214 28.6977 36.2214C28.6763 36.2214 28.6552 36.2257 28.6355 36.234C28.6158 36.2423 28.5978 36.2545 28.5827 36.2698C28.5676 36.2851 28.5557 36.3033 28.5475 36.3234C28.5393 36.3434 28.5351 36.3649 28.5352 36.3866Z" fill="#07EAD3" stroke="white" stroke-width="0.0226769"/>
<path d="M23.6387 34.4722C23.6387 34.5048 23.6482 34.5367 23.6661 34.5638C23.684 34.591 23.7094 34.6121 23.739 34.6245C23.7687 34.637 23.8014 34.6403 23.8329 34.6339C23.8644 34.6275 23.8933 34.6117 23.916 34.5887C23.9387 34.5656 23.9542 34.5362 23.9604 34.5042C23.9667 34.4722 23.9634 34.439 23.9511 34.4089C23.9388 34.3787 23.918 34.353 23.8912 34.3349C23.8645 34.3168 23.8331 34.3071 23.801 34.3071C23.7797 34.3071 23.7585 34.3114 23.7388 34.3197C23.7191 34.328 23.7012 34.3402 23.6861 34.3555C23.6711 34.3708 23.6591 34.389 23.651 34.4091C23.6428 34.4291 23.6386 34.4505 23.6387 34.4722Z" fill="#07EAD3" stroke="white" stroke-width="0.0226769"/>
<path d="M24.2188 36.1543C24.2187 36.187 24.2283 36.2189 24.2461 36.2461C24.264 36.2733 24.2894 36.2944 24.3191 36.307C24.3488 36.3195 24.3815 36.3227 24.4131 36.3164C24.4446 36.31 24.4736 36.2943 24.4963 36.2712C24.5191 36.2481 24.5346 36.2186 24.5408 36.1866C24.5471 36.1546 24.5439 36.1214 24.5316 36.0912C24.5192 36.061 24.4984 36.0352 24.4716 36.0171C24.4449 35.9989 24.4135 35.9892 24.3813 35.9893C24.3599 35.9893 24.3388 35.9935 24.3191 36.0018C24.2994 36.0101 24.2815 36.0223 24.2664 36.0376C24.2513 36.0529 24.2393 36.0711 24.2311 36.0912C24.223 36.1112 24.2188 36.1327 24.2188 36.1543Z" fill="#07EAD3" stroke="white" stroke-width="0.0226769"/>
<path d="M19.9961 13.1754C19.9961 13.2383 20.0145 13.2998 20.0489 13.3521C20.0833 13.4044 20.1322 13.4452 20.1894 13.4693C20.2466 13.4933 20.3096 13.4996 20.3703 13.4873C20.431 13.4751 20.4868 13.4448 20.5306 13.4003C20.5744 13.3558 20.6042 13.2992 20.6163 13.2375C20.6284 13.1758 20.6222 13.1118 20.5985 13.0537C20.5748 12.9956 20.5347 12.946 20.4832 12.911C20.4317 12.8761 20.3711 12.8574 20.3092 12.8574C20.2262 12.8574 20.1465 12.8909 20.0878 12.9506C20.0291 13.0102 19.9961 13.0911 19.9961 13.1754Z" fill="#07EAD3" stroke="white" stroke-width="0.0226769"/>
<path d="M47.8076 18.635C47.5457 19.735 48.7589 20.6726 49.8509 19.8293C50.6825 18.7219 49.7579 17.4919 48.6732 17.7572C48.4642 17.8105 48.2733 17.9203 48.1208 18.0749C47.9684 18.2295 47.8601 18.4231 47.8076 18.635Z" fill="#59F7F7" stroke="white" stroke-width="0.0226769"/>
<path d="M8.9229 24.9298C8.7878 25.4978 9.41405 25.9817 9.97785 25.5464C10.4072 24.9748 9.92985 24.3398 9.3697 24.4766C9.26179 24.5041 9.16327 24.5608 9.0846 24.6406C9.00592 24.7204 8.95004 24.8204 8.9229 24.9298Z" fill="#59F7F7" stroke="white" stroke-width="0.0226769"/>
<path d="M6.00586 11.1042C6.00586 11.167 6.02422 11.2285 6.05863 11.2808C6.09304 11.3331 6.14194 11.3739 6.19916 11.398C6.25637 11.422 6.31933 11.4283 6.38007 11.4161C6.44081 11.4038 6.49661 11.3735 6.5404 11.329C6.58419 11.2845 6.61401 11.2279 6.62609 11.1662C6.63818 11.1045 6.63197 11.0406 6.60828 10.9825C6.58458 10.9243 6.54444 10.8747 6.49295 10.8397C6.44146 10.8048 6.38092 10.7861 6.31899 10.7861C6.23594 10.7861 6.15629 10.8196 6.09757 10.8793C6.03885 10.9389 6.00586 11.0198 6.00586 11.1042Z" fill="#07EAD3" stroke="white" stroke-width="0.0226769"/>
<path d="M8.35156 2.05679C8.35156 2.11969 8.36993 2.18117 8.40433 2.23347C8.43874 2.28577 8.48764 2.32653 8.54486 2.3506C8.60208 2.37467 8.66504 2.38097 8.72578 2.3687C8.78652 2.35642 8.84231 2.32614 8.8861 2.28166C8.92989 2.23719 8.95972 2.18052 8.9718 2.11883C8.98388 2.05714 8.97768 1.9932 8.95398 1.93509C8.93028 1.87698 8.89014 1.82731 8.83865 1.79237C8.78716 1.75742 8.72662 1.73877 8.66469 1.73877C8.58164 1.73877 8.502 1.77228 8.44328 1.83192C8.38455 1.89156 8.35156 1.97244 8.35156 2.05679Z" fill="#07EAD3" stroke="white" stroke-width="0.0226769"/>
<path d="M5.23047 5.68252C5.23047 5.74542 5.24883 5.8069 5.28324 5.8592C5.31765 5.9115 5.36655 5.95226 5.42377 5.97633C5.48098 6.0004 5.54394 6.0067 5.60468 5.99443C5.66542 5.98216 5.72122 5.95187 5.76501 5.90739C5.8088 5.86292 5.83862 5.80625 5.8507 5.74456C5.86279 5.68287 5.85658 5.61893 5.83288 5.56082C5.80918 5.50271 5.76905 5.45304 5.71756 5.4181C5.66606 5.38315 5.60552 5.3645 5.54359 5.3645C5.46055 5.3645 5.3809 5.39801 5.32218 5.45765C5.26346 5.51729 5.23047 5.59818 5.23047 5.68252Z" fill="#07EAD3" stroke="white" stroke-width="0.0226769"/>
<g filter="url(#filter0_d_203_96)">
<path d="M21.0332 34.0581C21.0332 34.252 21.0898 34.4416 21.1961 34.6029C21.3023 34.7641 21.4532 34.8898 21.6299 34.964C21.8065 35.0383 22.0009 35.0577 22.1885 35.0199C22.376 34.9821 22.5483 34.8888 22.6836 34.7517C22.8188 34.6146 22.9109 34.4399 22.9482 34.2497C22.9856 34.0595 22.9664 33.8624 22.8933 33.6832C22.8201 33.5041 22.6962 33.3509 22.5373 33.2432C22.3783 33.1354 22.1914 33.0779 22.0001 33.0779C21.7437 33.0779 21.4979 33.1812 21.3165 33.365C21.1352 33.5488 21.0333 33.7981 21.0332 34.0581Z" fill="white" stroke="white" stroke-width="0.0226769"/>
</g>
<g filter="url(#filter1_d_203_96)">
<path d="M35.623 9.29236C35.623 9.39302 35.6525 9.49141 35.7076 9.5751C35.7628 9.65879 35.8411 9.72402 35.9329 9.76254C36.0246 9.80106 36.1255 9.81114 36.2228 9.7915C36.3202 9.77186 36.4096 9.72339 36.4798 9.65222C36.55 9.58105 36.5978 9.49037 36.6171 9.39165C36.6365 9.29293 36.6265 9.1906 36.5886 9.09761C36.5506 9.00462 36.4862 8.92514 36.4037 8.86922C36.3212 8.81329 36.2242 8.78345 36.1249 8.78345C36.059 8.78343 35.9937 8.79659 35.9328 8.82216C35.8719 8.84773 35.8166 8.88521 35.77 8.93247C35.7234 8.97973 35.6864 9.03584 35.6612 9.09759C35.636 9.15934 35.623 9.22553 35.623 9.29236Z" fill="white" stroke="white" stroke-width="0.0226769"/>
</g>
</g>
<mask id="mask1_203_96" style="mask-type:luminance" maskUnits="userSpaceOnUse" x="26" y="0" width="23" height="51">
<path d="M48.3017 0.0192871H26.1348V50.1591H48.3017V0.0192871Z" fill="white"/>
</mask>
<g mask="url(#mask1_203_96)">
<path d="M26.1183 50.1351L0.0117188 7.63349L0.0134267 7.63234C0.0946117 7.58119 0.840705 7.11349 2.02347 6.44304C2.75527 6.02823 3.50939 5.61746 4.26442 5.2228C5.20858 4.72913 6.15775 4.25866 7.08552 3.82399C9.44688 2.71806 11.685 1.83688 13.7379 1.20494C14.876 0.849729 16.0334 0.561546 17.2043 0.341829C17.7853 0.235716 18.3534 0.154313 18.8926 0.0999866C19.4563 0.0432352 20.004 0.0144259 20.5209 0.0144259C20.9515 0.0136304 21.3818 0.0348263 21.8103 0.0779324C22.2203 0.119323 22.6274 0.185935 23.0294 0.2774C23.4158 0.36549 23.7954 0.481798 24.1652 0.625414C24.525 0.765554 24.8726 0.935939 25.2045 1.13479C25.875 1.53695 26.4645 2.06421 26.9416 2.68873C27.1971 3.02401 27.422 3.3822 27.6134 3.75887C27.8222 4.17115 27.9972 4.60012 28.1367 5.04146C28.1595 5.11311 28.1833 5.18475 28.2072 5.25444C28.5732 6.59466 29.1522 7.86539 29.9216 9.0166C31.0645 10.7285 32.5963 12.1369 34.3879 13.1234C36.4378 14.2503 38.7548 14.7813 41.0834 14.6579C43.4121 14.5344 45.6618 13.7612 47.5847 12.4236L26.1186 50.1348L26.1183 50.1351ZM53.0593 2.80564C53.0603 2.79213 53.0613 2.77879 53.0622 2.76523L53.0961 2.74127L53.0593 2.80564Z" fill="#814096"/>
</g>
<path d="M40.9684 13.3617C40.1345 13.3618 39.3027 13.2767 38.4857 13.1077C37.6931 12.943 36.9186 12.6992 36.1734 12.3798C35.4408 12.0654 34.7399 11.6797 34.0806 11.2283C33.4265 10.7798 32.8162 10.269 32.2578 9.7029C31.6994 9.13659 31.1956 8.51752 30.7533 7.85412C30.308 7.18561 29.9277 6.47495 29.6175 5.73209C29.3025 4.97644 29.0621 4.19102 28.8997 3.38732C28.8156 2.96967 28.7526 2.54794 28.7109 2.12378L31.7735 3.50654C31.881 3.89239 32.0121 4.27108 32.166 4.64041C32.4065 5.21641 32.7015 5.76745 33.0468 6.2858C33.3897 6.80032 33.7803 7.28045 34.2132 7.71966C34.6463 8.15867 35.1197 8.55476 35.627 8.90255C36.1382 9.25269 36.6816 9.55179 37.2496 9.79567C37.8275 10.0434 38.4282 10.2325 39.0429 10.3601C39.6766 10.4912 40.3216 10.5571 40.9682 10.5569C41.6148 10.5571 42.2598 10.4912 42.8934 10.3601C43.5081 10.2325 44.1088 10.0434 44.6868 9.79567C44.8549 9.72357 45.0235 9.64557 45.1881 9.56301L48.251 10.9459C48.121 11.0428 47.988 11.1377 47.8558 11.2283C47.1967 11.6799 46.4959 12.0656 45.7633 12.3801C45.018 12.6995 44.2433 12.9433 43.4506 13.1079C42.6337 13.2769 41.8021 13.3619 40.9684 13.3617Z" fill="#814096"/>
<path d="M45.1924 9.56201L48.2414 10.9539C48.2414 10.9539 46.4637 12.4141 43.606 13.0989C41.2996 13.6515 38.7344 13.1559 38.7344 13.1559L45.1924 9.56201Z" fill="#572865"/>
<path d="M61.5447 45.6031C61.6303 45.6031 61.7001 45.6285 61.754 45.6792C61.8079 45.7299 61.8349 45.7965 61.8349 45.879C61.8349 45.9614 61.8079 46.028 61.754 46.0787C61.7001 46.1263 61.6303 46.1501 61.5447 46.1501H60.7979V48.6425C60.7979 48.7249 60.7678 48.7947 60.7076 48.8518C60.6473 48.9057 60.5728 48.9326 60.484 48.9326C60.3952 48.9326 60.3223 48.9057 60.2652 48.8518C60.2081 48.7947 60.1796 48.7249 60.1796 48.6425V46.1501H59.4328C59.3472 46.1501 59.2775 46.1247 59.2236 46.074C59.1696 46.0232 59.1427 45.9566 59.1427 45.8742C59.1427 45.7949 59.1696 45.7299 59.2236 45.6792C59.2806 45.6285 59.3504 45.6031 59.4328 45.6031H61.5447ZM64.622 46.3403C64.936 46.3403 65.1532 46.4371 65.2737 46.6305C65.3942 46.8207 65.4544 47.0855 65.4544 47.4248V48.6425C65.4544 48.7249 65.4275 48.7947 65.3736 48.8518C65.3197 48.9057 65.2515 48.9326 65.169 48.9326C65.0866 48.9326 65.0184 48.9057 64.9645 48.8518C64.9106 48.7947 64.8837 48.7249 64.8837 48.6425V47.4248C64.8837 47.2504 64.8488 47.1141 64.779 47.0158C64.7124 46.9143 64.5935 46.8635 64.4223 46.8635C64.2447 46.8635 64.1052 46.9175 64.0037 47.0253C63.9054 47.1299 63.8563 47.2631 63.8563 47.4248V48.6425C63.8563 48.7249 63.8293 48.7947 63.7754 48.8518C63.7215 48.9057 63.6533 48.9326 63.5709 48.9326C63.4884 48.9326 63.4202 48.9057 63.3663 48.8518C63.3124 48.7947 63.2855 48.7249 63.2855 48.6425V45.703C63.2855 45.6205 63.3124 45.5523 63.3663 45.4984C63.4202 45.4414 63.4884 45.4128 63.5709 45.4128C63.6533 45.4128 63.7215 45.4414 63.7754 45.4984C63.8293 45.5523 63.8563 45.6205 63.8563 45.703V46.7542C63.9419 46.64 64.0497 46.5433 64.1797 46.464C64.3129 46.3816 64.4603 46.3403 64.622 46.3403ZM69.3544 47.6008C69.3513 47.6769 69.3211 47.7387 69.2641 47.7863C69.207 47.8339 69.1404 47.8577 69.0643 47.8577H67.4947C67.5327 48.0447 67.6199 48.1922 67.7563 48.3C67.8926 48.4046 68.0464 48.457 68.2176 48.457C68.3477 48.457 68.4491 48.4459 68.5221 48.4237C68.595 48.3983 68.6521 48.3729 68.6933 48.3476C68.7377 48.319 68.7678 48.3 68.7837 48.2905C68.8407 48.262 68.8946 48.2477 68.9454 48.2477C69.012 48.2477 69.0691 48.2715 69.1166 48.319C69.1642 48.3666 69.188 48.4221 69.188 48.4855C69.188 48.5711 69.1436 48.6488 69.0548 48.7186C68.966 48.7915 68.8471 48.8533 68.698 48.9041C68.549 48.9548 68.3984 48.9802 68.2462 48.9802C67.9798 48.9802 67.7468 48.9247 67.547 48.8137C67.3504 48.7027 67.1982 48.5505 67.0904 48.3571C66.9825 48.1605 66.9286 47.9401 66.9286 47.6959C66.9286 47.4232 66.9857 47.1838 67.0999 46.9777C67.214 46.7716 67.3646 46.6146 67.5517 46.5068C67.7388 46.3958 67.9386 46.3403 68.1511 46.3403C68.3603 46.3403 68.5569 46.3974 68.7409 46.5116C68.9279 46.6257 69.077 46.7795 69.188 46.9729C69.2989 47.1664 69.3544 47.3757 69.3544 47.6008ZM68.1511 46.8635C67.7832 46.8635 67.566 47.0364 67.4994 47.382H68.7456V47.3487C68.7329 47.2155 68.6679 47.1014 68.5506 47.0062C68.4333 46.9111 68.3001 46.8635 68.1511 46.8635ZM74.6358 45.6031C74.9339 45.6031 75.1891 45.6776 75.4016 45.8266C75.6172 45.9725 75.7805 46.1723 75.8915 46.426C76.0057 46.6765 76.0627 46.9571 76.0627 47.2679C76.0627 47.5786 76.0057 47.8608 75.8915 48.1145C75.7805 48.365 75.6172 48.5648 75.4016 48.7138C75.1891 48.8597 74.9339 48.9326 74.6358 48.9326H73.499C73.4166 48.9326 73.3468 48.9057 73.2897 48.8518C73.2358 48.7947 73.2089 48.7249 73.2089 48.6425V45.8932C73.2089 45.8108 73.2358 45.7426 73.2897 45.6887C73.3468 45.6316 73.4166 45.6031 73.499 45.6031H74.6358ZM74.5882 48.3856C74.8736 48.3856 75.0877 48.281 75.2304 48.0717C75.3731 47.8592 75.4444 47.5913 75.4444 47.2679C75.4444 46.9444 75.3715 46.678 75.2256 46.4688C75.0829 46.2563 74.8705 46.1501 74.5882 46.1501H73.8034V48.3856H74.5882ZM79.8806 47.6008C79.8774 47.6769 79.8473 47.7387 79.7902 47.7863C79.7331 47.8339 79.6665 47.8577 79.5904 47.8577H78.0208C78.0588 48.0447 78.146 48.1922 78.2824 48.3C78.4187 48.4046 78.5725 48.457 78.7438 48.457C78.8738 48.457 78.9752 48.4459 79.0482 48.4237C79.1211 48.3983 79.1782 48.3729 79.2194 48.3476C79.2638 48.319 79.2939 48.3 79.3098 48.2905C79.3669 48.262 79.4208 48.2477 79.4715 48.2477C79.5381 48.2477 79.5952 48.2715 79.6427 48.319C79.6903 48.3666 79.7141 48.4221 79.7141 48.4855C79.7141 48.5711 79.6697 48.6488 79.5809 48.7186C79.4921 48.7915 79.3732 48.8533 79.2242 48.9041C79.0751 48.9548 78.9245 48.9802 78.7723 48.9802C78.5059 48.9802 78.2729 48.9247 78.0731 48.8137C77.8765 48.7027 77.7243 48.5505 77.6165 48.3571C77.5087 48.1605 77.4548 47.9401 77.4548 47.6959C77.4548 47.4232 77.5118 47.1838 77.626 46.9777C77.7401 46.7716 77.8908 46.6146 78.0779 46.5068C78.2649 46.3958 78.4647 46.3403 78.6772 46.3403C78.8865 46.3403 79.0831 46.3974 79.267 46.5116C79.4541 46.6257 79.6031 46.7795 79.7141 46.9729C79.8251 47.1664 79.8806 47.3757 79.8806 47.6008ZM78.6772 46.8635C78.3093 46.8635 78.0921 47.0364 78.0255 47.382H79.2717V47.3487C79.259 47.2155 79.194 47.1014 79.0767 47.0062C78.9594 46.9111 78.8262 46.8635 78.6772 46.8635ZM82.4637 46.3403C82.7332 46.3403 82.9504 46.3831 83.1153 46.4688C83.2802 46.5512 83.3627 46.6622 83.3627 46.8017C83.3627 46.8715 83.3421 46.9333 83.3008 46.9872C83.2596 47.038 83.2057 47.0633 83.1391 47.0633C83.0884 47.0633 83.0472 47.057 83.0154 47.0443C82.9837 47.0284 82.952 47.0094 82.9203 46.9872C82.8918 46.9619 82.8632 46.9412 82.8347 46.9254C82.803 46.9095 82.7554 46.8953 82.692 46.8826C82.6318 46.8699 82.5826 46.8635 82.5446 46.8635C82.3067 46.8635 82.1196 46.9381 81.9833 47.0871C81.8501 47.233 81.7835 47.4248 81.7835 47.6626C81.7835 47.8909 81.8517 48.0812 81.9881 48.2334C82.1244 48.3825 82.2988 48.457 82.5113 48.457C82.6666 48.457 82.7824 48.4379 82.8585 48.3999C82.8775 48.3904 82.9029 48.3745 82.9346 48.3523C82.9695 48.327 83.0012 48.3079 83.0297 48.2952C83.0583 48.2826 83.0931 48.2762 83.1344 48.2762C83.2136 48.2762 83.2755 48.3016 83.3199 48.3523C83.3674 48.4031 83.3912 48.4681 83.3912 48.5473C83.3912 48.6234 83.3468 48.6948 83.258 48.7614C83.1692 48.828 83.0519 48.8819 82.9061 48.9231C82.7602 48.9612 82.6048 48.9802 82.4399 48.9802C82.1958 48.9802 81.9801 48.9231 81.793 48.8089C81.6091 48.6948 81.4664 48.5378 81.365 48.3381C81.2635 48.1351 81.2127 47.91 81.2127 47.6626C81.2127 47.4058 81.2651 47.1775 81.3697 46.9777C81.4775 46.7779 81.6266 46.6226 81.8168 46.5116C82.0071 46.3974 82.2227 46.3403 82.4637 46.3403ZM85.3397 48.6425C85.3397 48.7249 85.3127 48.7947 85.2588 48.8518C85.2049 48.9057 85.1368 48.9326 85.0543 48.9326C84.9719 48.9326 84.9037 48.9057 84.8498 48.8518C84.7959 48.7947 84.7689 48.7249 84.7689 48.6425V46.678C84.7689 46.5956 84.7959 46.5274 84.8498 46.4735C84.9037 46.4164 84.9719 46.3879 85.0543 46.3879C85.1368 46.3879 85.2049 46.4164 85.2588 46.4735C85.3127 46.5274 85.3397 46.5956 85.3397 46.678V48.6425ZM85.0495 46.0787C84.9417 46.0787 84.8656 46.0613 84.8212 46.0264C84.7768 45.9915 84.7546 45.9297 84.7546 45.8409V45.7505C84.7546 45.6617 84.7784 45.5999 84.826 45.565C84.8736 45.5302 84.9497 45.5127 85.0543 45.5127C85.1653 45.5127 85.243 45.5302 85.2874 45.565C85.3318 45.5999 85.354 45.6617 85.354 45.7505V45.8409C85.354 45.9329 85.3302 45.9963 85.2826 46.0312C85.2382 46.0629 85.1605 46.0787 85.0495 46.0787ZM86.7777 48.5378C86.7492 48.4998 86.7349 48.4522 86.7349 48.3951C86.7349 48.3127 86.7761 48.2429 86.8586 48.1859C86.903 48.1573 86.9489 48.143 86.9965 48.143C87.0631 48.143 87.1265 48.1732 87.1868 48.2334C87.2819 48.3317 87.3802 48.4046 87.4817 48.4522C87.5863 48.4998 87.7116 48.5236 87.8574 48.5236C88.1048 48.514 88.2284 48.4205 88.2284 48.2429C88.2284 48.151 88.1856 48.0812 88.1 48.0336C88.0176 47.9861 87.8876 47.9385 87.71 47.8909C87.5261 47.8402 87.3754 47.7895 87.2581 47.7387C87.144 47.688 87.0441 47.6119 86.9585 47.5104C86.876 47.4058 86.8348 47.2663 86.8348 47.0919C86.8348 46.9397 86.8776 46.8081 86.9632 46.6971C87.052 46.5829 87.1662 46.4957 87.3057 46.4355C87.4484 46.372 87.599 46.3403 87.7575 46.3403C87.9193 46.3403 88.081 46.3705 88.2427 46.4307C88.4044 46.491 88.5313 46.5797 88.6232 46.6971C88.6644 46.7478 88.6851 46.8049 88.6851 46.8683C88.6851 46.9412 88.6549 47.0015 88.5947 47.0491C88.5503 47.0839 88.4996 47.1014 88.4425 47.1014C88.3727 47.1014 88.3156 47.0792 88.2712 47.0348C88.2142 46.965 88.1396 46.9095 88.0477 46.8683C87.9589 46.8271 87.8574 46.8065 87.7433 46.8065C87.5023 46.8065 87.3818 46.8937 87.3818 47.0681C87.3818 47.1378 87.404 47.1949 87.4484 47.2393C87.4928 47.2805 87.5483 47.3138 87.6148 47.3392C87.6846 47.3614 87.7813 47.3899 87.905 47.4248C88.0762 47.4724 88.2189 47.5215 88.3331 47.5723C88.4472 47.623 88.5439 47.7007 88.6232 47.8053C88.7025 47.91 88.7421 48.0479 88.7421 48.2191C88.7421 48.3745 88.6962 48.5109 88.6042 48.6282C88.5122 48.7424 88.3933 48.8296 88.2475 48.8898C88.1048 48.9501 87.9573 48.9802 87.8051 48.9802C87.5958 48.9802 87.4008 48.9453 87.2201 48.8755C87.0393 48.8058 86.8919 48.6932 86.7777 48.5378ZM90.7561 48.6425C90.7561 48.7249 90.7292 48.7947 90.6753 48.8518C90.6214 48.9057 90.5532 48.9326 90.4707 48.9326C90.3883 48.9326 90.3201 48.9057 90.2662 48.8518C90.2123 48.7947 90.1854 48.7249 90.1854 48.6425V46.678C90.1854 46.5956 90.2123 46.5274 90.2662 46.4735C90.3201 46.4164 90.3883 46.3879 90.4707 46.3879C90.5532 46.3879 90.6214 46.4164 90.6753 46.4735C90.7292 46.5274 90.7561 46.5956 90.7561 46.678V48.6425ZM90.466 46.0787C90.3582 46.0787 90.2821 46.0613 90.2377 46.0264C90.1933 45.9915 90.1711 45.9297 90.1711 45.8409V45.7505C90.1711 45.6617 90.1949 45.5999 90.2424 45.565C90.29 45.5302 90.3661 45.5127 90.4707 45.5127C90.5817 45.5127 90.6594 45.5302 90.7038 45.565C90.7482 45.5999 90.7704 45.6617 90.7704 45.7505V45.8409C90.7704 45.9329 90.7466 45.9963 90.6991 46.0312C90.6547 46.0629 90.577 46.0787 90.466 46.0787ZM94.7864 47.6626C94.7864 47.9163 94.7294 48.1446 94.6152 48.3476C94.501 48.5473 94.3441 48.7027 94.1443 48.8137C93.9477 48.9247 93.7305 48.9802 93.4927 48.9802C93.2517 48.9802 93.0329 48.9247 92.8363 48.8137C92.6397 48.7027 92.4843 48.5473 92.3701 48.3476C92.256 48.1446 92.1989 47.9163 92.1989 47.6626C92.1989 47.409 92.256 47.1822 92.3701 46.9825C92.4843 46.7795 92.6397 46.6226 92.8363 46.5116C93.0329 46.3974 93.2517 46.3403 93.4927 46.3403C93.7305 46.3403 93.9477 46.3974 94.1443 46.5116C94.3441 46.6226 94.501 46.7795 94.6152 46.9825C94.7294 47.1822 94.7864 47.409 94.7864 47.6626ZM94.2157 47.6626C94.2157 47.5073 94.1824 47.3693 94.1158 47.2488C94.0523 47.1252 93.9651 47.03 93.8542 46.9634C93.7463 46.8968 93.6258 46.8635 93.4927 46.8635C93.3595 46.8635 93.2374 46.8968 93.1264 46.9634C93.0186 47.03 92.9314 47.1252 92.8648 47.2488C92.8014 47.3693 92.7697 47.5073 92.7697 47.6626C92.7697 47.818 92.8014 47.956 92.8648 48.0765C92.9314 48.1969 93.0186 48.2905 93.1264 48.3571C93.2374 48.4237 93.3595 48.457 93.4927 48.457C93.6258 48.457 93.7463 48.4237 93.8542 48.3571C93.9651 48.2905 94.0523 48.1969 94.1158 48.0765C94.1824 47.956 94.2157 47.818 94.2157 47.6626ZM97.6225 46.3403C97.946 46.3403 98.1695 46.4371 98.2932 46.6305C98.4168 46.8207 98.4787 47.0855 98.4787 47.4248V48.6425C98.4787 48.7249 98.4517 48.7947 98.3978 48.8518C98.3439 48.9057 98.2757 48.9326 98.1933 48.9326C98.1108 48.9326 98.0427 48.9057 97.9888 48.8518C97.9349 48.7947 97.9079 48.7249 97.9079 48.6425V47.4248C97.9079 47.2504 97.8714 47.1141 97.7985 47.0158C97.7256 46.9143 97.6003 46.8635 97.4227 46.8635C97.2388 46.8635 97.0945 46.9175 96.9899 47.0253C96.8853 47.1299 96.8329 47.2631 96.8329 47.4248V48.6425C96.8329 48.7249 96.806 48.7947 96.7521 48.8518C96.6982 48.9057 96.63 48.9326 96.5476 48.9326C96.4651 48.9326 96.3969 48.9057 96.343 48.8518C96.2891 48.7947 96.2622 48.7249 96.2622 48.6425V46.678C96.2622 46.5956 96.2891 46.5274 96.343 46.4735C96.3969 46.4164 96.4651 46.3879 96.5476 46.3879C96.63 46.3879 96.6982 46.4164 96.7521 46.4735C96.806 46.5274 96.8329 46.5956 96.8329 46.678V46.7589C96.9186 46.6448 97.0295 46.5465 97.1659 46.464C97.3054 46.3816 97.4576 46.3403 97.6225 46.3403ZM105.361 45.5983C105.44 45.5983 105.509 45.6269 105.566 45.6839C105.626 45.7379 105.656 45.806 105.656 45.8885V48.6425C105.656 48.7249 105.629 48.7947 105.575 48.8518C105.521 48.9057 105.45 48.9326 105.361 48.9326C105.272 48.9326 105.199 48.9057 105.142 48.8518C105.088 48.7979 105.062 48.7281 105.062 48.6425V46.7256L104.277 47.9242C104.245 47.9623 104.209 47.994 104.167 48.0194C104.126 48.0416 104.083 48.0511 104.039 48.0479C103.998 48.0511 103.956 48.0416 103.915 48.0194C103.874 47.994 103.838 47.9623 103.806 47.9242L103.021 46.6828V48.6425C103.021 48.7281 102.996 48.7979 102.945 48.8518C102.894 48.9057 102.828 48.9326 102.745 48.9326C102.666 48.9326 102.601 48.9057 102.55 48.8518C102.499 48.7947 102.474 48.7249 102.474 48.6425V45.8885C102.474 45.8092 102.503 45.741 102.56 45.6839C102.62 45.6269 102.691 45.5983 102.774 45.5983C102.821 45.5983 102.869 45.611 102.916 45.6364C102.964 45.6586 103 45.6887 103.026 45.7268L104.063 47.3202L105.128 45.7268C105.153 45.6887 105.187 45.6586 105.228 45.6364C105.272 45.611 105.317 45.5983 105.361 45.5983ZM109.382 46.3403C109.464 46.3403 109.533 46.3673 109.587 46.4212C109.64 46.4751 109.667 46.5449 109.667 46.6305V48.6425C109.667 48.7249 109.64 48.7947 109.587 48.8518C109.533 48.9057 109.464 48.9326 109.382 48.9326C109.3 48.9326 109.231 48.9057 109.177 48.8518C109.127 48.7979 109.1 48.7297 109.097 48.6472C109.017 48.7392 108.91 48.8185 108.773 48.8851C108.64 48.9485 108.499 48.9802 108.35 48.9802C108.131 48.9802 107.933 48.9247 107.755 48.8137C107.578 48.6995 107.437 48.5426 107.332 48.3428C107.23 48.143 107.18 47.9163 107.18 47.6626C107.18 47.409 107.23 47.1822 107.332 46.9825C107.433 46.7795 107.571 46.6226 107.746 46.5116C107.923 46.3974 108.118 46.3403 108.331 46.3403C108.483 46.3403 108.626 46.3689 108.759 46.426C108.892 46.4799 109.005 46.5496 109.097 46.6352V46.6305C109.097 46.548 109.124 46.4799 109.177 46.426C109.231 46.3689 109.3 46.3403 109.382 46.3403ZM108.421 48.457C108.627 48.457 108.795 48.3825 108.925 48.2334C109.055 48.0812 109.12 47.8909 109.12 47.6626C109.12 47.4343 109.055 47.2441 108.925 47.0919C108.795 46.9397 108.627 46.8635 108.421 46.8635C108.218 46.8635 108.052 46.9397 107.922 47.0919C107.792 47.2441 107.727 47.4343 107.727 47.6626C107.727 47.8909 107.79 48.0812 107.917 48.2334C108.047 48.3825 108.215 48.457 108.421 48.457ZM113.401 48.4332C113.462 48.4966 113.492 48.568 113.492 48.6472C113.492 48.7265 113.46 48.7931 113.397 48.847C113.336 48.9009 113.271 48.9279 113.202 48.9279C113.119 48.9279 113.049 48.8962 112.992 48.8327L112.136 47.929L111.903 48.143V48.6425C111.903 48.7249 111.876 48.7947 111.822 48.8518C111.768 48.9057 111.7 48.9326 111.618 48.9326C111.535 48.9326 111.467 48.9057 111.413 48.8518C111.359 48.7947 111.332 48.7249 111.332 48.6425V45.703C111.332 45.6205 111.359 45.5523 111.413 45.4984C111.467 45.4414 111.535 45.4128 111.618 45.4128C111.7 45.4128 111.768 45.4414 111.822 45.4984C111.876 45.5523 111.903 45.6205 111.903 45.703V47.4629L112.921 46.4783C112.981 46.418 113.051 46.3879 113.13 46.3879C113.2 46.3879 113.262 46.418 113.316 46.4783C113.373 46.5354 113.401 46.594 113.401 46.6543C113.401 46.7304 113.363 46.8017 113.287 46.8683L112.569 47.5295L113.401 48.4332ZM115.529 48.6425C115.529 48.7249 115.502 48.7947 115.448 48.8518C115.394 48.9057 115.326 48.9326 115.244 48.9326C115.161 48.9326 115.093 48.9057 115.039 48.8518C114.985 48.7947 114.958 48.7249 114.958 48.6425V46.678C114.958 46.5956 114.985 46.5274 115.039 46.4735C115.093 46.4164 115.161 46.3879 115.244 46.3879C115.326 46.3879 115.394 46.4164 115.448 46.4735C115.502 46.5274 115.529 46.5956 115.529 46.678V48.6425ZM115.239 46.0787C115.131 46.0787 115.055 46.0613 115.011 46.0264C114.966 45.9915 114.944 45.9297 114.944 45.8409V45.7505C114.944 45.6617 114.968 45.5999 115.015 45.565C115.063 45.5302 115.139 45.5127 115.244 45.5127C115.355 45.5127 115.432 45.5302 115.477 45.565C115.521 45.5999 115.543 45.6617 115.543 45.7505V45.8409C115.543 45.9329 115.52 45.9963 115.472 46.0312C115.428 46.0629 115.35 46.0787 115.239 46.0787ZM118.475 46.3403C118.798 46.3403 119.022 46.4371 119.146 46.6305C119.269 46.8207 119.331 47.0855 119.331 47.4248V48.6425C119.331 48.7249 119.304 48.7947 119.25 48.8518C119.196 48.9057 119.128 48.9326 119.046 48.9326C118.963 48.9326 118.895 48.9057 118.841 48.8518C118.787 48.7947 118.76 48.7249 118.76 48.6425V47.4248C118.76 47.2504 118.724 47.1141 118.651 47.0158C118.578 46.9143 118.453 46.8635 118.275 46.8635C118.091 46.8635 117.947 46.9175 117.842 47.0253C117.738 47.1299 117.685 47.2631 117.685 47.4248V48.6425C117.685 48.7249 117.658 48.7947 117.605 48.8518C117.551 48.9057 117.483 48.9326 117.4 48.9326C117.318 48.9326 117.249 48.9057 117.196 48.8518C117.142 48.7947 117.115 48.7249 117.115 48.6425V46.678C117.115 46.5956 117.142 46.5274 117.196 46.4735C117.249 46.4164 117.318 46.3879 117.4 46.3879C117.483 46.3879 117.551 46.4164 117.605 46.4735C117.658 46.5274 117.685 46.5956 117.685 46.678V46.7589C117.771 46.6448 117.882 46.5465 118.018 46.464C118.158 46.3816 118.31 46.3403 118.475 46.3403ZM123.054 46.3403C123.137 46.3403 123.205 46.3673 123.259 46.4212C123.313 46.4751 123.339 46.5449 123.339 46.6305V48.7471C123.339 49.134 123.219 49.4194 122.978 49.6033C122.74 49.7904 122.437 49.8839 122.07 49.8839C121.974 49.8839 121.843 49.8681 121.675 49.8363C121.51 49.8046 121.392 49.7729 121.323 49.7412C121.167 49.6746 121.09 49.5827 121.09 49.4653C121.09 49.4431 121.094 49.4178 121.104 49.3892C121.123 49.3195 121.155 49.2656 121.199 49.2275C121.247 49.1926 121.297 49.1752 121.351 49.1752C121.383 49.1752 121.413 49.18 121.442 49.1895C121.454 49.1926 121.532 49.2212 121.675 49.2751C121.821 49.3322 121.952 49.3607 122.07 49.3607C122.304 49.3607 122.479 49.3131 122.593 49.218C122.71 49.126 122.769 48.9945 122.769 48.8232V48.5949C122.699 48.6932 122.593 48.782 122.45 48.8613C122.31 48.9405 122.16 48.9802 121.998 48.9802C121.776 48.9802 121.573 48.9247 121.389 48.8137C121.209 48.6995 121.066 48.5426 120.961 48.3428C120.857 48.143 120.804 47.9163 120.804 47.6626C120.804 47.409 120.855 47.1822 120.956 46.9825C121.061 46.7795 121.202 46.6226 121.38 46.5116C121.561 46.3974 121.76 46.3403 121.979 46.3403C122.141 46.3403 122.291 46.3736 122.431 46.4402C122.571 46.5068 122.683 46.5877 122.769 46.6828V46.6305C122.769 46.548 122.796 46.4799 122.85 46.426C122.903 46.3689 122.972 46.3403 123.054 46.3403ZM122.07 48.457C122.282 48.457 122.455 48.3825 122.588 48.2334C122.724 48.0812 122.792 47.8909 122.792 47.6626C122.792 47.4343 122.724 47.2441 122.588 47.0919C122.455 46.9397 122.282 46.8635 122.07 46.8635C121.857 46.8635 121.684 46.9397 121.551 47.0919C121.418 47.2441 121.351 47.4343 121.351 47.6626C121.351 47.8909 121.418 48.0812 121.551 48.2334C121.684 48.3825 121.857 48.457 122.07 48.457ZM129.79 47.1347C129.872 47.1347 129.94 47.1632 129.994 47.2203C130.048 47.2742 130.075 47.3424 130.075 47.4248V48.4332C130.075 48.5442 130.026 48.6298 129.928 48.69C129.617 48.8835 129.276 48.9802 128.905 48.9802C128.591 48.9802 128.301 48.9041 128.035 48.7519C127.768 48.5965 127.557 48.3888 127.402 48.1288C127.247 47.8656 127.169 47.5786 127.169 47.2679C127.169 46.9571 127.247 46.6717 127.402 46.4117C127.557 46.1485 127.768 45.9408 128.035 45.7886C128.301 45.6332 128.591 45.5555 128.905 45.5555C129.219 45.5555 129.492 45.6189 129.723 45.7458C129.771 45.7711 129.806 45.8044 129.828 45.8457C129.853 45.8869 129.866 45.9313 129.866 45.9788C129.866 46.0581 129.839 46.1279 129.785 46.1881C129.734 46.2452 129.671 46.2737 129.595 46.2737C129.547 46.2737 129.495 46.2611 129.438 46.2357C129.266 46.1628 129.089 46.1263 128.905 46.1263C128.702 46.1263 128.515 46.1786 128.344 46.2833C128.172 46.3847 128.036 46.5227 127.935 46.6971C127.836 46.8715 127.787 47.0617 127.787 47.2679C127.787 47.474 127.836 47.6642 127.935 47.8386C128.036 48.013 128.172 48.1526 128.344 48.2572C128.515 48.3587 128.702 48.4094 128.905 48.4094C128.994 48.4094 129.089 48.4015 129.19 48.3856C129.292 48.3698 129.381 48.3492 129.457 48.3238V47.7054H129.01C128.927 47.7054 128.857 47.6785 128.8 47.6246C128.746 47.5707 128.719 47.5025 128.719 47.4201C128.719 47.3376 128.746 47.2694 128.8 47.2155C128.857 47.1616 128.927 47.1347 129.01 47.1347H129.79ZM132.136 48.6425C132.136 48.7249 132.109 48.7947 132.055 48.8518C132.001 48.9057 131.933 48.9326 131.851 48.9326C131.768 48.9326 131.7 48.9057 131.646 48.8518C131.592 48.7947 131.565 48.7249 131.565 48.6425V46.678C131.565 46.5956 131.592 46.5274 131.646 46.4735C131.7 46.4164 131.768 46.3879 131.851 46.3879C131.933 46.3879 132.001 46.4164 132.055 46.4735C132.109 46.5274 132.136 46.5956 132.136 46.678V48.6425ZM131.846 46.0787C131.738 46.0787 131.662 46.0613 131.618 46.0264C131.573 45.9915 131.551 45.9297 131.551 45.8409V45.7505C131.551 45.6617 131.575 45.5999 131.622 45.565C131.67 45.5302 131.746 45.5127 131.851 45.5127C131.962 45.5127 132.039 45.5302 132.084 45.565C132.128 45.5999 132.15 45.6617 132.15 45.7505V45.8409C132.15 45.9329 132.126 45.9963 132.079 46.0312C132.035 46.0629 131.957 46.0787 131.846 46.0787ZM135.781 46.3403C135.863 46.3403 135.932 46.3673 135.986 46.4212C136.039 46.4751 136.066 46.5449 136.066 46.6305V48.6425C136.066 48.7249 136.039 48.7947 135.986 48.8518C135.932 48.9057 135.863 48.9326 135.781 48.9326C135.699 48.9326 135.63 48.9057 135.576 48.8518C135.526 48.7979 135.499 48.7297 135.496 48.6472C135.416 48.7392 135.309 48.8185 135.172 48.8851C135.039 48.9485 134.898 48.9802 134.749 48.9802C134.53 48.9802 134.332 48.9247 134.154 48.8137C133.977 48.6995 133.836 48.5426 133.731 48.3428C133.629 48.143 133.579 47.9163 133.579 47.6626C133.579 47.409 133.629 47.1822 133.731 46.9825C133.832 46.7795 133.97 46.6226 134.145 46.5116C134.322 46.3974 134.517 46.3403 134.73 46.3403C134.882 46.3403 135.025 46.3689 135.158 46.426C135.291 46.4799 135.404 46.5496 135.496 46.6352V46.6305C135.496 46.548 135.523 46.4799 135.576 46.426C135.63 46.3689 135.699 46.3403 135.781 46.3403ZM134.82 48.457C135.026 48.457 135.194 48.3825 135.324 48.2334C135.454 48.0812 135.519 47.8909 135.519 47.6626C135.519 47.4343 135.454 47.2441 135.324 47.0919C135.194 46.9397 135.026 46.8635 134.82 46.8635C134.617 46.8635 134.451 46.9397 134.321 47.0919C134.191 47.2441 134.126 47.4343 134.126 47.6626C134.126 47.8909 134.189 48.0812 134.316 48.2334C134.446 48.3825 134.614 48.457 134.82 48.457ZM139.044 46.3403C139.368 46.3403 139.591 46.4371 139.715 46.6305C139.839 46.8207 139.9 47.0855 139.9 47.4248V48.6425C139.9 48.7249 139.873 48.7947 139.819 48.8518C139.766 48.9057 139.697 48.9326 139.615 48.9326C139.533 48.9326 139.464 48.9057 139.41 48.8518C139.357 48.7947 139.33 48.7249 139.33 48.6425V47.4248C139.33 47.2504 139.293 47.1141 139.22 47.0158C139.147 46.9143 139.022 46.8635 138.844 46.8635C138.66 46.8635 138.516 46.9175 138.412 47.0253C138.307 47.1299 138.255 47.2631 138.255 47.4248V48.6425C138.255 48.7249 138.228 48.7947 138.174 48.8518C138.12 48.9057 138.052 48.9326 137.969 48.9326C137.887 48.9326 137.819 48.9057 137.765 48.8518C137.711 48.7947 137.684 48.7249 137.684 48.6425V46.678C137.684 46.5956 137.711 46.5274 137.765 46.4735C137.819 46.4164 137.887 46.3879 137.969 46.3879C138.052 46.3879 138.12 46.4164 138.174 46.4735C138.228 46.5274 138.255 46.5956 138.255 46.678V46.7589C138.34 46.6448 138.451 46.5465 138.588 46.464C138.727 46.3816 138.879 46.3403 139.044 46.3403ZM142.743 48.3951C142.788 48.3951 142.827 48.4173 142.862 48.4617C142.9 48.5029 142.919 48.5584 142.919 48.6282C142.919 48.7138 142.872 48.7868 142.777 48.847C142.685 48.9041 142.58 48.9326 142.463 48.9326C142.266 48.9326 142.1 48.8914 141.963 48.8089C141.83 48.7233 141.763 48.5442 141.763 48.2715V46.9587H141.545C141.469 46.9587 141.405 46.9333 141.354 46.8826C141.304 46.8318 141.278 46.7684 141.278 46.6923C141.278 46.6194 141.304 46.5591 141.354 46.5116C141.405 46.4608 141.469 46.4355 141.545 46.4355H141.763V46.1311C141.763 46.0486 141.79 45.9804 141.844 45.9265C141.901 45.8694 141.971 45.8409 142.054 45.8409C142.133 45.8409 142.199 45.8694 142.253 45.9265C142.307 45.9804 142.334 46.0486 142.334 46.1311V46.4355H142.672C142.748 46.4355 142.811 46.4608 142.862 46.5116C142.913 46.5623 142.938 46.6257 142.938 46.7018C142.938 46.7748 142.913 46.8366 142.862 46.8873C142.811 46.9349 142.748 46.9587 142.672 46.9587H142.334V48.2477C142.334 48.3143 142.352 48.3634 142.387 48.3951C142.421 48.4237 142.469 48.4379 142.529 48.4379C142.555 48.4379 142.59 48.4316 142.634 48.4189C142.672 48.4031 142.708 48.3951 142.743 48.3951ZM147.911 48.9802C147.683 48.9802 147.48 48.9516 147.302 48.8946C147.125 48.8375 146.958 48.7408 146.803 48.6044C146.717 48.5283 146.674 48.4443 146.674 48.3523C146.674 48.2794 146.701 48.216 146.755 48.1621C146.809 48.105 146.874 48.0765 146.95 48.0765C147.01 48.0765 147.064 48.0955 147.112 48.1335C147.239 48.2382 147.362 48.3143 147.483 48.3618C147.603 48.4094 147.746 48.4332 147.911 48.4332C148.089 48.4332 148.241 48.3935 148.368 48.3143C148.498 48.235 148.563 48.1367 148.563 48.0194C148.563 47.8767 148.499 47.7657 148.372 47.6864C148.246 47.604 148.044 47.5421 147.768 47.5009C147.074 47.3994 146.727 47.076 146.727 46.5306C146.727 46.3308 146.779 46.158 146.884 46.0121C146.988 45.8631 147.131 45.7505 147.312 45.6744C147.492 45.5952 147.694 45.5555 147.916 45.5555C148.116 45.5555 148.303 45.5856 148.477 45.6459C148.655 45.7061 148.802 45.7854 148.919 45.8837C149.011 45.9566 149.057 46.0407 149.057 46.1358C149.057 46.2087 149.03 46.2737 148.976 46.3308C148.923 46.3847 148.859 46.4117 148.786 46.4117C148.739 46.4117 148.696 46.3974 148.658 46.3689C148.575 46.3023 148.46 46.242 148.311 46.1881C148.165 46.1311 148.033 46.1025 147.916 46.1025C147.716 46.1025 147.561 46.1406 147.45 46.2167C147.342 46.2896 147.288 46.3863 147.288 46.5068C147.288 46.6432 147.343 46.7462 147.454 46.816C147.569 46.8857 147.746 46.9428 147.987 46.9872C148.26 47.0348 148.477 47.0966 148.639 47.1727C148.804 47.2457 148.927 47.3471 149.01 47.4771C149.092 47.604 149.133 47.7736 149.133 47.9861C149.133 48.1859 149.076 48.3618 148.962 48.514C148.851 48.6631 148.702 48.7788 148.515 48.8613C148.328 48.9405 148.127 48.9802 147.911 48.9802ZM151.857 48.3951C151.902 48.3951 151.941 48.4173 151.976 48.4617C152.014 48.5029 152.033 48.5584 152.033 48.6282C152.033 48.7138 151.986 48.7868 151.891 48.847C151.799 48.9041 151.694 48.9326 151.577 48.9326C151.38 48.9326 151.214 48.8914 151.077 48.8089C150.944 48.7233 150.878 48.5442 150.878 48.2715V46.9587H150.659C150.583 46.9587 150.519 46.9333 150.468 46.8826C150.418 46.8318 150.392 46.7684 150.392 46.6923C150.392 46.6194 150.418 46.5591 150.468 46.5116C150.519 46.4608 150.583 46.4355 150.659 46.4355H150.878V46.1311C150.878 46.0486 150.904 45.9804 150.958 45.9265C151.015 45.8694 151.085 45.8409 151.168 45.8409C151.247 45.8409 151.314 45.8694 151.367 45.9265C151.421 45.9804 151.448 46.0486 151.448 46.1311V46.4355H151.786C151.862 46.4355 151.926 46.4608 151.976 46.5116C152.027 46.5623 152.052 46.6257 152.052 46.7018C152.052 46.7748 152.027 46.8366 151.976 46.8873C151.926 46.9349 151.862 46.9587 151.786 46.9587H151.448V48.2477C151.448 48.3143 151.466 48.3634 151.501 48.3951C151.535 48.4237 151.583 48.4379 151.643 48.4379C151.669 48.4379 151.704 48.4316 151.748 48.4189C151.786 48.4031 151.822 48.3951 151.857 48.3951ZM155.635 46.3403C155.717 46.3403 155.785 46.3673 155.839 46.4212C155.893 46.4751 155.92 46.5449 155.92 46.6305V48.6425C155.92 48.7249 155.893 48.7947 155.839 48.8518C155.785 48.9057 155.717 48.9326 155.635 48.9326C155.552 48.9326 155.484 48.9057 155.43 48.8518C155.38 48.7979 155.353 48.7297 155.349 48.6472C155.27 48.7392 155.162 48.8185 155.026 48.8851C154.893 48.9485 154.752 48.9802 154.603 48.9802C154.384 48.9802 154.186 48.9247 154.008 48.8137C153.831 48.6995 153.689 48.5426 153.585 48.3428C153.483 48.143 153.433 47.9163 153.433 47.6626C153.433 47.409 153.483 47.1822 153.585 46.9825C153.686 46.7795 153.824 46.6226 153.999 46.5116C154.176 46.3974 154.371 46.3403 154.584 46.3403C154.736 46.3403 154.879 46.3689 155.012 46.426C155.145 46.4799 155.257 46.5496 155.349 46.6352V46.6305C155.349 46.548 155.376 46.4799 155.43 46.426C155.484 46.3689 155.552 46.3403 155.635 46.3403ZM154.674 48.457C154.88 48.457 155.048 48.3825 155.178 48.2334C155.308 48.0812 155.373 47.8909 155.373 47.6626C155.373 47.4343 155.308 47.2441 155.178 47.0919C155.048 46.9397 154.88 46.8635 154.674 46.8635C154.471 46.8635 154.305 46.9397 154.175 47.0919C154.045 47.2441 153.98 47.4343 153.98 47.6626C153.98 47.8909 154.043 48.0812 154.17 48.2334C154.3 48.3825 154.468 48.457 154.674 48.457ZM158.86 46.3403C158.955 46.3403 159.034 46.3673 159.098 46.4212C159.164 46.4751 159.198 46.5385 159.198 46.6115C159.198 46.7098 159.172 46.7843 159.122 46.835C159.071 46.8826 159.011 46.9064 158.941 46.9064C158.893 46.9064 158.839 46.8953 158.779 46.8731C158.77 46.8699 158.747 46.8635 158.713 46.854C158.681 46.8445 158.646 46.8398 158.608 46.8398C158.525 46.8398 158.446 46.8651 158.37 46.9159C158.294 46.9666 158.231 47.0443 158.18 47.1489C158.132 47.2504 158.108 47.3725 158.108 47.5152V48.6425C158.108 48.7249 158.081 48.7947 158.028 48.8518C157.974 48.9057 157.905 48.9326 157.823 48.9326C157.741 48.9326 157.672 48.9057 157.619 48.8518C157.565 48.7947 157.538 48.7249 157.538 48.6425V46.678C157.538 46.5956 157.565 46.5274 157.619 46.4735C157.672 46.4164 157.741 46.3879 157.823 46.3879C157.905 46.3879 157.974 46.4164 158.028 46.4735C158.081 46.5274 158.108 46.5956 158.108 46.678V46.7399C158.181 46.6099 158.286 46.5116 158.422 46.445C158.559 46.3752 158.705 46.3403 158.86 46.3403Z" fill="#9DB4BA"/>
<path d="M73.371 14.256C73.5047 14.2491 73.6358 14.2987 73.7372 14.3947C73.7828 14.44 73.8189 14.4958 73.8429 14.5581C73.8669 14.6203 73.8782 14.6876 73.8761 14.7552C73.8725 14.8499 73.8554 14.9435 73.8256 15.0325L66.9054 33.3102C66.8043 33.5506 66.6444 33.6707 66.4255 33.6707C66.3221 33.67 66.2212 33.6363 66.135 33.5737C66.0455 33.5132 65.9783 33.4199 65.9455 33.3102L59.0759 15.1158C59.0272 15.013 59.0013 14.8991 59.0001 14.7833C58.9987 14.7138 59.0104 14.6447 59.0343 14.5803C59.0582 14.5159 59.0938 14.4576 59.139 14.4089C59.1834 14.3592 59.2365 14.3201 59.2951 14.2938C59.3538 14.2676 59.4167 14.2548 59.48 14.2563C59.7326 14.2563 59.9179 14.4043 60.036 14.7001L66.4509 31.6463L72.8911 14.6166C73.0089 14.3762 73.1689 14.256 73.371 14.256ZM99.9406 32.5611C100.074 32.5647 100.2 32.6243 100.294 32.7275C100.388 32.8308 100.442 32.9698 100.446 33.1158C100.448 33.1909 100.436 33.2658 100.41 33.3352C100.384 33.4046 100.344 33.467 100.294 33.518C100.199 33.6173 100.072 33.672 99.9406 33.6706H90.4189C90.286 33.667 90.1593 33.6074 90.0653 33.5041C89.9713 33.4009 89.917 33.2618 89.9138 33.1158V14.8107C89.9136 14.738 89.9269 14.6661 89.9529 14.5993C89.979 14.5325 90.0172 14.4723 90.0653 14.4224C90.1108 14.3696 90.1656 14.3276 90.2264 14.299C90.2872 14.2704 90.3527 14.2557 90.4189 14.256H99.9406C100.007 14.2557 100.072 14.2704 100.133 14.299C100.194 14.3276 100.249 14.3696 100.294 14.4224C100.342 14.4723 100.381 14.5325 100.407 14.5993C100.433 14.666 100.446 14.738 100.446 14.8107C100.449 14.8858 100.437 14.9606 100.41 15.03C100.384 15.0995 100.345 15.1618 100.295 15.2128C100.199 15.3121 100.072 15.3668 99.9409 15.3654H90.9746V23.1036H98.804C98.9369 23.1071 99.0635 23.1667 99.1576 23.27C99.2516 23.3733 99.3059 23.5123 99.3091 23.6583C99.3119 23.7334 99.2997 23.8082 99.2736 23.8776C99.2474 23.9471 99.2078 24.0094 99.1576 24.0605C99.0622 24.1597 98.9354 24.2144 98.804 24.213H90.9746V32.5611H99.9406ZM129.718 24.1019C129.786 24.0989 129.854 24.1122 129.917 24.141C129.981 24.1697 130.038 24.2131 130.084 24.2683C130.174 24.3731 130.224 24.5123 130.223 24.6566V31.6181C130.228 31.7159 130.21 31.8134 130.17 31.901C130.13 31.9886 130.07 32.0632 129.996 32.1173C129.212 32.6954 128.357 33.1484 127.457 33.4625C126.556 33.7833 125.614 33.947 124.667 33.9479C122.932 33.9479 121.379 33.518 120.007 32.6582C118.652 31.8179 117.534 30.585 116.774 29.0942C115.991 27.5781 115.599 25.8678 115.599 23.9633C115.599 22.0589 115.991 20.3486 116.774 18.8326C117.534 17.3417 118.652 16.1087 120.007 15.2683C121.379 14.4085 122.932 13.9787 124.666 13.9787C125.574 13.9737 126.478 14.0996 127.356 14.3531C128.17 14.5845 128.943 14.9641 129.642 15.4759C129.714 15.5258 129.773 15.5955 129.813 15.6783C129.853 15.761 129.872 15.8539 129.869 15.9474C129.872 16.0238 129.858 16.0997 129.83 16.1694C129.801 16.2391 129.759 16.3007 129.705 16.3496C129.62 16.4401 129.508 16.4941 129.39 16.5022C129.274 16.4922 129.162 16.4543 129.061 16.3913C127.647 15.5225 126.182 15.0881 124.667 15.0881C123.118 15.0881 121.737 15.4671 120.525 16.2252C119.327 16.967 118.343 18.0625 117.684 19.3874C117.001 20.7369 116.66 22.2622 116.66 23.9633C116.66 25.6644 117.001 27.1898 117.683 28.5395C118.343 29.8645 119.327 30.96 120.524 31.7018C121.737 32.4599 123.117 32.8389 124.666 32.8389C125.467 32.8344 126.263 32.6989 127.028 32.4367C127.795 32.1848 128.529 31.826 129.213 31.369V25.2113H124.666C124.534 25.2078 124.407 25.1482 124.313 25.0449C124.219 24.9417 124.165 24.8026 124.161 24.6566C124.159 24.5815 124.171 24.5067 124.197 24.4373C124.223 24.3678 124.263 24.3055 124.313 24.2545C124.408 24.1552 124.535 24.1005 124.666 24.1019H129.718ZM159.974 32.9216C159.993 32.9937 160.002 33.0686 159.999 33.1435C160.003 33.2167 159.991 33.2898 159.965 33.3571C159.939 33.4244 159.899 33.4842 159.848 33.5319C159.749 33.6142 159.63 33.6621 159.506 33.6696C159.383 33.677 159.26 33.6435 159.153 33.5735C159.064 33.5131 158.997 33.4197 158.964 33.31L156.843 27.5963L156.868 27.6518H148.407L146.362 33.3102C146.333 33.4173 146.273 33.5109 146.191 33.5762C146.108 33.6415 146.008 33.6748 145.907 33.6707C145.773 33.6776 145.642 33.628 145.541 33.532C145.451 33.4463 145.393 33.3282 145.377 33.1992C145.361 33.1061 145.37 33.01 145.402 32.9219L152.196 14.5611C152.227 14.4426 152.294 14.3395 152.386 14.2695C152.476 14.2197 152.576 14.1958 152.676 14.2001C152.929 14.2001 153.097 14.3203 153.181 14.5606L159.974 32.9216ZM148.811 26.5425H156.464L152.6 16.0865L148.811 26.5425Z" fill="#27B4B8" stroke="#27B4B8" stroke-width="0.907076"/>
<path d="M26.1292 50.0534L26.0682 1.78477C26.0682 1.78477 27.5985 2.8249 28.3186 5.66149C29.0386 8.49808 31.2976 10.7934 31.2976 10.7934L26.1292 50.0534Z" fill="#572865"/>
<defs>
<filter id="filter0_d_203_96" x="20.951" y="32.9962" width="2.09799" height="2.12436" filterUnits="userSpaceOnUse" color-interpolation-filters="sRGB">
<feFlood flood-opacity="0" result="BackgroundImageFix"/>
<feColorMatrix in="SourceAlpha" type="matrix" values="0 0 0 0 0 0 0 0 0 0 0 0 0 0 0 0 0 0 127 0" result="hardAlpha"/>
<feOffset/>
<feGaussianBlur stdDeviation="0.0352399"/>
<feColorMatrix type="matrix" values="0 0 0 0 1 0 0 0 0 1 0 0 0 0 1 0 0 0 0.851 0"/>
<feBlend mode="normal" in2="BackgroundImageFix" result="effect1_dropShadow_203_96"/>
<feBlend mode="normal" in="SourceGraphic" in2="effect1_dropShadow_203_96" result="shape"/>
</filter>
<filter id="filter1_d_203_96" x="35.5747" y="8.73562" width="1.10054" height="1.11348" filterUnits="userSpaceOnUse" color-interpolation-filters="sRGB">
<feFlood flood-opacity="0" result="BackgroundImageFix"/>
<feColorMatrix in="SourceAlpha" type="matrix" values="0 0 0 0 0 0 0 0 0 0 0 0 0 0 0 0 0 0 127 0" result="hardAlpha"/>
<feOffset/>
<feGaussianBlur stdDeviation="0.0183003"/>
<feColorMatrix type="matrix" values="0 0 0 0 1 0 0 0 0 1 0 0 0 0 1 0 0 0 0.851 0"/>
<feBlend mode="normal" in2="BackgroundImageFix" result="effect1_dropShadow_203_96"/>
<feBlend mode="normal" in="SourceGraphic" in2="effect1_dropShadow_203_96" result="shape"/>
</filter>
</defs>
</svg>
