<svg width="79" height="106" viewBox="0 0 79 106" fill="none" xmlns="http://www.w3.org/2000/svg">
<path d="M39.36 73.3177L1 11.7532L1.00251 11.7515C1.1218 11.6775 2.21808 11 3.95598 10.0288C5.03126 9.42796 6.13934 8.83295 7.24875 8.26128C8.63606 7.54618 10.0307 6.8647 11.3939 6.23507C14.8636 4.6331 18.1523 3.35669 21.1687 2.44131C22.8409 1.92678 24.5416 1.50934 26.262 1.19108C27.1158 1.03737 27.9505 0.919458 28.7428 0.840765C29.571 0.758559 30.3758 0.716828 31.1353 0.716828C31.768 0.715676 32.4004 0.746379 33.03 0.808819C33.6324 0.868774 34.2306 0.965263 34.8213 1.09775C35.389 1.22535 35.9467 1.39383 36.4901 1.60186C37.0188 1.80485 37.5296 2.05166 38.0172 2.3397C39.0025 2.92223 39.8686 3.68599 40.5697 4.59062C40.9451 5.07628 41.2756 5.59513 41.5568 6.14074C41.8635 6.73794 42.1207 7.35932 42.3257 7.9986C42.3591 8.10238 42.3941 8.20617 42.4292 8.3071C42.967 10.2484 43.8179 12.0891 44.9483 13.7567C46.6277 16.2364 48.8784 18.2765 51.5109 19.7054C54.523 21.3378 57.9275 22.107 61.3491 21.9282C64.7707 21.7493 68.0764 20.6294 70.9018 18.6919L39.3603 73.3173L39.36 73.3177ZM78.9459 4.75996C78.9474 4.74039 78.9488 4.72108 78.9503 4.70142L78.9999 4.66672L78.9459 4.75996Z" fill="#27B4B8"/>
<mask id="mask0_171_2054" style="mask-type:luminance" maskUnits="userSpaceOnUse" x="1" y="0" width="78" height="74">
<path d="M39.36 73.4171L1 11.8526L1.00251 11.8509C1.1218 11.7768 2.21808 11.0994 3.95598 10.1282C5.03126 9.52733 6.13934 8.93232 7.24875 8.36064C8.63606 7.64554 10.0307 6.96406 11.3939 6.33443C14.8636 4.73247 18.1523 3.45606 21.1687 2.54067C22.8409 2.02615 24.5416 1.60871 26.262 1.29044C27.1158 1.13674 27.9505 1.01882 28.7428 0.94013C29.571 0.857924 30.3758 0.816193 31.1353 0.816193C31.768 0.815041 32.4004 0.845744 33.03 0.908184C33.6324 0.968139 34.2306 1.06463 34.8213 1.19712C35.389 1.32472 35.9467 1.49319 36.4901 1.70122C37.0188 1.90422 37.5296 2.15103 38.0172 2.43907C39.0025 3.0216 39.8686 3.78535 40.5697 4.68998C40.9451 5.17564 41.2756 5.69449 41.5568 6.2401C41.8635 6.8373 42.1207 7.45868 42.3257 8.09797C42.3591 8.20175 42.3941 8.30553 42.4292 8.40647C42.967 10.3478 43.8179 12.1885 44.9483 13.856C46.6277 16.3357 48.8784 18.3759 51.5109 19.8048C54.523 21.4372 57.9275 22.2064 61.3491 22.0276C64.7707 21.8487 68.0764 20.7288 70.9018 18.7912L39.3603 73.4167L39.36 73.4171ZM78.9459 4.85933C78.9474 4.83976 78.9488 4.82044 78.9503 4.80079L78.9999 4.76608L78.9459 4.85933Z" fill="white"/>
</mask>
<g mask="url(#mask0_171_2054)">
<g opacity="0.5">
<g style="mix-blend-mode:color-dodge">
<path d="M-83.5879 4.15039C-83.5879 4.15039 -15.0864 48.5297 44.4096 57.6542" stroke="white" stroke-width="0.00826451" stroke-miterlimit="10"/>
</g>
<g style="mix-blend-mode:color-dodge">
<path d="M-83.5879 7.97559C-83.5879 7.97559 -15.9154 51.6242 44.4096 57.6539" stroke="white" stroke-width="0.00826451" stroke-miterlimit="10"/>
</g>
<g style="mix-blend-mode:color-dodge">
<path d="M-83.5879 11.801C-83.5879 11.801 -16.7443 54.7186 44.4096 57.6539" stroke="white" stroke-width="0.00826451" stroke-miterlimit="10"/>
</g>
<g style="mix-blend-mode:color-dodge">
<path d="M-83.5879 15.6267C-83.5879 15.6267 -17.5731 57.8142 44.4096 57.6541" stroke="white" stroke-width="0.00826451" stroke-miterlimit="10"/>
</g>
<g style="mix-blend-mode:color-dodge">
<path d="M-83.5879 19.4524C-83.5879 19.4524 -18.4021 60.9093 44.4096 57.6543" stroke="white" stroke-width="0.00826451" stroke-miterlimit="10"/>
</g>
<g style="mix-blend-mode:color-dodge">
<path d="M-83.5879 23.2781C-83.5879 23.2781 -19.2314 64.0039 44.4096 57.6538" stroke="white" stroke-width="0.00826451" stroke-miterlimit="10"/>
</g>
<g style="mix-blend-mode:color-dodge">
<path d="M-83.5879 27.1035C-83.5879 27.1035 -20.0601 67.0989 44.4096 57.6541" stroke="white" stroke-width="0.00826451" stroke-miterlimit="10"/>
</g>
<g style="mix-blend-mode:color-dodge">
<path d="M-83.5879 30.9287C-83.5879 30.9287 -20.8896 70.193 44.4096 57.6538" stroke="white" stroke-width="0.00826451" stroke-miterlimit="10"/>
</g>
<g style="mix-blend-mode:color-dodge">
<path d="M-83.5879 34.7549C-83.5879 34.7549 -21.7178 73.2886 44.4096 57.6545" stroke="white" stroke-width="0.00826451" stroke-miterlimit="10"/>
</g>
<g style="mix-blend-mode:color-dodge">
<path d="M-83.5879 38.5803C-83.5879 38.5803 -22.547 76.3833 44.4096 57.6545" stroke="white" stroke-width="0.00826451" stroke-miterlimit="10"/>
</g>
<g style="mix-blend-mode:color-dodge">
<path d="M-83.5879 42.4055C-83.5879 42.4055 -23.3759 79.4776 44.4096 57.6541" stroke="white" stroke-width="0.00826451" stroke-miterlimit="10"/>
</g>
<g style="mix-blend-mode:color-dodge">
<path d="M-83.5879 46.2312C-83.5879 46.2312 -24.2049 82.5728 44.4096 57.6547" stroke="white" stroke-width="0.00826451" stroke-miterlimit="10"/>
</g>
<g style="mix-blend-mode:color-dodge">
<path d="M-83.5879 50.0564C-83.5879 50.0564 -25.0338 85.6672 44.4096 57.654" stroke="white" stroke-width="0.00826451" stroke-miterlimit="10"/>
</g>
<g style="mix-blend-mode:color-dodge">
<path d="M-83.5879 53.8818C-83.5879 53.8818 -25.8627 88.762 44.4096 57.654" stroke="white" stroke-width="0.00826451" stroke-miterlimit="10"/>
</g>
<g style="mix-blend-mode:color-dodge">
<path d="M-83.5879 57.7074C-83.5879 57.7074 -26.6916 91.8565 44.4096 57.6538" stroke="white" stroke-width="0.00826451" stroke-miterlimit="10"/>
</g>
<g style="mix-blend-mode:color-dodge">
<path d="M-83.5879 61.5331C-83.5879 61.5331 -27.5209 94.9516 44.4096 57.6538" stroke="white" stroke-width="0.00826451" stroke-miterlimit="10"/>
</g>
<g style="mix-blend-mode:color-dodge">
<path d="M-83.5879 65.3586C-83.5879 65.3586 -28.3501 98.0466 44.4096 57.6538" stroke="white" stroke-width="0.00826451" stroke-miterlimit="10"/>
</g>
</g>
<g style="mix-blend-mode:color-dodge" opacity="0.468">
<path d="M-83.5879 32.6507C-83.5879 32.6507 -51.6374 15.2149 18.5363 51.0045C56.0364 70.1301 74.2808 48.5732 92.3209 48.6186C119.498 48.6865 134.399 76.3862 184.612 44.9272" stroke="white" stroke-width="0.0661161" stroke-miterlimit="10"/>
<path d="M-83.5879 35.7492C-83.5879 35.7492 -49.6499 13.7502 19.8886 48.7775C58.7958 68.1823 75.4159 50.6911 94.2804 50.5846C121.711 50.4991 137.537 75.0082 184.612 45.5154" stroke="white" stroke-width="0.0661161" stroke-miterlimit="10"/>
<path d="M-83.5879 38.8473C-83.5879 38.8473 -47.7868 12.5358 21.241 46.5508C61.4835 66.381 76.5502 52.765 96.2396 52.5512C123.923 52.2502 140.675 73.6305 184.612 46.1035" stroke="white" stroke-width="0.0661161" stroke-miterlimit="10"/>
<path d="M-83.5879 41.9455C-83.5879 41.9455 -45.8407 11.1596 22.5935 44.3235C64.2152 64.4944 77.6846 54.8658 98.199 54.5173C126.135 54.0422 143.814 72.2523 184.612 46.6918" stroke="white" stroke-width="0.0661161" stroke-miterlimit="10"/>
<path d="M-83.5879 45.0437C-83.5879 45.0437 -43.8833 9.76212 23.9456 42.0966C66.9519 62.5978 78.8189 56.9702 100.159 56.4833C128.347 55.8394 146.952 70.8744 184.612 47.2801" stroke="white" stroke-width="0.0661161" stroke-miterlimit="10"/>
<path d="M-83.5879 48.141C-83.5879 48.141 -41.9154 8.34399 25.298 39.8688C69.6936 60.6914 79.9532 59.0777 102.118 58.4485C130.559 57.6414 150.09 69.4953 184.612 47.8672" stroke="white" stroke-width="0.0661161" stroke-miterlimit="10"/>
<path d="M-83.5879 51.24C-83.5879 51.24 -39.9382 6.90907 26.6505 37.6421C72.4407 58.7765 81.0876 61.1892 104.077 60.4156C132.771 59.4497 153.229 68.1176 184.612 48.4561" stroke="white" stroke-width="0.0661161" stroke-miterlimit="10"/>
<path d="M-83.5879 54.3384C-83.5879 54.3384 -37.9528 5.45581 28.0029 35.4155C75.1925 56.8509 82.2218 63.3035 106.037 62.3819C134.983 61.2613 156.367 66.7404 184.612 49.0448" stroke="white" stroke-width="0.0661161" stroke-miterlimit="10"/>
<path d="M-83.5879 57.436C-83.5879 57.436 -35.9599 3.98647 29.355 33.1878C77.9493 54.9138 83.3565 65.4204 107.996 64.3474C137.195 63.0758 159.505 65.3616 184.612 49.6321" stroke="white" stroke-width="0.0661161" stroke-miterlimit="10"/>
<path d="M-83.5879 60.5346C-83.5879 60.5346 -33.9609 2.50316 30.7074 30.961C80.7117 52.9662 84.4907 67.5412 109.955 66.3141C139.407 64.8948 162.644 63.9839 184.612 50.2206" stroke="white" stroke-width="0.0661161" stroke-miterlimit="10"/>
<path d="M-83.5879 63.6332C-83.5879 63.6332 -31.9556 1.00587 32.0598 28.7345C83.4787 51.0064 85.6258 69.6644 111.915 68.2805C141.62 66.7167 165.782 62.6065 184.612 50.8093" stroke="white" stroke-width="0.0661161" stroke-miterlimit="10"/>
<path d="M-83.5879 66.7314C-83.5879 66.7314 -29.9457 -0.50417 33.4119 26.5075C86.2508 49.0342 86.7608 71.7909 113.874 70.2469C143.833 68.5409 168.92 61.2285 184.612 51.3973" stroke="white" stroke-width="0.0661161" stroke-miterlimit="10"/>
<path d="M-83.5879 69.8292C-83.5879 69.8292 -27.9315 -2.02663 34.7643 24.2799C89.0279 47.0487 87.8961 73.9189 115.833 72.2126C146.045 70.3669 172.058 59.85 184.612 51.9852" stroke="white" stroke-width="0.0661161" stroke-miterlimit="10"/>
<path d="M-83.5879 72.9275C-83.5879 72.9275 -25.9127 -3.5605 36.1169 22.053C91.8098 45.0499 89.0355 76.1067 117.793 74.1787C148.263 72.2553 175.197 58.4722 184.612 52.5736" stroke="white" stroke-width="0.0661161" stroke-miterlimit="10"/>
<path d="M-83.5879 76.0256C-83.5879 76.0256 -23.8914 -5.1045 37.4689 19.826C94.5973 43.037 90.1706 78.2245 119.752 76.1451C150.476 74.0681 178.335 57.0941 184.612 53.1618" stroke="white" stroke-width="0.0661161" stroke-miterlimit="10"/>
<path d="M-83.5879 79.1238C-83.5879 79.1238 -21.8268 -6.75775 38.8214 17.5984C97.4276 40.9137 91.3056 80.3423 121.711 78.1112C152.688 75.8809 181.473 55.7158 184.612 53.7498" stroke="white" stroke-width="0.0661161" stroke-miterlimit="10"/>
<path d="M-83.5879 82.2223C-83.5879 82.2223 -19.8396 -8.22217 40.1738 15.3721C100.187 38.9664 92.4405 82.4606 123.671 80.0775C154.901 77.6945 184.612 54.3383 184.612 54.3383" stroke="white" stroke-width="0.0661161" stroke-miterlimit="10"/>
</g>
<g style="mix-blend-mode:color-dodge">
<path d="M-83.5879 21.5104C-83.5879 21.5104 -48.6922 71.197 0.65655 72.1504C49.3913 73.092 114.552 -12.9275 184.612 31.0436" stroke="white" stroke-width="0.0991742" stroke-miterlimit="10"/>
</g>
<g style="mix-blend-mode:color-dodge">
<path d="M-83.5879 87.1092C-83.5879 87.1092 -38.4413 7.449 15.2809 5.03811C73.0086 2.44775 91.0888 61.6132 123.5 71.6585C160.086 82.9984 184.612 71.201 184.612 71.201" stroke="white" stroke-width="0.0991742" stroke-miterlimit="10"/>
</g>
<g style="mix-blend-mode:color-dodge">
<path d="M-83.5879 14.7177C-83.5879 14.7177 -59.3011 3.63553 -32.2426 9.59382C-7.51465 15.0387 46.8258 64.8854 73.4342 73.9417C103.384 84.1351 151.147 75.3717 184.612 14.8371" stroke="white" stroke-width="0.0991742" stroke-miterlimit="10"/>
</g>
<g style="mix-blend-mode:color-dodge">
<path d="M-83.5879 66.5078C-83.5879 66.5078 -53.4008 82.2233 -16.0316 75.849C16.0193 70.3819 56.6801 23.763 94.113 23.8138C130.112 23.8628 153.501 39.0249 184.612 80.1389" stroke="white" stroke-width="0.0991742" stroke-miterlimit="10"/>
</g>
<g style="mix-blend-mode:color-dodge">
<path d="M184.612 23.6408C184.612 23.6408 120.572 -25.9163 40.3555 21.4737C-22.4024 58.5499 -35.5805 69.1072 -83.5879 40.5464" stroke="white" stroke-width="0.0991742" stroke-miterlimit="10"/>
</g>
<g style="mix-blend-mode:color-dodge">
<path d="M184.612 24.7992C184.612 24.7992 120.572 -24.758 40.3555 22.6324C-22.4024 59.7083 -35.5805 70.2656 -83.5879 41.7051" stroke="white" stroke-width="0.0991742" stroke-miterlimit="10"/>
</g>
<path d="M27.4766 27.2082C27.4766 27.2992 27.5035 27.3881 27.5541 27.4638C27.6047 27.5394 27.6765 27.5984 27.7606 27.6332C27.8447 27.668 27.9372 27.6771 28.0264 27.6594C28.1157 27.6416 28.1976 27.5978 28.262 27.5335C28.3263 27.4692 28.3702 27.3872 28.3879 27.298C28.4057 27.2088 28.3966 27.1163 28.3617 27.0322C28.3269 26.9482 28.2679 26.8763 28.1923 26.8258C28.1166 26.7753 28.0277 26.7483 27.9367 26.7483C27.8146 26.7483 27.6976 26.7967 27.6113 26.883C27.525 26.9693 27.4766 27.0863 27.4766 27.2082Z" fill="#07EAD3" stroke="white" stroke-width="0.0330581"/>
<path d="M31.7922 46.7843C32.0464 46.7843 32.2524 46.5784 32.2524 46.3243C32.2524 46.0702 32.0464 45.8643 31.7922 45.8643C31.5381 45.8643 31.332 46.0702 31.332 46.3243C31.332 46.5784 31.5381 46.7843 31.7922 46.7843Z" fill="#07EAD3" stroke="white" stroke-width="0.0330581"/>
<path d="M43.123 57.6542C43.123 57.9084 43.1984 58.1568 43.3397 58.3681C43.4809 58.5794 43.6816 58.744 43.9165 58.8413C44.1513 58.9385 44.4097 58.964 44.659 58.9144C44.9084 58.8648 45.1374 58.7425 45.3171 58.5628C45.4969 58.3831 45.6193 58.1541 45.6689 57.9049C45.7184 57.6557 45.693 57.3973 45.5957 57.1625C45.4984 56.9278 45.3337 56.7271 45.1223 56.5859C44.911 56.4447 44.6625 56.3694 44.4083 56.3694C44.2395 56.3694 44.0724 56.4026 43.9164 56.4672C43.7605 56.5317 43.6188 56.6264 43.4995 56.7457C43.3801 56.865 43.2854 57.0066 43.2209 57.1625C43.1563 57.3184 43.123 57.4855 43.123 57.6542Z" fill="white" stroke="white" stroke-width="0.0330581"/>
<path d="M58.1582 68.5371C58.1582 68.6281 58.1852 68.717 58.2357 68.7926C58.2863 68.8683 58.3582 68.9272 58.4422 68.962C58.5263 68.9969 58.6188 69.006 58.7081 68.9882C58.7973 68.9705 58.8793 68.9267 58.9436 68.8623C59.008 68.798 59.0518 68.7161 59.0696 68.6268C59.0873 68.5376 59.0782 68.4451 59.0434 68.3611C59.0085 68.277 58.9496 68.2052 58.8739 68.1547C58.7982 68.1041 58.7093 68.0771 58.6183 68.0771C58.4963 68.0773 58.3794 68.1258 58.2931 68.212C58.2069 68.2982 58.1583 68.4152 58.1582 68.5371Z" fill="#07EAD3" stroke="white" stroke-width="0.0330581"/>
<path d="M67.509 58.5941C67.7632 58.5941 67.9692 58.3882 67.9692 58.1341C67.9692 57.88 67.7632 57.6741 67.509 57.6741C67.2549 57.6741 67.0488 57.88 67.0488 58.1341C67.0488 58.3882 67.2549 58.5941 67.509 58.5941Z" fill="#07EAD3" stroke="white" stroke-width="0.0330581"/>
<path d="M62.2969 62.0967C62.2969 62.1876 62.3239 62.2766 62.3744 62.3522C62.425 62.4278 62.4968 62.4868 62.5809 62.5216C62.665 62.5564 62.7575 62.5655 62.8467 62.5478C62.936 62.53 63.018 62.4862 63.0823 62.4219C63.1467 62.3576 63.1905 62.2756 63.2082 62.1864C63.226 62.0972 63.2169 62.0047 63.182 61.9207C63.1472 61.8366 63.0882 61.7648 63.0126 61.7142C62.9369 61.6637 62.848 61.6367 62.757 61.6367C62.6349 61.6367 62.5179 61.6852 62.4316 61.7714C62.3454 61.8577 62.2969 61.9747 62.2969 62.0967Z" fill="#07EAD3" stroke="white" stroke-width="0.0330581"/>
<path d="M17.1985 53.7379C17.4526 53.7379 17.6586 53.532 17.6586 53.2779C17.6586 53.0238 17.4526 52.8179 17.1985 52.8179C16.9443 52.8179 16.7383 53.0238 16.7383 53.2779C16.7383 53.532 16.9443 53.7379 17.1985 53.7379Z" fill="#8CEFF4" stroke="white" stroke-width="0.0330581"/>
<path d="M29.1621 37.3545C29.1621 37.4455 29.1891 37.5344 29.2396 37.61C29.2902 37.6857 29.3621 37.7446 29.4461 37.7794C29.5302 37.8142 29.6227 37.8233 29.712 37.8056C29.8012 37.7878 29.8832 37.744 29.9475 37.6797C30.0119 37.6154 30.0557 37.5334 30.0735 37.4442C30.0912 37.355 30.0821 37.2625 30.0473 37.1785C30.0125 37.0944 29.9535 37.0226 29.8778 36.972C29.8022 36.9215 29.7132 36.8945 29.6222 36.8945C29.5618 36.8945 29.502 36.9064 29.4461 36.9295C29.3903 36.9527 29.3396 36.9865 29.2969 37.0292C29.2541 37.072 29.2203 37.1227 29.1971 37.1785C29.174 37.2343 29.1621 37.2941 29.1621 37.3545Z" fill="#07EAD3" stroke="white" stroke-width="0.0330581"/>
<path d="M50.3562 57.8162C50.4472 57.814 50.5354 57.7848 50.6098 57.7325C50.6842 57.6801 50.7414 57.6068 50.7741 57.522C50.8069 57.4371 50.8137 57.3444 50.7938 57.2557C50.7738 57.1669 50.728 57.0861 50.6621 57.0233C50.5963 56.9606 50.5132 56.9188 50.4236 56.9033C50.3339 56.8877 50.2417 56.8991 50.1585 56.9359C50.0753 56.9728 50.0049 57.0334 49.9562 57.1103C49.9075 57.1871 49.8827 57.2767 49.8849 57.3676C49.8864 57.428 49.8997 57.4875 49.9242 57.5427C49.9487 57.598 49.9838 57.6479 50.0276 57.6895C50.0713 57.7312 50.1229 57.7638 50.1793 57.7856C50.2357 57.8073 50.2958 57.8177 50.3562 57.8162Z" fill="#07EAD3" stroke="white" stroke-width="0.0330581"/>
<path d="M24.1172 47.3993C24.1172 47.4464 24.1312 47.4925 24.1574 47.5316C24.1837 47.5708 24.2209 47.6013 24.2645 47.6193C24.308 47.6373 24.356 47.642 24.4022 47.6328C24.4484 47.6236 24.4909 47.6008 24.5242 47.5675C24.5575 47.5342 24.5801 47.4917 24.5893 47.4455C24.5985 47.3992 24.5937 47.3513 24.5756 47.3078C24.5576 47.2643 24.527 47.2271 24.4878 47.2009C24.4486 47.1748 24.4025 47.1609 24.3553 47.1609C24.324 47.1609 24.293 47.167 24.2641 47.179C24.2352 47.191 24.2089 47.2086 24.1868 47.2307C24.1647 47.2529 24.1471 47.2792 24.1352 47.3081C24.1233 47.337 24.1171 47.368 24.1172 47.3993Z" fill="#07EAD3" stroke="white" stroke-width="0.0330581"/>
<path d="M27.5098 50.046C27.5098 50.0893 27.5227 50.1316 27.5468 50.1676C27.5709 50.2036 27.6051 50.2316 27.6451 50.2482C27.6851 50.2647 27.7292 50.269 27.7717 50.2605C27.8141 50.2521 27.8531 50.2312 27.8837 50.2005C27.9144 50.1699 27.9352 50.1309 27.9436 50.0884C27.952 50.0459 27.9476 50.0019 27.931 49.9619C27.9144 49.9219 27.8863 49.8877 27.8503 49.8637C27.8143 49.8397 27.7719 49.8269 27.7286 49.8269C27.6705 49.827 27.6149 49.8501 27.5738 49.8912C27.5328 49.9323 27.5098 49.988 27.5098 50.046Z" fill="#07EAD3" stroke="white" stroke-width="0.0330581"/>
<path d="M29.3555 53.8145C29.3555 53.8618 29.3695 53.9079 29.3957 53.9472C29.422 53.9865 29.4593 54.0171 29.503 54.0352C29.5466 54.0533 29.5946 54.058 29.641 54.0488C29.6873 54.0396 29.7299 54.0168 29.7633 53.9834C29.7967 53.95 29.8195 53.9074 29.8287 53.8611C29.8379 53.8148 29.8332 53.7668 29.8151 53.7231C29.797 53.6795 29.7664 53.6422 29.7271 53.6159C29.6878 53.5897 29.6416 53.5757 29.5944 53.5757C29.563 53.5757 29.5319 53.5818 29.5029 53.5938C29.474 53.6058 29.4476 53.6234 29.4254 53.6456C29.4032 53.6678 29.3856 53.6941 29.3736 53.7231C29.3616 53.7521 29.3555 53.7832 29.3555 53.8145Z" fill="#07EAD3" stroke="white" stroke-width="0.0330581"/>
<path d="M29.647 65.8674C29.7789 65.8674 29.8859 65.7605 29.8859 65.6286C29.8859 65.4968 29.7789 65.3899 29.647 65.3899C29.5151 65.3899 29.4082 65.4968 29.4082 65.6286C29.4082 65.7605 29.5151 65.8674 29.647 65.8674Z" fill="#07EAD3" stroke="white" stroke-width="0.0330581"/>
<path d="M30.1895 55.7955C30.1895 55.8427 30.2035 55.8888 30.2298 55.928C30.2561 55.9672 30.2934 55.9977 30.337 56.0157C30.3806 56.0338 30.4286 56.0384 30.4749 56.0292C30.5212 56.0199 30.5637 55.9972 30.597 55.9638C30.6304 55.9304 30.6531 55.8879 30.6622 55.8416C30.6714 55.7953 30.6666 55.7473 30.6485 55.7038C30.6304 55.6602 30.5998 55.6229 30.5606 55.5968C30.5213 55.5706 30.4751 55.5566 30.4279 55.5566C30.3646 55.5567 30.304 55.5819 30.2592 55.6267C30.2145 55.6715 30.1894 55.7322 30.1895 55.7955Z" fill="#07EAD3" stroke="white" stroke-width="0.0330581"/>
<path d="M37.7441 48.6265C37.7442 48.6737 37.7582 48.7198 37.7845 48.759C37.8108 48.7982 37.8481 48.8288 37.8917 48.8468C37.9353 48.8648 37.9833 48.8695 38.0296 48.8602C38.0759 48.851 38.1184 48.8282 38.1517 48.7948C38.1851 48.7614 38.2078 48.7189 38.2169 48.6726C38.2261 48.6263 38.2213 48.5784 38.2032 48.5348C38.1851 48.4912 38.1545 48.454 38.1153 48.4278C38.076 48.4016 38.0298 48.3877 37.9826 48.3877C37.9513 48.3877 37.9203 48.3939 37.8913 48.4059C37.8623 48.4179 37.836 48.4355 37.8139 48.4577C37.7917 48.4799 37.7742 48.5062 37.7622 48.5352C37.7503 48.5642 37.7441 48.5952 37.7441 48.6265Z" fill="#07EAD3" stroke="white" stroke-width="0.0330581"/>
<path d="M36.6797 68.8689C36.6797 68.9161 36.6937 68.9623 36.7199 69.0016C36.7462 69.0409 36.7835 69.0715 36.8271 69.0896C36.8708 69.1077 36.9188 69.1124 36.9652 69.1032C37.0115 69.094 37.0541 69.0713 37.0875 69.0379C37.1209 69.0045 37.1437 68.9619 37.1529 68.9156C37.1621 68.8693 37.1574 68.8212 37.1393 68.7776C37.1213 68.7339 37.0906 68.6966 37.0513 68.6704C37.0121 68.6441 36.9659 68.6301 36.9186 68.6301C36.8872 68.6301 36.8562 68.6363 36.8272 68.6483C36.7982 68.6603 36.7719 68.6779 36.7497 68.7C36.7275 68.7222 36.7099 68.7485 36.6979 68.7775C36.6859 68.8065 36.6797 68.8375 36.6797 68.8689Z" fill="#07EAD3" stroke="white" stroke-width="0.0330581"/>
<path d="M40.1973 37.9599C40.1972 38.0072 40.2112 38.0534 40.2375 38.0927C40.2637 38.132 40.301 38.1626 40.3447 38.1807C40.3883 38.1988 40.4364 38.2035 40.4827 38.1943C40.5291 38.1851 40.5717 38.1623 40.6051 38.1289C40.6385 38.0955 40.6613 38.053 40.6705 38.0067C40.6797 37.9603 40.675 37.9123 40.6569 37.8687C40.6388 37.825 40.6082 37.7877 40.5689 37.7614C40.5296 37.7352 40.4834 37.7212 40.4362 37.7212C40.4048 37.7212 40.3737 37.7273 40.3447 37.7393C40.3158 37.7513 40.2894 37.7689 40.2672 37.7911C40.245 37.8132 40.2274 37.8396 40.2154 37.8685C40.2034 37.8975 40.1973 37.9286 40.1973 37.9599Z" fill="#07EAD3" stroke="white" stroke-width="0.0330581"/>
<path d="M50.0918 54.3682C50.0918 54.4155 50.1058 54.4617 50.1321 54.5009C50.1583 54.5402 50.1956 54.5708 50.2393 54.5889C50.283 54.607 50.331 54.6117 50.3774 54.6025C50.4237 54.5933 50.4663 54.5705 50.4997 54.5371C50.5331 54.5037 50.5558 54.4611 50.565 54.4148C50.5743 54.3684 50.5695 54.3204 50.5514 54.2768C50.5333 54.2331 50.5027 54.1958 50.4634 54.1696C50.4241 54.1434 50.3779 54.1294 50.3306 54.1294C50.2993 54.1294 50.2682 54.1356 50.2392 54.1476C50.2102 54.1596 50.1839 54.1772 50.1617 54.1994C50.1395 54.2215 50.122 54.2479 50.11 54.2768C50.098 54.3058 50.0918 54.3369 50.0918 54.3682Z" fill="#07EAD3" stroke="white" stroke-width="0.0330581"/>
<path d="M76.0313 9.35634C76.0312 9.4036 76.0451 9.44981 76.0713 9.48915C76.0975 9.52848 76.1348 9.55916 76.1784 9.5773C76.2221 9.59544 76.2701 9.60023 76.3165 9.59106C76.3629 9.58189 76.4055 9.55918 76.439 9.52579C76.4724 9.49241 76.4952 9.44985 76.5045 9.40351C76.5137 9.35717 76.509 9.30912 76.4909 9.26546C76.4729 9.22179 76.4422 9.18446 76.4029 9.1582C76.3636 9.13194 76.3174 9.11792 76.2702 9.11792C76.2069 9.1179 76.1461 9.143 76.1014 9.1877C76.0566 9.23241 76.0313 9.29306 76.0313 9.35634Z" fill="#07EAD3" stroke="white" stroke-width="0.0330581"/>
<path d="M70.8398 15.5912C70.8398 15.6384 70.8538 15.6846 70.88 15.7238C70.9062 15.7631 70.9435 15.7937 70.9871 15.8118C71.0307 15.8298 71.0787 15.8346 71.125 15.8254C71.1713 15.8162 71.2139 15.7935 71.2473 15.7601C71.2807 15.7267 71.3034 15.6842 71.3126 15.6379C71.3218 15.5916 71.3171 15.5436 71.299 15.5C71.2809 15.4564 71.2503 15.4191 71.211 15.3929C71.1717 15.3667 71.1256 15.3528 71.0783 15.3528C71.0151 15.3528 70.9545 15.378 70.9098 15.4227C70.8651 15.4674 70.8399 15.528 70.8398 15.5912Z" fill="#07EAD3" stroke="white" stroke-width="0.0330581"/>
<path d="M70.6465 34.5859C70.6465 34.6332 70.6605 34.6794 70.6867 34.7186C70.713 34.7579 70.7503 34.7886 70.7939 34.8067C70.8376 34.8247 70.8856 34.8295 70.932 34.8203C70.9783 34.8111 71.0209 34.7883 71.0543 34.7549C71.0878 34.7215 71.1105 34.6789 71.1197 34.6326C71.1289 34.5862 71.1242 34.5382 71.1061 34.4946C71.088 34.4509 71.0574 34.4136 71.0181 34.3874C70.9788 34.3611 70.9326 34.3472 70.8853 34.3472C70.854 34.3472 70.8229 34.3533 70.7939 34.3653C70.7649 34.3773 70.7386 34.3949 70.7164 34.4171C70.6943 34.4393 70.6767 34.4656 70.6647 34.4946C70.6527 34.5235 70.6465 34.5546 70.6465 34.5859Z" fill="#07EAD3" stroke="white" stroke-width="0.0330581"/>
<path d="M74.9902 63.3487C74.9903 63.3959 75.0043 63.442 75.0306 63.4813C75.0568 63.5205 75.0941 63.5511 75.1378 63.5691C75.1814 63.5871 75.2294 63.5918 75.2757 63.5826C75.322 63.5733 75.3646 63.5506 75.3979 63.5172C75.4313 63.4838 75.454 63.4412 75.4632 63.3949C75.4724 63.3486 75.4676 63.3006 75.4495 63.257C75.4314 63.2134 75.4008 63.1762 75.3615 63.15C75.3222 63.1238 75.276 63.1098 75.2288 63.1099C75.1975 63.1099 75.1664 63.1161 75.1375 63.1281C75.1085 63.1401 75.0822 63.1577 75.06 63.1799C75.0379 63.2021 75.0203 63.2284 75.0083 63.2574C74.9964 63.2863 74.9902 63.3174 74.9902 63.3487Z" fill="#07EAD3" stroke="white" stroke-width="0.0330581"/>
<path d="M72.5371 58.8667C72.5371 58.9139 72.5511 58.9601 72.5773 58.9994C72.6036 59.0387 72.6409 59.0693 72.6846 59.0874C72.7282 59.1055 72.7763 59.1102 72.8226 59.101C72.869 59.0918 72.9115 59.0691 72.945 59.0357C72.9784 59.0022 73.0011 58.9597 73.0104 58.9133C73.0196 58.867 73.0148 58.819 72.9967 58.7753C72.9786 58.7317 72.948 58.6944 72.9087 58.6681C72.8694 58.6419 72.8232 58.6279 72.7759 58.6279C72.7446 58.6279 72.7135 58.6341 72.6845 58.6461C72.6556 58.6581 72.6292 58.6757 72.6071 58.6979C72.5849 58.72 72.5673 58.7464 72.5553 58.7753C72.5433 58.8043 72.5371 58.8353 72.5371 58.8667Z" fill="#07EAD3" stroke="white" stroke-width="0.0330581"/>
<path d="M78.1484 60.3836C78.1485 60.4308 78.1625 60.4769 78.1888 60.5161C78.215 60.5553 78.2523 60.5858 78.2959 60.6038C78.3395 60.6219 78.3875 60.6266 78.4338 60.6173C78.48 60.6081 78.5225 60.5854 78.5559 60.552C78.5893 60.5187 78.612 60.4762 78.6212 60.4299C78.6304 60.3837 78.6257 60.3357 78.6076 60.2921C78.5896 60.2485 78.559 60.2113 78.5198 60.185C78.4806 60.1588 78.4345 60.1448 78.3873 60.1448C78.3559 60.1448 78.3248 60.1509 78.2958 60.1629C78.2669 60.1749 78.2405 60.1925 78.2183 60.2147C78.1962 60.2369 78.1786 60.2632 78.1666 60.2922C78.1546 60.3212 78.1484 60.3523 78.1484 60.3836Z" fill="#07EAD3" stroke="white" stroke-width="0.0330581"/>
<path d="M68.7568 71.4495C68.799 71.4707 68.8465 71.4789 68.8934 71.4731C68.9402 71.4673 68.9843 71.4477 69.02 71.4168C69.0558 71.3859 69.0815 71.3452 69.0941 71.2996C69.1066 71.2541 69.1054 71.2059 69.0905 71.1611C69.0757 71.1163 69.0478 71.0769 69.0106 71.0479C68.9733 71.0189 68.9283 71.0016 68.8812 70.9982C68.8341 70.9948 68.787 71.0054 68.746 71.0287C68.7049 71.052 68.6717 71.087 68.6505 71.1292C68.6364 71.1572 68.6279 71.1877 68.6256 71.219C68.6233 71.2502 68.6272 71.2817 68.6371 71.3114C68.647 71.3412 68.6626 71.3687 68.6832 71.3924C68.7037 71.4161 68.7287 71.4355 68.7568 71.4495Z" fill="#07EAD3" stroke="white" stroke-width="0.0330581"/>
<path d="M47.2832 66.7462C47.2831 66.7935 47.2971 66.8397 47.3233 66.879C47.3495 66.9184 47.3868 66.9491 47.4304 66.9672C47.4741 66.9853 47.5221 66.9901 47.5685 66.9809C47.6149 66.9718 47.6575 66.9491 47.6909 66.9157C47.7244 66.8823 47.7472 66.8397 47.7564 66.7933C47.7657 66.747 47.7609 66.699 47.7429 66.6553C47.7248 66.6116 47.6941 66.5743 47.6548 66.5481C47.6155 66.5218 47.5693 66.5078 47.522 66.5078C47.4587 66.5078 47.3981 66.5329 47.3533 66.5776C47.3085 66.6223 47.2833 66.683 47.2832 66.7462Z" fill="#41EAF7" stroke="white" stroke-width="0.0330581"/>
<path d="M50.0781 70.531C50.0782 70.5782 50.0922 70.6243 50.1184 70.6635C50.1446 70.7027 50.1819 70.7332 50.2255 70.7513C50.2691 70.7693 50.3171 70.774 50.3634 70.7648C50.4096 70.7556 50.4521 70.7329 50.4855 70.6996C50.5189 70.6662 50.5416 70.6237 50.5508 70.5775C50.5601 70.5312 50.5554 70.4832 50.5373 70.4397C50.5193 70.3961 50.4888 70.3588 50.4495 70.3326C50.4103 70.3063 50.3642 70.2923 50.317 70.2922C50.2857 70.2922 50.2546 70.2984 50.2256 70.3104C50.1966 70.3224 50.1703 70.3399 50.1481 70.3621C50.1259 70.3843 50.1083 70.4106 50.0963 70.4396C50.0843 70.4686 50.0781 70.4996 50.0781 70.531Z" fill="#41EAF7" stroke="white" stroke-width="0.0330581"/>
<path d="M72.9648 21.9577C72.9648 22.0049 72.9787 22.0511 73.0049 22.0905C73.0311 22.1298 73.0684 22.1605 73.112 22.1786C73.1557 22.1968 73.2037 22.2015 73.2501 22.1924C73.2965 22.1832 73.3391 22.1605 73.3725 22.1271C73.406 22.0937 73.4288 22.0512 73.4381 22.0048C73.4473 21.9585 73.4426 21.9104 73.4245 21.8668C73.4065 21.8231 73.3758 21.7858 73.3365 21.7595C73.2972 21.7333 73.251 21.7192 73.2038 21.7192C73.1405 21.7192 73.0797 21.7443 73.0349 21.789C72.9901 21.8337 72.9649 21.8944 72.9648 21.9577Z" fill="#41EAF7" stroke="white" stroke-width="0.0330581"/>
<path d="M59.7461 21.2426C59.7461 21.2898 59.76 21.3359 59.7862 21.3752C59.8124 21.4144 59.8497 21.445 59.8933 21.4631C59.9369 21.4812 59.9849 21.486 60.0312 21.4768C60.0776 21.4676 60.1201 21.4448 60.1535 21.4115C60.1869 21.3781 60.2096 21.3356 60.2188 21.2893C60.228 21.243 60.2233 21.195 60.2052 21.1514C60.1872 21.1078 60.1566 21.0705 60.1173 21.0443C60.078 21.0181 60.0319 21.0041 59.9847 21.0042C59.9214 21.0042 59.8608 21.0293 59.8161 21.074C59.7713 21.1187 59.7462 21.1793 59.7461 21.2426Z" fill="#41EAF7" stroke="white" stroke-width="0.0330581"/>
<path d="M66.5078 12.2162C66.5077 12.2635 66.5217 12.3097 66.5479 12.349C66.5741 12.3883 66.6114 12.419 66.655 12.4372C66.6987 12.4553 66.7467 12.4601 66.7931 12.4509C66.8395 12.4418 66.8821 12.419 66.9155 12.3857C66.949 12.3523 66.9718 12.3097 66.981 12.2634C66.9903 12.217 66.9856 12.169 66.9675 12.1253C66.9494 12.0817 66.9188 12.0443 66.8795 12.0181C66.8402 11.9918 66.794 11.9778 66.7467 11.9778C66.6834 11.9778 66.6227 12.0029 66.5779 12.0476C66.5331 12.0923 66.5079 12.1529 66.5078 12.2162Z" fill="#41EAF7" stroke="white" stroke-width="0.0330581"/>
<path d="M54.082 4.38923C54.082 4.43647 54.096 4.48265 54.1223 4.52192C54.1485 4.5612 54.1859 4.59181 54.2295 4.60989C54.2732 4.62797 54.3212 4.6327 54.3676 4.62348C54.4139 4.61427 54.4565 4.59152 54.4899 4.55812C54.5233 4.52471 54.5461 4.48216 54.5553 4.43583C54.5645 4.3895 54.5598 4.34147 54.5417 4.29783C54.5236 4.25419 54.493 4.21689 54.4537 4.19064C54.4144 4.1644 54.3682 4.15039 54.3209 4.15039C54.2896 4.15038 54.2585 4.15655 54.2295 4.16855C54.2005 4.18055 54.1742 4.19814 54.152 4.22032C54.1298 4.2425 54.1122 4.26883 54.1002 4.29782C54.0882 4.3268 54.082 4.35786 54.082 4.38923Z" fill="#41EAF7" stroke="white" stroke-width="0.0330581"/>
<path d="M59.5664 1.87849C59.5664 1.92573 59.5804 1.9719 59.6067 2.01118C59.6329 2.05046 59.6702 2.08107 59.7139 2.09915C59.7575 2.11722 59.8056 2.12195 59.8519 2.11274C59.8983 2.10352 59.9408 2.08078 59.9743 2.04737C60.0077 2.01397 60.0304 1.97141 60.0396 1.92508C60.0489 1.87875 60.0441 1.83073 60.026 1.78709C60.008 1.74345 59.9773 1.70614 59.9381 1.6799C59.8988 1.65366 59.8526 1.63965 59.8053 1.63965C59.7739 1.63964 59.7429 1.64581 59.7139 1.65781C59.6849 1.66981 59.6585 1.6874 59.6364 1.70958C59.6142 1.73176 59.5966 1.75809 59.5846 1.78708C59.5726 1.81606 59.5664 1.84712 59.5664 1.87849Z" fill="#41EAF7" stroke="white" stroke-width="0.0330581"/>
<path d="M67.2695 4.15009C67.2695 4.27249 67.3058 4.39214 67.3739 4.4939C67.4419 4.59567 67.5386 4.67499 67.6517 4.72183C67.7648 4.76867 67.8893 4.78092 68.0093 4.75705C68.1294 4.73317 68.2397 4.67423 68.3263 4.58768C68.4129 4.50113 68.4718 4.39087 68.4957 4.27082C68.5196 4.15078 68.5073 4.02635 68.4605 3.91327C68.4136 3.80019 68.3343 3.70354 68.2325 3.63554C68.1307 3.56755 68.011 3.53125 67.8886 3.53125C67.7244 3.53125 67.5669 3.59645 67.4508 3.71251C67.3348 3.82856 67.2695 3.98597 67.2695 4.15009Z" fill="#07EAD3" stroke="white" stroke-width="0.0330581"/>
<path d="M45.5371 61.8318C45.5371 61.8789 45.5512 61.925 45.5774 61.9643C45.6036 62.0035 45.6409 62.034 45.6845 62.0521C45.7281 62.0701 45.7761 62.0748 45.8223 62.0656C45.8686 62.0564 45.9111 62.0337 45.9445 62.0003C45.9779 61.967 46.0006 61.9245 46.0098 61.8782C46.0191 61.832 46.0144 61.784 45.9963 61.7404C45.9783 61.6968 45.9477 61.6596 45.9085 61.6333C45.8693 61.6071 45.8232 61.5931 45.776 61.593C45.7447 61.593 45.7136 61.5992 45.6846 61.6111C45.6556 61.6231 45.6293 61.6407 45.6071 61.6629C45.5849 61.6851 45.5673 61.7114 45.5553 61.7404C45.5433 61.7694 45.5371 61.8004 45.5371 61.8318Z" fill="#07EAD3" stroke="white" stroke-width="0.0330581"/>
<path d="M46.0156 60.5312C46.0156 60.5785 46.0296 60.6247 46.0558 60.6639C46.0821 60.7032 46.1194 60.7339 46.1631 60.752C46.2067 60.77 46.2547 60.7748 46.3011 60.7656C46.3474 60.7564 46.39 60.7336 46.4234 60.7002C46.4569 60.6668 46.4796 60.6243 46.4889 60.5779C46.4981 60.5316 46.4934 60.4836 46.4753 60.4399C46.4572 60.3963 46.4266 60.359 46.3873 60.3327C46.348 60.3065 46.3018 60.2925 46.2545 60.2925C46.2232 60.2925 46.1921 60.2986 46.1631 60.3106C46.1341 60.3226 46.1078 60.3402 46.0856 60.3624C46.0634 60.3845 46.0458 60.4109 46.0338 60.4398C46.0218 60.4688 46.0156 60.4999 46.0156 60.5312Z" fill="#07EAD3" stroke="white" stroke-width="0.0330581"/>
<path d="M38.3652 59.813C38.3652 59.8602 38.3792 59.9064 38.4055 59.9457C38.4317 59.985 38.469 60.0156 38.5127 60.0337C38.5563 60.0518 38.6044 60.0565 38.6507 60.0473C38.6971 60.0381 38.7396 60.0154 38.7731 59.982C38.8065 59.9486 38.8292 59.906 38.8385 59.8597C38.8477 59.8134 38.843 59.7653 38.8249 59.7217C38.8068 59.678 38.7762 59.6407 38.7369 59.6145C38.6976 59.5882 38.6514 59.5742 38.6041 59.5742C38.5728 59.5742 38.5417 59.5804 38.5127 59.5923C38.4837 59.6043 38.4574 59.6219 38.4352 59.6441C38.413 59.6663 38.3954 59.6926 38.3834 59.7216C38.3714 59.7506 38.3652 59.7816 38.3652 59.813Z" fill="#07EAD3" stroke="white" stroke-width="0.0330581"/>
<path d="M38.3848 61.0938C38.3848 61.1411 38.3988 61.1872 38.425 61.2265C38.4513 61.2658 38.4886 61.2964 38.5323 61.3145C38.5759 61.3326 38.6239 61.3373 38.6703 61.3281C38.7166 61.3189 38.7592 61.2961 38.7926 61.2627C38.826 61.2293 38.8488 61.1867 38.858 61.1404C38.8672 61.0941 38.8625 61.0461 38.8444 61.0024C38.8263 60.9588 38.7957 60.9215 38.7564 60.8952C38.7171 60.869 38.6709 60.855 38.6237 60.855C38.5923 60.855 38.5612 60.8611 38.5322 60.8731C38.5032 60.8851 38.4769 60.9027 38.4547 60.9249C38.4325 60.9471 38.4149 60.9734 38.4029 61.0024C38.3909 61.0314 38.3848 61.0625 38.3848 61.0938Z" fill="#07EAD3" stroke="white" stroke-width="0.0330581"/>
<path d="M21.3287 72.1235C21.4606 72.1235 21.5675 72.0166 21.5675 71.8848C21.5675 71.7529 21.4606 71.646 21.3287 71.646C21.1968 71.646 21.0898 71.7529 21.0898 71.8848C21.0898 72.0166 21.1968 72.1235 21.3287 72.1235Z" fill="#07EAD3" stroke="white" stroke-width="0.0330581"/>
<path d="M26.25 59.7294C26.25 59.7766 26.2639 59.8227 26.2901 59.862C26.3163 59.9012 26.3536 59.9318 26.3972 59.9499C26.4407 59.968 26.4887 59.9728 26.535 59.9636C26.5813 59.9544 26.6239 59.9317 26.6573 59.8984C26.6907 59.8651 26.7134 59.8226 26.7227 59.7763C26.7319 59.73 26.7273 59.6821 26.7092 59.6385C26.6912 59.5949 26.6607 59.5576 26.6215 59.5313C26.5822 59.5051 26.5361 59.491 26.4889 59.491C26.4256 59.4909 26.3649 59.516 26.3201 59.5607C26.2753 59.6055 26.2501 59.6661 26.25 59.7294Z" fill="#07EAD3" stroke="white" stroke-width="0.0330581"/>
<path d="M45.5371 46.0404C45.5372 46.0875 45.5512 46.1336 45.5775 46.1729C45.6037 46.2121 45.641 46.2426 45.6847 46.2606C45.7283 46.2786 45.7763 46.2833 45.8225 46.2741C45.8688 46.2648 45.9113 46.2421 45.9447 46.2087C45.978 46.1753 46.0007 46.1327 46.0099 46.0865C46.0191 46.0402 46.0143 45.9922 45.9962 45.9486C45.9781 45.905 45.9475 45.8678 45.9082 45.8416C45.869 45.8154 45.8228 45.8015 45.7756 45.8015C45.7443 45.8015 45.7132 45.8077 45.6843 45.8197C45.6553 45.8318 45.629 45.8494 45.6069 45.8715C45.5847 45.8937 45.5672 45.92 45.5552 45.949C45.5432 45.978 45.5371 46.009 45.5371 46.0404Z" fill="#07EAD3" stroke="white" stroke-width="0.0330581"/>
<path d="M53.1973 50.1214C53.1973 50.1686 53.2114 50.2147 53.2376 50.2539C53.2639 50.2931 53.3012 50.3237 53.3448 50.3417C53.3884 50.3597 53.4364 50.3644 53.4827 50.3551C53.529 50.3459 53.5715 50.3231 53.6048 50.2897C53.6382 50.2563 53.6609 50.2138 53.67 50.1675C53.6792 50.1212 53.6744 50.0733 53.6564 50.0297C53.6383 49.9861 53.6076 49.9489 53.5684 49.9227C53.5291 49.8965 53.483 49.8825 53.4358 49.8826C53.3725 49.8826 53.3118 49.9078 53.267 49.9526C53.2223 49.9974 53.1972 50.0581 53.1973 50.1214Z" fill="#07EAD3" stroke="white" stroke-width="0.0330581"/>
<path d="M64.7695 52.3238C64.7695 52.371 64.7835 52.4172 64.8098 52.4565C64.836 52.4958 64.8734 52.5264 64.917 52.5445C64.9607 52.5625 65.0087 52.5673 65.0551 52.5581C65.1014 52.5488 65.144 52.5261 65.1774 52.4927C65.2108 52.4593 65.2336 52.4167 65.2428 52.3704C65.252 52.3241 65.2473 52.276 65.2292 52.2324C65.2111 52.1888 65.1805 52.1515 65.1412 52.1252C65.1019 52.099 65.0557 52.085 65.0084 52.085C64.9771 52.0849 64.946 52.0911 64.917 52.1031C64.888 52.1151 64.8617 52.1327 64.8395 52.1549C64.8173 52.1771 64.7997 52.2034 64.7877 52.2324C64.7757 52.2614 64.7695 52.2924 64.7695 52.3238Z" fill="#07EAD3" stroke="white" stroke-width="0.0330581"/>
<path d="M51.8789 45.2056C51.8789 45.2527 51.893 45.2989 51.9192 45.3381C51.9455 45.3773 51.9828 45.4078 52.0264 45.4259C52.07 45.4439 52.118 45.4486 52.1643 45.4394C52.2106 45.4301 52.2531 45.4074 52.2864 45.374C52.3198 45.3406 52.3425 45.2981 52.3517 45.2518C52.3609 45.2055 52.3561 45.1575 52.338 45.1139C52.3199 45.0703 52.2893 45.0331 52.25 45.0069C52.2108 44.9807 52.1646 44.9668 52.1174 44.9668C52.0861 44.9668 52.055 44.973 52.0261 44.985C51.9971 44.997 51.9708 45.0146 51.9487 45.0368C51.9265 45.059 51.909 45.0853 51.897 45.1142C51.885 45.1432 51.8789 45.1742 51.8789 45.2056Z" fill="#07EAD3" stroke="white" stroke-width="0.0330581"/>
<path d="M48.9102 14.7352C48.9102 14.7824 48.9242 14.8286 48.9504 14.8679C48.9767 14.9071 49.014 14.9378 49.0576 14.9558C49.1013 14.9739 49.1493 14.9786 49.1957 14.9694C49.242 14.9602 49.2846 14.9375 49.318 14.9041C49.3514 14.8707 49.3742 14.8281 49.3834 14.7818C49.3926 14.7354 49.3879 14.6874 49.3698 14.6438C49.3517 14.6001 49.3211 14.5628 49.2818 14.5366C49.2425 14.5103 49.1963 14.4963 49.1491 14.4963C49.1177 14.4963 49.0866 14.5025 49.0576 14.5145C49.0286 14.5265 49.0023 14.5441 48.9801 14.5663C48.9579 14.5884 48.9403 14.6148 48.9283 14.6438C48.9163 14.6727 48.9101 14.7038 48.9102 14.7352Z" fill="#07EAD3" stroke="white" stroke-width="0.0330581"/>
<path d="M41.8066 35.3448C41.8066 35.392 41.8207 35.4382 41.8469 35.4775C41.8732 35.5168 41.9105 35.5474 41.9541 35.5655C41.9978 35.5835 42.0458 35.5883 42.0922 35.579C42.1385 35.5698 42.1811 35.5471 42.2145 35.5137C42.2479 35.4803 42.2707 35.4377 42.2799 35.3914C42.2891 35.3451 42.2844 35.297 42.2663 35.2534C42.2482 35.2098 42.2176 35.1725 42.1783 35.1462C42.139 35.12 42.0928 35.106 42.0456 35.106C42.0142 35.1059 41.9831 35.1121 41.9541 35.1241C41.9251 35.1361 41.8988 35.1537 41.8766 35.1759C41.8544 35.1981 41.8368 35.2244 41.8248 35.2534C41.8128 35.2824 41.8066 35.3134 41.8066 35.3448Z" fill="#07EAD3" stroke="white" stroke-width="0.0330581"/>
<path d="M40.0938 15.6777C40.0937 15.7403 40.1122 15.8015 40.147 15.8535C40.1817 15.9056 40.2311 15.9462 40.2889 15.9701C40.3468 15.9941 40.4104 16.0004 40.4718 15.9882C40.5332 15.9761 40.5896 15.946 40.6339 15.9017C40.6782 15.8575 40.7083 15.8011 40.7206 15.7397C40.7328 15.6784 40.7266 15.6147 40.7026 15.5569C40.6787 15.4991 40.6381 15.4497 40.5861 15.4149C40.534 15.3801 40.4728 15.3616 40.4102 15.3616C40.3264 15.3617 40.2459 15.395 40.1866 15.4542C40.1273 15.5135 40.0939 15.5938 40.0938 15.6777Z" fill="#07EAD3" stroke="white" stroke-width="0.0330581"/>
<path d="M40.1152 21.7134C40.1152 21.7606 40.1292 21.8068 40.1555 21.8461C40.1817 21.8854 40.219 21.916 40.2627 21.9341C40.3063 21.9522 40.3544 21.9569 40.4007 21.9477C40.4471 21.9385 40.4896 21.9158 40.5231 21.8824C40.5565 21.849 40.5792 21.8064 40.5885 21.7601C40.5977 21.7137 40.593 21.6657 40.5749 21.6221C40.5568 21.5784 40.5262 21.5411 40.4869 21.5149C40.4476 21.4886 40.4014 21.4746 40.3541 21.4746C40.3228 21.4746 40.2917 21.4807 40.2627 21.4927C40.2337 21.5047 40.2073 21.5223 40.1851 21.5444C40.1629 21.5666 40.1454 21.593 40.1334 21.6219C40.1214 21.6509 40.1152 21.682 40.1152 21.7134Z" fill="#07EAD3" stroke="white" stroke-width="0.0330581"/>
<path d="M16.0098 26.1981C16.0098 26.2452 16.0238 26.2913 16.0501 26.3305C16.0763 26.3697 16.1136 26.4003 16.1572 26.4183C16.2008 26.4363 16.2488 26.441 16.2951 26.4318C16.3413 26.4226 16.3838 26.3999 16.4172 26.3665C16.4506 26.3332 16.4733 26.2907 16.4825 26.2444C16.4917 26.1982 16.487 26.1502 16.469 26.1066C16.4509 26.063 16.4204 26.0258 16.3812 25.9995C16.342 25.9733 16.2959 25.9593 16.2487 25.9592C16.2173 25.9592 16.1862 25.9654 16.1572 25.9774C16.1282 25.9894 16.1019 26.007 16.0797 26.0292C16.0575 26.0513 16.0399 26.0777 16.0279 26.1067C16.0159 26.1356 16.0098 26.1667 16.0098 26.1981Z" fill="#07EAD3" stroke="white" stroke-width="0.0330581"/>
<path d="M17.0391 31.8341C17.0391 31.8813 17.0531 31.9275 17.0793 31.9667C17.1056 32.006 17.1429 32.0366 17.1865 32.0547C17.2302 32.0728 17.2782 32.0775 17.3246 32.0683C17.3709 32.0591 17.4135 32.0363 17.4469 32.0029C17.4803 31.9695 17.5031 31.927 17.5123 31.8807C17.5215 31.8343 17.5168 31.7863 17.4987 31.7427C17.4806 31.699 17.45 31.6617 17.4107 31.6355C17.3714 31.6092 17.3252 31.5952 17.278 31.5952C17.2466 31.5952 17.2155 31.6014 17.1865 31.6134C17.1575 31.6254 17.1312 31.643 17.109 31.6651C17.0868 31.6873 17.0692 31.7137 17.0572 31.7426C17.0452 31.7716 17.0391 31.8027 17.0391 31.8341Z" fill="#07EAD3" stroke="white" stroke-width="0.0330581"/>
<path d="M36.5938 45.3033C36.5938 45.3505 36.6078 45.3967 36.634 45.436C36.6603 45.4753 36.6976 45.5059 36.7413 45.524C36.7849 45.542 36.833 45.5468 36.8793 45.5375C36.9257 45.5283 36.9682 45.5056 37.0016 45.4721C37.035 45.4387 37.0578 45.3962 37.067 45.3498C37.0762 45.3035 37.0715 45.2555 37.0534 45.2118C37.0353 45.1682 37.0046 45.1309 36.9653 45.1047C36.926 45.0784 36.8798 45.0644 36.8326 45.0645C36.8012 45.0645 36.7701 45.0706 36.7412 45.0826C36.7122 45.0946 36.6859 45.1122 36.6637 45.1344C36.6415 45.1566 36.6239 45.1829 36.6119 45.2119C36.5999 45.2409 36.5937 45.2719 36.5938 45.3033Z" fill="#07EAD3" stroke="white" stroke-width="0.0330581"/>
<path d="M58.3262 62.9901C58.3262 63.0372 58.3403 63.0834 58.3665 63.1226C58.3928 63.1618 58.4301 63.1923 58.4737 63.2103C58.5173 63.2283 58.5653 63.233 58.6116 63.2238C58.6579 63.2145 58.7004 63.1918 58.7337 63.1584C58.7671 63.125 58.7898 63.0824 58.799 63.0362C58.8081 62.9899 58.8034 62.9419 58.7853 62.8983C58.7672 62.8548 58.7365 62.8175 58.6973 62.7913C58.658 62.7651 58.6119 62.7512 58.5647 62.7512C58.5014 62.7513 58.4407 62.7765 58.396 62.8213C58.3512 62.8661 58.3261 62.9268 58.3262 62.9901Z" fill="#07EAD3" stroke="white" stroke-width="0.0330581"/>
<path d="M62.5098 58.1348C62.5098 58.1819 62.5238 58.2281 62.5501 58.2673C62.5763 58.3065 62.6136 58.337 62.6573 58.3551C62.7009 58.3731 62.7489 58.3778 62.7952 58.3686C62.8414 58.3593 62.884 58.3366 62.9173 58.3032C62.9507 58.2698 62.9734 58.2273 62.9825 58.181C62.9917 58.1347 62.987 58.0867 62.9689 58.0431C62.9508 57.9995 62.9202 57.9623 62.8809 57.9361C62.8416 57.9099 62.7955 57.896 62.7483 57.896C62.685 57.8961 62.6243 57.9213 62.5796 57.966C62.5349 58.0108 62.5097 58.0715 62.5098 58.1348Z" fill="#07EAD3" stroke="white" stroke-width="0.0330581"/>
<path d="M38.3516 26.6207C38.3516 26.6679 38.3656 26.7141 38.3918 26.7534C38.4181 26.7926 38.4554 26.8233 38.499 26.8413C38.5427 26.8594 38.5907 26.8641 38.6371 26.8549C38.6834 26.8457 38.726 26.823 38.7594 26.7896C38.7928 26.7562 38.8156 26.7136 38.8248 26.6673C38.834 26.6209 38.8293 26.5729 38.8112 26.5293C38.7931 26.4856 38.7625 26.4483 38.7232 26.4221C38.6839 26.3958 38.6377 26.3818 38.5905 26.3818C38.5591 26.3818 38.528 26.388 38.499 26.4C38.47 26.412 38.4437 26.4296 38.4215 26.4518C38.3993 26.4739 38.3817 26.5003 38.3697 26.5293C38.3577 26.5582 38.3516 26.5893 38.3516 26.6207Z" fill="#07EAD3" stroke="white" stroke-width="0.0330581"/>
<path d="M42.9355 53.419C42.9355 53.4663 42.9496 53.5124 42.9758 53.5517C43.0021 53.591 43.0394 53.6216 43.0831 53.6397C43.1267 53.6578 43.1748 53.6625 43.2211 53.6533C43.2675 53.644 43.31 53.6213 43.3434 53.5879C43.3768 53.5545 43.3996 53.5119 43.4088 53.4656C43.418 53.4192 43.4133 53.3712 43.3952 53.3276C43.3771 53.2839 43.3464 53.2466 43.3071 53.2204C43.2678 53.1942 43.2216 53.1802 43.1744 53.1802C43.143 53.1802 43.1119 53.1864 43.083 53.1984C43.054 53.2104 43.0276 53.228 43.0055 53.2501C42.9833 53.2723 42.9657 53.2986 42.9537 53.3276C42.9417 53.3566 42.9355 53.3877 42.9355 53.419Z" fill="#07EAD3" stroke="white" stroke-width="0.0330581"/>
<path d="M35.7422 50.6453C35.7422 50.6924 35.7563 50.7386 35.7825 50.7778C35.8088 50.817 35.8461 50.8475 35.8897 50.8656C35.9333 50.8836 35.9813 50.8883 36.0276 50.8791C36.0739 50.8698 36.1164 50.8471 36.1497 50.8137C36.1831 50.7803 36.2058 50.7378 36.215 50.6915C36.2241 50.6452 36.2194 50.5972 36.2013 50.5536C36.1832 50.51 36.1526 50.4728 36.1133 50.4466C36.074 50.4204 36.0279 50.4065 35.9807 50.4065C35.9493 50.4065 35.9183 50.4127 35.8893 50.4247C35.8604 50.4367 35.8341 50.4543 35.8119 50.4764C35.7898 50.4986 35.7722 50.5249 35.7602 50.5539C35.7483 50.5829 35.7421 50.6139 35.7422 50.6453Z" fill="#07EAD3" stroke="white" stroke-width="0.0330581"/>
<path d="M36.5938 53.0823C36.5937 53.1295 36.6077 53.1757 36.634 53.215C36.6602 53.2543 36.6975 53.2849 36.7412 53.303C36.7849 53.3211 36.8329 53.3258 36.8793 53.3166C36.9256 53.3074 36.9682 53.2846 37.0016 53.2512C37.035 53.2178 37.0578 53.1753 37.067 53.1289C37.0762 53.0826 37.0715 53.0346 37.0534 52.9909C37.0353 52.9473 37.0046 52.91 36.9653 52.8837C36.926 52.8575 36.8798 52.8435 36.8326 52.8435C36.8012 52.8435 36.7702 52.8497 36.7412 52.8617C36.7122 52.8737 36.6859 52.8913 36.6637 52.9134C36.6415 52.9356 36.6239 52.9619 36.6119 52.9909C36.5999 53.0199 36.5938 53.0509 36.5938 53.0823Z" fill="#07EAD3" stroke="white" stroke-width="0.0330581"/>
<path d="M30.3887 19.7961C30.3887 19.8871 30.4157 19.976 30.4662 20.0517C30.5168 20.1273 30.5886 20.1863 30.6727 20.2211C30.7568 20.2559 30.8493 20.265 30.9385 20.2472C31.0278 20.2295 31.1098 20.1857 31.1741 20.1214C31.2384 20.057 31.2823 19.9751 31.3 19.8859C31.3178 19.7966 31.3087 19.7042 31.2738 19.6201C31.239 19.5361 31.18 19.4642 31.1044 19.4137C31.0287 19.3632 30.9398 19.3362 30.8488 19.3362C30.7267 19.3362 30.6097 19.3846 30.5234 19.4709C30.4371 19.5572 30.3887 19.6741 30.3887 19.7961Z" fill="#07EAD3" stroke="white" stroke-width="0.0330581"/>
<path d="M71.2542 27.7063C70.8694 29.2996 72.652 30.6577 74.2566 29.4362C75.4785 27.8321 74.12 26.0505 72.5261 26.4347C72.219 26.512 71.9385 26.671 71.7145 26.8949C71.4905 27.1188 71.3314 27.3992 71.2542 27.7063Z" fill="#59F7F7" stroke="white" stroke-width="0.0330581"/>
<path d="M14.1113 36.8229C13.9128 37.6457 14.833 38.3467 15.6614 37.716C16.2922 36.8881 15.5909 35.9682 14.7678 36.1664C14.6093 36.2063 14.4645 36.2885 14.3489 36.404C14.2333 36.5196 14.1512 36.6644 14.1113 36.8229Z" fill="#59F7F7" stroke="white" stroke-width="0.0330581"/>
<path d="M9.83398 16.7959C9.83398 16.8869 9.86097 16.9758 9.91152 17.0514C9.96208 17.1271 10.0339 17.186 10.118 17.2208C10.2021 17.2556 10.2946 17.2647 10.3838 17.247C10.4731 17.2293 10.5551 17.1854 10.6194 17.1211C10.6838 17.0568 10.7276 16.9748 10.7453 16.8856C10.7631 16.7964 10.754 16.7039 10.7191 16.6199C10.6843 16.5358 10.6254 16.464 10.5497 16.4135C10.474 16.3629 10.3851 16.3359 10.2941 16.3359C10.1721 16.3359 10.055 16.3844 9.96874 16.4707C9.88246 16.5569 9.83398 16.6739 9.83398 16.7959Z" fill="#07EAD3" stroke="white" stroke-width="0.0330581"/>
<path d="M13.2754 3.68993C13.2754 3.7809 13.3024 3.86983 13.3529 3.94547C13.4035 4.0211 13.4753 4.08006 13.5594 4.11487C13.6435 4.14968 13.736 4.15879 13.8252 4.14104C13.9145 4.1233 13.9965 4.07949 14.0608 4.01517C14.1252 3.95084 14.169 3.86888 14.1867 3.77966C14.2045 3.69044 14.1954 3.59796 14.1606 3.51392C14.1257 3.42987 14.0668 3.35804 13.9911 3.3075C13.9154 3.25696 13.8265 3.22998 13.7355 3.22998C13.6135 3.22998 13.4964 3.27844 13.4101 3.3647C13.3239 3.45095 13.2754 3.56794 13.2754 3.68993Z" fill="#07EAD3" stroke="white" stroke-width="0.0330581"/>
<path d="M8.69141 8.94359C8.69141 9.03456 8.71839 9.12349 8.76895 9.19913C8.8195 9.27477 8.89136 9.33372 8.97543 9.36853C9.0595 9.40335 9.15201 9.41245 9.24126 9.39471C9.33051 9.37696 9.41249 9.33315 9.47684 9.26883C9.54118 9.2045 9.585 9.12255 9.60275 9.03333C9.62051 8.9441 9.61139 8.85162 9.57657 8.76758C9.54175 8.68353 9.48278 8.6117 9.40711 8.56116C9.33145 8.51062 9.2425 8.48364 9.1515 8.48364C9.02948 8.48364 8.91245 8.5321 8.82617 8.61836C8.73988 8.70462 8.69141 8.82161 8.69141 8.94359Z" fill="#07EAD3" stroke="white" stroke-width="0.0330581"/>
<g filter="url(#filter0_d_171_2054)">
<path d="M31.9141 50.0459C31.914 50.3268 31.9973 50.6014 32.1533 50.8349C32.3094 51.0685 32.5312 51.2506 32.7908 51.3581C33.0504 51.4656 33.336 51.4938 33.6116 51.4391C33.8872 51.3843 34.1403 51.2491 34.339 51.0505C34.5377 50.8519 34.6731 50.5989 34.7279 50.3234C34.7828 50.0479 34.7547 49.7624 34.6472 49.5028C34.5397 49.2433 34.3577 49.0215 34.1241 48.8654C33.8905 48.7093 33.6158 48.626 33.3348 48.626C32.9581 48.626 32.5968 48.7756 32.3304 49.0419C32.0639 49.3081 31.9142 49.6693 31.9141 50.0459Z" fill="white" stroke="white" stroke-width="0.0330581"/>
</g>
<g filter="url(#filter1_d_171_2054)">
<path d="M53.3457 14.1713C53.3457 14.3171 53.389 14.4596 53.47 14.5808C53.551 14.702 53.6662 14.7965 53.8009 14.8523C53.9357 14.9081 54.0839 14.9227 54.227 14.8943C54.37 14.8658 54.5014 14.7956 54.6045 14.6925C54.7077 14.5894 54.7779 14.4581 54.8063 14.3151C54.8348 14.1721 54.8202 14.0239 54.7644 13.8892C54.7086 13.7545 54.6141 13.6393 54.4928 13.5583C54.3715 13.4773 54.229 13.4341 54.0831 13.4341C53.9863 13.4341 53.8904 13.4531 53.8009 13.4902C53.7114 13.5272 53.6301 13.5815 53.5616 13.6499C53.4932 13.7184 53.4388 13.7997 53.4018 13.8891C53.3647 13.9786 53.3457 14.0744 53.3457 14.1713Z" fill="white" stroke="white" stroke-width="0.0330581"/>
</g>
</g>
<mask id="mask1_171_2054" style="mask-type:luminance" maskUnits="userSpaceOnUse" x="39" y="0" width="33" height="74">
<path d="M71.9696 0.741211H39.3984V73.3699H71.9696V0.741211Z" fill="white"/>
</mask>
<g mask="url(#mask1_171_2054)">
<path d="M39.3658 73.3382L1.00586 11.7737L1.00837 11.7721C1.12766 11.698 2.22394 11.0205 3.96184 10.0493C5.03712 9.44847 6.1452 8.85346 7.25461 8.28178C8.64192 7.56669 10.0366 6.88521 11.3998 6.25558C14.8695 4.65361 18.1582 3.3772 21.1746 2.46182C22.8468 1.94729 24.5474 1.52985 26.2679 1.21159C27.1216 1.05788 27.9563 0.939966 28.7487 0.861273C29.5769 0.779067 30.3817 0.737336 31.1412 0.737336C31.7739 0.736184 32.4063 0.766886 33.0359 0.829327C33.6383 0.889282 34.2365 0.98577 34.8271 1.11826C35.3948 1.24586 35.9526 1.41434 36.4959 1.62237C37.0246 1.82536 37.5355 2.07217 38.023 2.36021C39.0084 2.94274 39.8745 3.7065 40.5756 4.61113C40.951 5.09679 41.2814 5.61564 41.5627 6.16124C41.8694 6.75845 42.1265 7.37982 42.3315 8.01911C42.365 8.12289 42.4 8.22667 42.4351 8.32761C42.9729 10.269 43.8237 12.1096 44.9541 13.7772C46.6336 16.2569 48.8843 18.297 51.5168 19.7259C54.5289 21.3584 57.9334 22.1275 61.355 21.9487C64.7765 21.7699 68.0823 20.6499 70.9076 18.7124L39.3662 73.3378L39.3658 73.3382ZM78.9518 4.78047C78.9533 4.7609 78.9547 4.74158 78.9561 4.72193L79.0058 4.68723L78.9518 4.78047Z" fill="#814096"/>
</g>
<path d="M61.1922 20.066C59.967 20.0662 58.7448 19.9429 57.5443 19.698C56.3797 19.4596 55.2416 19.1064 54.1466 18.6437C53.0702 18.1882 52.0404 17.6296 51.0717 16.9756C50.1106 16.326 49.2137 15.5862 48.3933 14.7661C47.5728 13.9458 46.8325 13.0491 46.1825 12.0881C45.5283 11.1198 44.9694 10.0904 44.5137 9.01431C44.0509 7.91974 43.6976 6.78204 43.459 5.61787C43.3355 5.0129 43.2429 4.40201 43.1816 3.7876L47.6817 5.79056C47.8396 6.34947 48.0322 6.89801 48.2583 7.433C48.6118 8.26735 49.0452 9.06553 49.5525 9.81638C50.0564 10.5617 50.6303 11.2571 51.2665 11.8934C51.9028 12.5293 52.5985 13.103 53.3439 13.6068C54.0949 14.114 54.8934 14.5472 55.728 14.9005C56.5772 15.2594 57.4599 15.5333 58.3631 15.7181C59.2941 15.9079 60.2418 16.0035 61.192 16.0032C62.1421 16.0035 63.0899 15.9079 64.0208 15.7181C64.924 15.5333 65.8067 15.2594 66.6559 14.9005C66.9029 14.7961 67.1507 14.6831 67.3925 14.5635L71.893 16.5667C71.702 16.7069 71.5065 16.8445 71.3124 16.9757C70.3438 17.6298 69.3141 18.1886 68.2377 18.6441C67.1426 19.1068 66.0043 19.46 64.8395 19.6984C63.6392 19.9431 62.4173 20.0663 61.1922 20.066Z" fill="#814096"/>
<path d="M67.4013 14.5623L71.8813 16.5785C71.8813 16.5785 69.2693 18.6935 65.0703 19.6855C61.6813 20.486 57.9121 19.7681 57.9121 19.7681L67.4013 14.5623Z" fill="#572865"/>
<path d="M2.86485 102.291C2.92733 102.291 2.97824 102.31 3.01758 102.347C3.05692 102.384 3.07659 102.433 3.07659 102.493C3.07659 102.553 3.05692 102.602 3.01758 102.639C2.97824 102.673 2.92733 102.691 2.86485 102.691H2.31989V104.509C2.31989 104.57 2.2979 104.621 2.25394 104.662C2.20997 104.702 2.15559 104.721 2.09079 104.721C2.026 104.721 1.97278 104.702 1.93112 104.662C1.88947 104.621 1.86864 104.57 1.86864 104.509V102.691H1.32368C1.2612 102.691 1.21029 102.672 1.17095 102.635C1.13161 102.598 1.11195 102.549 1.11195 102.489C1.11195 102.431 1.13161 102.384 1.17095 102.347C1.21261 102.31 1.26352 102.291 1.32368 102.291H2.86485ZM5.00643 102.829C5.23553 102.829 5.39404 102.9 5.48197 103.041C5.56991 103.18 5.61388 103.373 5.61388 103.621V104.509C5.61388 104.57 5.59421 104.621 5.55487 104.662C5.51553 104.702 5.46578 104.721 5.40561 104.721C5.34544 104.721 5.29569 104.702 5.25635 104.662C5.21701 104.621 5.19734 104.57 5.19734 104.509V103.621C5.19734 103.494 5.17189 103.394 5.12098 103.322C5.07238 103.248 4.98561 103.211 4.86065 103.211C4.73106 103.211 4.62924 103.251 4.55519 103.329C4.48345 103.406 4.44759 103.503 4.44759 103.621V104.509C4.44759 104.57 4.42792 104.621 4.38858 104.662C4.34924 104.702 4.29949 104.721 4.23932 104.721C4.17916 104.721 4.1294 104.702 4.09006 104.662C4.05072 104.621 4.03106 104.57 4.03106 104.509V102.364C4.03106 102.304 4.05072 102.254 4.09006 102.215C4.1294 102.173 4.17916 102.153 4.23932 102.153C4.29949 102.153 4.34924 102.173 4.38858 102.215C4.42792 102.254 4.44759 102.304 4.44759 102.364V103.131C4.51007 103.048 4.58874 102.978 4.68362 102.92C4.78081 102.86 4.88842 102.829 5.00643 102.829ZM8.35582 103.749C8.35351 103.805 8.33153 103.85 8.28987 103.885C8.24822 103.919 8.19962 103.937 8.14409 103.937H6.99862C7.02639 104.073 7.09003 104.181 7.18954 104.26C7.28904 104.336 7.40127 104.374 7.52623 104.374C7.62111 104.374 7.69516 104.366 7.74838 104.35C7.8016 104.331 7.84326 104.313 7.87334 104.294C7.90574 104.273 7.92772 104.26 7.93929 104.253C7.98094 104.232 8.02028 104.221 8.05731 104.221C8.1059 104.221 8.14756 104.239 8.18227 104.273C8.21698 104.308 8.23433 104.349 8.23433 104.395C8.23433 104.457 8.20194 104.514 8.13714 104.565C8.07235 104.618 7.98557 104.663 7.87681 104.7C7.76805 104.737 7.65813 104.756 7.54706 104.756C7.35268 104.756 7.18259 104.715 7.03681 104.634C6.89333 104.553 6.78226 104.442 6.70358 104.301C6.6249 104.158 6.58556 103.997 6.58556 103.819C6.58556 103.62 6.62722 103.445 6.71052 103.295C6.79383 103.144 6.90375 103.03 7.04028 102.951C7.17681 102.87 7.32259 102.829 7.47764 102.829C7.63036 102.829 7.77384 102.871 7.90805 102.954C8.04458 103.038 8.15334 103.15 8.23433 103.291C8.31533 103.432 8.35582 103.585 8.35582 103.749ZM7.47764 103.211C7.2092 103.211 7.05069 103.337 7.0021 103.59H7.91152V103.565C7.90227 103.468 7.85483 103.385 7.76921 103.315C7.68359 103.246 7.5864 103.211 7.47764 103.211ZM12.0017 102.291C12.2192 102.291 12.4055 102.346 12.5605 102.455C12.7179 102.561 12.8371 102.707 12.9181 102.892C13.0014 103.075 13.043 103.28 13.043 103.506C13.043 103.733 13.0014 103.939 12.9181 104.124C12.8371 104.307 12.7179 104.453 12.5605 104.562C12.4055 104.668 12.2192 104.721 12.0017 104.721H11.1721C11.1119 104.721 11.061 104.702 11.0194 104.662C10.98 104.621 10.9604 104.57 10.9604 104.509V102.503C10.9604 102.443 10.98 102.393 11.0194 102.354C11.061 102.312 11.1119 102.291 11.1721 102.291H12.0017ZM11.967 104.322C12.1752 104.322 12.3314 104.246 12.4356 104.093C12.5397 103.938 12.5918 103.742 12.5918 103.506C12.5918 103.27 12.5386 103.076 12.4321 102.923C12.328 102.768 12.1729 102.691 11.967 102.691H11.3943V104.322H11.967ZM15.725 103.749C15.7227 103.805 15.7007 103.85 15.659 103.885C15.6174 103.919 15.5688 103.937 15.5132 103.937H14.3678C14.3956 104.073 14.4592 104.181 14.5587 104.26C14.6582 104.336 14.7704 104.374 14.8954 104.374C14.9903 104.374 15.0643 104.366 15.1175 104.35C15.1708 104.331 15.2124 104.313 15.2425 104.294C15.2749 104.273 15.2969 104.26 15.3085 104.253C15.3501 104.232 15.3894 104.221 15.4265 104.221C15.4751 104.221 15.5167 104.239 15.5514 104.273C15.5861 104.308 15.6035 104.349 15.6035 104.395C15.6035 104.457 15.5711 104.514 15.5063 104.565C15.4415 104.618 15.3547 104.663 15.246 104.7C15.1372 104.737 15.0273 104.756 14.9162 104.756C14.7218 104.756 14.5518 104.715 14.406 104.634C14.2625 104.553 14.1514 104.442 14.0727 104.301C13.9941 104.158 13.9547 103.997 13.9547 103.819C13.9547 103.62 13.9964 103.445 14.0797 103.295C14.163 103.144 14.2729 103.03 14.4094 102.951C14.546 102.87 14.6918 102.829 14.8468 102.829C14.9995 102.829 15.143 102.871 15.2772 102.954C15.4137 103.038 15.5225 103.15 15.6035 103.291C15.6845 103.432 15.725 103.585 15.725 103.749ZM14.8468 103.211C14.5784 103.211 14.4199 103.337 14.3713 103.59H15.2807V103.565C15.2714 103.468 15.224 103.385 15.1384 103.315C15.0528 103.246 14.9556 103.211 14.8468 103.211ZM17.5059 102.829C17.7026 102.829 17.8611 102.861 17.9815 102.923C18.1018 102.983 18.162 103.064 18.162 103.166C18.162 103.217 18.1469 103.262 18.1168 103.302C18.0868 103.339 18.0474 103.357 17.9988 103.357C17.9618 103.357 17.9317 103.352 17.9086 103.343C17.8854 103.332 17.8623 103.318 17.8392 103.302C17.8183 103.283 17.7975 103.268 17.7767 103.256C17.7535 103.245 17.7188 103.234 17.6725 103.225C17.6286 103.216 17.5927 103.211 17.5649 103.211C17.3914 103.211 17.2549 103.266 17.1553 103.374C17.0582 103.481 17.0096 103.621 17.0096 103.794C17.0096 103.961 17.0593 104.1 17.1588 104.211C17.2583 104.32 17.3856 104.374 17.5406 104.374C17.654 104.374 17.7385 104.36 17.794 104.332C17.8079 104.325 17.8264 104.314 17.8496 104.298C17.875 104.279 17.8982 104.265 17.919 104.256C17.9398 104.247 17.9653 104.242 17.9954 104.242C18.0532 104.242 18.0983 104.261 18.1307 104.298C18.1654 104.335 18.1828 104.382 18.1828 104.44C18.1828 104.496 18.1504 104.548 18.0856 104.596C18.0208 104.645 17.9352 104.684 17.8287 104.714C17.7223 104.742 17.6089 104.756 17.4886 104.756C17.3104 104.756 17.153 104.714 17.0165 104.631C16.8823 104.548 16.7782 104.433 16.7041 104.287C16.6301 104.139 16.593 103.975 16.593 103.794C16.593 103.607 16.6312 103.44 16.7076 103.295C16.7863 103.149 16.895 103.035 17.0339 102.954C17.1727 102.871 17.3301 102.829 17.5059 102.829ZM19.5006 104.509C19.5006 104.57 19.4809 104.621 19.4416 104.662C19.4022 104.702 19.3525 104.721 19.2923 104.721C19.2322 104.721 19.1824 104.702 19.1431 104.662C19.1037 104.621 19.0841 104.57 19.0841 104.509V103.076C19.0841 103.016 19.1037 102.966 19.1431 102.927C19.1824 102.885 19.2322 102.864 19.2923 102.864C19.3525 102.864 19.4022 102.885 19.4416 102.927C19.4809 102.966 19.5006 103.016 19.5006 103.076V104.509ZM19.2889 102.639C19.2102 102.639 19.1546 102.626 19.1222 102.6C19.0898 102.575 19.0736 102.53 19.0736 102.465V102.399C19.0736 102.334 19.091 102.289 19.1257 102.264C19.1604 102.238 19.216 102.225 19.2923 102.225C19.3733 102.225 19.43 102.238 19.4624 102.264C19.4948 102.289 19.511 102.334 19.511 102.399V102.465C19.511 102.532 19.4936 102.578 19.4589 102.604C19.4265 102.627 19.3698 102.639 19.2889 102.639ZM20.4459 104.433C20.425 104.405 20.4146 104.371 20.4146 104.329C20.4146 104.269 20.4447 104.218 20.5049 104.176C20.5373 104.155 20.5708 104.145 20.6055 104.145C20.6541 104.145 20.7004 104.167 20.7444 104.211C20.8138 104.283 20.8855 104.336 20.9596 104.371C21.036 104.405 21.1274 104.423 21.2338 104.423C21.4143 104.416 21.5045 104.347 21.5045 104.218C21.5045 104.151 21.4733 104.1 21.4108 104.065C21.3507 104.03 21.2558 103.996 21.1262 103.961C20.992 103.924 20.8821 103.887 20.7964 103.85C20.7131 103.813 20.6402 103.757 20.5778 103.683C20.5176 103.607 20.4875 103.505 20.4875 103.378C20.4875 103.267 20.5188 103.171 20.5812 103.09C20.646 103.006 20.7293 102.943 20.8312 102.899C20.9353 102.853 21.0452 102.829 21.1609 102.829C21.2789 102.829 21.3969 102.851 21.515 102.895C21.633 102.939 21.7255 103.004 21.7927 103.09C21.8227 103.127 21.8378 103.168 21.8378 103.215C21.8378 103.268 21.8158 103.312 21.7718 103.347C21.7394 103.372 21.7024 103.385 21.6607 103.385C21.6098 103.385 21.5682 103.369 21.5358 103.336C21.4941 103.285 21.4398 103.245 21.3726 103.215C21.3079 103.185 21.2338 103.17 21.1505 103.17C20.9746 103.17 20.8867 103.233 20.8867 103.361C20.8867 103.411 20.9029 103.453 20.9353 103.485C20.9677 103.516 21.0082 103.54 21.0568 103.558C21.1077 103.575 21.1783 103.595 21.2685 103.621C21.3935 103.656 21.4976 103.691 21.5809 103.728C21.6642 103.765 21.7348 103.822 21.7927 103.899C21.8505 103.975 21.8794 104.076 21.8794 104.201C21.8794 104.314 21.8459 104.413 21.7788 104.499C21.7117 104.582 21.6249 104.646 21.5184 104.69C21.4143 104.734 21.3067 104.756 21.1956 104.756C21.0429 104.756 20.9006 104.73 20.7687 104.68C20.6368 104.629 20.5292 104.546 20.4459 104.433ZM23.245 104.509C23.245 104.57 23.2254 104.621 23.186 104.662C23.1467 104.702 23.0969 104.721 23.0368 104.721C22.9766 104.721 22.9268 104.702 22.8875 104.662C22.8482 104.621 22.8285 104.57 22.8285 104.509V103.076C22.8285 103.016 22.8482 102.966 22.8875 102.927C22.9268 102.885 22.9766 102.864 23.0368 102.864C23.0969 102.864 23.1467 102.885 23.186 102.927C23.2254 102.966 23.245 103.016 23.245 103.076V104.509ZM23.0333 102.639C22.9546 102.639 22.8991 102.626 22.8667 102.6C22.8343 102.575 22.8181 102.53 22.8181 102.465V102.399C22.8181 102.334 22.8354 102.289 22.8702 102.264C22.9049 102.238 22.9604 102.225 23.0368 102.225C23.1178 102.225 23.1745 102.238 23.2069 102.264C23.2392 102.289 23.2554 102.334 23.2554 102.399V102.465C23.2554 102.532 23.2381 102.578 23.2034 102.604C23.171 102.627 23.1143 102.639 23.0333 102.639ZM26.0821 103.794C26.0821 103.98 26.0404 104.146 25.9571 104.294C25.8738 104.44 25.7592 104.553 25.6135 104.634C25.47 104.715 25.3115 104.756 25.1379 104.756C24.9621 104.756 24.8024 104.715 24.6589 104.634C24.5154 104.553 24.402 104.44 24.3187 104.294C24.2354 104.146 24.1938 103.98 24.1938 103.794C24.1938 103.609 24.2354 103.444 24.3187 103.298C24.402 103.15 24.5154 103.035 24.6589 102.954C24.8024 102.871 24.9621 102.829 25.1379 102.829C25.3115 102.829 25.47 102.871 25.6135 102.954C25.7592 103.035 25.8738 103.15 25.9571 103.298C26.0404 103.444 26.0821 103.609 26.0821 103.794ZM25.6655 103.794C25.6655 103.681 25.6412 103.58 25.5926 103.492C25.5464 103.402 25.4827 103.333 25.4017 103.284C25.323 103.236 25.2351 103.211 25.1379 103.211C25.0407 103.211 24.9516 103.236 24.8706 103.284C24.792 103.333 24.7283 103.402 24.6797 103.492C24.6335 103.58 24.6103 103.681 24.6103 103.794C24.6103 103.908 24.6335 104.008 24.6797 104.096C24.7283 104.184 24.792 104.253 24.8706 104.301C24.9516 104.35 25.0407 104.374 25.1379 104.374C25.2351 104.374 25.323 104.35 25.4017 104.301C25.4827 104.253 25.5464 104.184 25.5926 104.096C25.6412 104.008 25.6655 103.908 25.6655 103.794ZM28.0476 102.829C28.2836 102.829 28.4468 102.9 28.537 103.041C28.6273 103.18 28.6724 103.373 28.6724 103.621V104.509C28.6724 104.57 28.6527 104.621 28.6134 104.662C28.574 104.702 28.5243 104.721 28.4641 104.721C28.404 104.721 28.3542 104.702 28.3149 104.662C28.2755 104.621 28.2559 104.57 28.2559 104.509V103.621C28.2559 103.494 28.2292 103.394 28.176 103.322C28.1228 103.248 28.0314 103.211 27.9018 103.211C27.7676 103.211 27.6623 103.251 27.5859 103.329C27.5096 103.406 27.4714 103.503 27.4714 103.621V104.509C27.4714 104.57 27.4517 104.621 27.4124 104.662C27.373 104.702 27.3233 104.721 27.2631 104.721C27.203 104.721 27.1532 104.702 27.1139 104.662C27.0745 104.621 27.0549 104.57 27.0549 104.509V103.076C27.0549 103.016 27.0745 102.966 27.1139 102.927C27.1532 102.885 27.203 102.864 27.2631 102.864C27.3233 102.864 27.373 102.885 27.4124 102.927C27.4517 102.966 27.4714 103.016 27.4714 103.076V103.135C27.5339 103.052 27.6149 102.98 27.7144 102.92C27.8162 102.86 27.9273 102.829 28.0476 102.829ZM33.4867 102.288C33.5446 102.288 33.5943 102.309 33.636 102.35C33.6799 102.39 33.7019 102.44 33.7019 102.5V104.509C33.7019 104.57 33.6823 104.621 33.6429 104.662C33.6036 104.702 33.5515 104.721 33.4867 104.721C33.4219 104.721 33.3687 104.702 33.327 104.662C33.2877 104.623 33.268 104.572 33.268 104.509V103.111L32.6953 103.985C32.6722 104.013 32.6456 104.036 32.6155 104.055C32.5854 104.071 32.5542 104.078 32.5218 104.076C32.4917 104.078 32.4616 104.071 32.4315 104.055C32.4014 104.036 32.3748 104.013 32.3517 103.985L31.7789 103.079V104.509C31.7789 104.572 31.7604 104.623 31.7234 104.662C31.6864 104.702 31.6378 104.721 31.5776 104.721C31.5198 104.721 31.4723 104.702 31.4353 104.662C31.3983 104.621 31.3798 104.57 31.3798 104.509V102.5C31.3798 102.442 31.4006 102.392 31.4422 102.35C31.4862 102.309 31.5383 102.288 31.5984 102.288C31.6332 102.288 31.6679 102.297 31.7026 102.316C31.7373 102.332 31.7639 102.354 31.7824 102.382L32.5391 103.544L33.3166 102.382C33.3351 102.354 33.3594 102.332 33.3895 102.316C33.4219 102.297 33.4543 102.288 33.4867 102.288ZM36.3168 102.829C36.377 102.829 36.4267 102.849 36.4661 102.888C36.5054 102.928 36.5251 102.979 36.5251 103.041V104.509C36.5251 104.57 36.5054 104.621 36.4661 104.662C36.4267 104.702 36.377 104.721 36.3168 104.721C36.2567 104.721 36.2069 104.702 36.1676 104.662C36.1305 104.623 36.1109 104.573 36.1086 104.513C36.0507 104.58 35.972 104.638 35.8725 104.686C35.7753 104.733 35.6724 104.756 35.5636 104.756C35.4039 104.756 35.2593 104.715 35.1297 104.634C35.0001 104.551 34.8972 104.437 34.8208 104.291C34.7467 104.145 34.7097 103.98 34.7097 103.794C34.7097 103.609 34.7467 103.444 34.8208 103.298C34.8948 103.15 34.9955 103.035 35.1228 102.954C35.2524 102.871 35.3947 102.829 35.5497 102.829C35.6608 102.829 35.7649 102.85 35.8621 102.892C35.9593 102.931 36.0415 102.982 36.1086 103.045V103.041C36.1086 102.981 36.1282 102.931 36.1676 102.892C36.2069 102.85 36.2567 102.829 36.3168 102.829ZM35.6157 104.374C35.7661 104.374 35.8887 104.32 35.9836 104.211C36.0785 104.1 36.1259 103.961 36.1259 103.794C36.1259 103.628 36.0785 103.489 35.9836 103.378C35.8887 103.267 35.7661 103.211 35.6157 103.211C35.4676 103.211 35.3461 103.267 35.2512 103.378C35.1563 103.489 35.1089 103.628 35.1089 103.794C35.1089 103.961 35.1552 104.1 35.2477 104.211C35.3426 104.32 35.4653 104.374 35.6157 104.374ZM39.1459 104.357C39.1899 104.403 39.2119 104.455 39.2119 104.513C39.2119 104.571 39.1887 104.619 39.1425 104.659C39.0985 104.698 39.0511 104.718 39.0001 104.718C38.94 104.718 38.8891 104.695 38.8474 104.648L38.2226 103.989L38.0525 104.145V104.509C38.0525 104.57 38.0329 104.621 37.9935 104.662C37.9542 104.702 37.9044 104.721 37.8443 104.721C37.7841 104.721 37.7344 104.702 37.695 104.662C37.6557 104.621 37.636 104.57 37.636 104.509V102.364C37.636 102.304 37.6557 102.254 37.695 102.215C37.7344 102.173 37.7841 102.153 37.8443 102.153C37.9044 102.153 37.9542 102.173 37.9935 102.215C38.0329 102.254 38.0525 102.304 38.0525 102.364V103.649L38.7954 102.93C38.8393 102.886 38.8902 102.864 38.9481 102.864C38.999 102.864 39.0441 102.886 39.0835 102.93C39.1251 102.972 39.1459 103.015 39.1459 103.059C39.1459 103.114 39.1182 103.166 39.0626 103.215L38.5385 103.697L39.1459 104.357ZM40.5945 104.509C40.5945 104.57 40.5749 104.621 40.5355 104.662C40.4962 104.702 40.4464 104.721 40.3863 104.721C40.3261 104.721 40.2764 104.702 40.237 104.662C40.1977 104.621 40.178 104.57 40.178 104.509V103.076C40.178 103.016 40.1977 102.966 40.237 102.927C40.2764 102.885 40.3261 102.864 40.3863 102.864C40.4464 102.864 40.4962 102.885 40.5355 102.927C40.5749 102.966 40.5945 103.016 40.5945 103.076V104.509ZM40.3828 102.639C40.3041 102.639 40.2486 102.626 40.2162 102.6C40.1838 102.575 40.1676 102.53 40.1676 102.465V102.399C40.1676 102.334 40.185 102.289 40.2197 102.264C40.2544 102.238 40.3099 102.225 40.3863 102.225C40.4673 102.225 40.524 102.238 40.5564 102.264C40.5888 102.289 40.605 102.334 40.605 102.399V102.465C40.605 102.532 40.5876 102.578 40.5529 102.604C40.5205 102.627 40.4638 102.639 40.3828 102.639ZM42.6402 102.829C42.8762 102.829 43.0393 102.9 43.1296 103.041C43.2198 103.18 43.265 103.373 43.265 103.621V104.509C43.265 104.57 43.2453 104.621 43.2059 104.662C43.1666 104.702 43.1169 104.721 43.0567 104.721C42.9965 104.721 42.9468 104.702 42.9074 104.662C42.8681 104.621 42.8484 104.57 42.8484 104.509V103.621C42.8484 103.494 42.8218 103.394 42.7686 103.322C42.7154 103.248 42.624 103.211 42.4944 103.211C42.3602 103.211 42.2549 103.251 42.1785 103.329C42.1021 103.406 42.064 103.503 42.064 103.621V104.509C42.064 104.57 42.0443 104.621 42.005 104.662C41.9656 104.702 41.9159 104.721 41.8557 104.721C41.7955 104.721 41.7458 104.702 41.7064 104.662C41.6671 104.621 41.6474 104.57 41.6474 104.509V103.076C41.6474 103.016 41.6671 102.966 41.7064 102.927C41.7458 102.885 41.7955 102.864 41.8557 102.864C41.9159 102.864 41.9656 102.885 42.005 102.927C42.0443 102.966 42.064 103.016 42.064 103.076V103.135C42.1264 103.052 42.2074 102.98 42.3069 102.92C42.4088 102.86 42.5198 102.829 42.6402 102.829ZM45.8777 102.829C45.9378 102.829 45.9876 102.849 46.0269 102.888C46.0663 102.928 46.0859 102.979 46.0859 103.041V104.586C46.0859 104.868 45.998 105.076 45.8221 105.211C45.6486 105.347 45.4276 105.415 45.1591 105.415C45.0897 105.415 44.9937 105.404 44.871 105.381C44.7507 105.358 44.6651 105.334 44.6142 105.311C44.5008 105.263 44.4441 105.196 44.4441 105.11C44.4441 105.094 44.4476 105.075 44.4545 105.054C44.4684 105.004 44.4915 104.964 44.5239 104.936C44.5586 104.911 44.5957 104.898 44.635 104.898C44.6582 104.898 44.6801 104.902 44.701 104.909C44.7102 104.911 44.7669 104.932 44.871 104.971C44.9775 105.013 45.0735 105.034 45.1591 105.034C45.3304 105.034 45.4577 104.999 45.541 104.929C45.6266 104.862 45.6694 104.766 45.6694 104.641V104.475C45.6185 104.546 45.541 104.611 45.4368 104.669C45.335 104.727 45.2251 104.756 45.1071 104.756C44.9451 104.756 44.797 104.715 44.6628 104.634C44.5309 104.551 44.4267 104.437 44.3504 104.291C44.274 104.145 44.2358 103.98 44.2358 103.794C44.2358 103.609 44.2729 103.444 44.3469 103.298C44.4233 103.15 44.5262 103.035 44.6558 102.954C44.7877 102.871 44.9335 102.829 45.0932 102.829C45.2112 102.829 45.3211 102.854 45.4229 102.902C45.5248 102.951 45.6069 103.01 45.6694 103.079V103.041C45.6694 102.981 45.6891 102.931 45.7284 102.892C45.7677 102.85 45.8175 102.829 45.8777 102.829ZM45.1591 104.374C45.3142 104.374 45.4403 104.32 45.5375 104.211C45.637 104.1 45.6868 103.961 45.6868 103.794C45.6868 103.628 45.637 103.489 45.5375 103.378C45.4403 103.267 45.3142 103.211 45.1591 103.211C45.0041 103.211 44.878 103.267 44.7808 103.378C44.6836 103.489 44.635 103.628 44.635 103.794C44.635 103.961 44.6836 104.1 44.7808 104.211C44.878 104.32 45.0041 104.374 45.1591 104.374ZM50.5848 103.409C50.6449 103.409 50.6947 103.43 50.734 103.472C50.7734 103.511 50.793 103.561 50.793 103.621V104.357C50.793 104.438 50.7572 104.5 50.6854 104.544C50.4586 104.685 50.2099 104.756 49.9391 104.756C49.71 104.756 49.4983 104.7 49.3039 104.589C49.1095 104.476 48.9557 104.324 48.8423 104.135C48.7289 103.943 48.6722 103.733 48.6722 103.506C48.6722 103.28 48.7289 103.071 48.8423 102.882C48.9557 102.689 49.1095 102.538 49.3039 102.427C49.4983 102.313 49.71 102.257 49.9391 102.257C50.1682 102.257 50.3672 102.303 50.5362 102.396C50.5709 102.414 50.5963 102.438 50.6125 102.468C50.631 102.499 50.6403 102.531 50.6403 102.566C50.6403 102.623 50.6206 102.674 50.5813 102.718C50.5443 102.76 50.498 102.781 50.4425 102.781C50.4077 102.781 50.3696 102.772 50.3279 102.753C50.2029 102.7 50.0734 102.673 49.9391 102.673C49.791 102.673 49.6545 102.711 49.5296 102.788C49.4046 102.862 49.3051 102.963 49.231 103.09C49.1593 103.217 49.1234 103.356 49.1234 103.506C49.1234 103.657 49.1593 103.796 49.231 103.923C49.3051 104.05 49.4046 104.152 49.5296 104.228C49.6545 104.302 49.791 104.339 49.9391 104.339C50.0039 104.339 50.0734 104.334 50.1474 104.322C50.2215 104.31 50.2863 104.295 50.3418 104.277V103.826H50.0155C49.9553 103.826 49.9044 103.806 49.8628 103.767C49.8234 103.727 49.8038 103.678 49.8038 103.617C49.8038 103.557 49.8234 103.507 49.8628 103.468C49.9044 103.429 49.9553 103.409 50.0155 103.409H50.5848ZM52.1929 104.509C52.1929 104.57 52.1732 104.621 52.1339 104.662C52.0945 104.702 52.0448 104.721 51.9846 104.721C51.9245 104.721 51.8747 104.702 51.8354 104.662C51.796 104.621 51.7764 104.57 51.7764 104.509V103.076C51.7764 103.016 51.796 102.966 51.8354 102.927C51.8747 102.885 51.9245 102.864 51.9846 102.864C52.0448 102.864 52.0945 102.885 52.1339 102.927C52.1732 102.966 52.1929 103.016 52.1929 103.076V104.509ZM51.9811 102.639C51.9025 102.639 51.8469 102.626 51.8145 102.6C51.7821 102.575 51.7659 102.53 51.7659 102.465V102.399C51.7659 102.334 51.7833 102.289 51.818 102.264C51.8527 102.238 51.9083 102.225 51.9846 102.225C52.0656 102.225 52.1223 102.238 52.1547 102.264C52.1871 102.289 52.2033 102.334 52.2033 102.399V102.465C52.2033 102.532 52.1859 102.578 52.1512 102.604C52.1188 102.627 52.0621 102.639 51.9811 102.639ZM54.7488 102.829C54.8089 102.829 54.8587 102.849 54.898 102.888C54.9373 102.928 54.957 102.979 54.957 103.041V104.509C54.957 104.57 54.9373 104.621 54.898 104.662C54.8587 104.702 54.8089 104.721 54.7488 104.721C54.6886 104.721 54.6388 104.702 54.5995 104.662C54.5625 104.623 54.5428 104.573 54.5405 104.513C54.4826 104.58 54.404 104.638 54.3045 104.686C54.2073 104.733 54.1043 104.756 53.9955 104.756C53.8359 104.756 53.6912 104.715 53.5616 104.634C53.432 104.551 53.3291 104.437 53.2527 104.291C53.1787 104.145 53.1416 103.98 53.1416 103.794C53.1416 103.609 53.1787 103.444 53.2527 103.298C53.3268 103.15 53.4274 103.035 53.5547 102.954C53.6843 102.871 53.8266 102.829 53.9816 102.829C54.0927 102.829 54.1968 102.85 54.294 102.892C54.3912 102.931 54.4734 102.982 54.5405 103.045V103.041C54.5405 102.981 54.5602 102.931 54.5995 102.892C54.6388 102.85 54.6886 102.829 54.7488 102.829ZM54.0476 104.374C54.198 104.374 54.3206 104.32 54.4155 104.211C54.5104 104.1 54.5578 103.961 54.5578 103.794C54.5578 103.628 54.5104 103.489 54.4155 103.378C54.3206 103.267 54.198 103.211 54.0476 103.211C53.8995 103.211 53.778 103.267 53.6831 103.378C53.5882 103.489 53.5408 103.628 53.5408 103.794C53.5408 103.961 53.5871 104.1 53.6797 104.211C53.7745 104.32 53.8972 104.374 54.0476 104.374ZM57.026 102.829C57.262 102.829 57.4251 102.9 57.5154 103.041C57.6056 103.18 57.6507 103.373 57.6507 103.621V104.509C57.6507 104.57 57.6311 104.621 57.5917 104.662C57.5524 104.702 57.5026 104.721 57.4425 104.721C57.3823 104.721 57.3326 104.702 57.2932 104.662C57.2539 104.621 57.2342 104.57 57.2342 104.509V103.621C57.2342 103.494 57.2076 103.394 57.1544 103.322C57.1012 103.248 57.0098 103.211 56.8802 103.211C56.746 103.211 56.6407 103.251 56.5643 103.329C56.4879 103.406 56.4498 103.503 56.4498 103.621V104.509C56.4498 104.57 56.4301 104.621 56.3907 104.662C56.3514 104.702 56.3017 104.721 56.2415 104.721C56.1813 104.721 56.1316 104.702 56.0922 104.662C56.0529 104.621 56.0332 104.57 56.0332 104.509V103.076C56.0332 103.016 56.0529 102.966 56.0922 102.927C56.1316 102.885 56.1813 102.864 56.2415 102.864C56.3017 102.864 56.3514 102.885 56.3907 102.927C56.4301 102.966 56.4498 103.016 56.4498 103.076V103.135C56.5122 103.052 56.5932 102.98 56.6927 102.92C56.7945 102.86 56.9056 102.829 57.026 102.829ZM59.6213 104.329C59.6537 104.329 59.6826 104.345 59.7081 104.378C59.7358 104.408 59.7497 104.448 59.7497 104.499C59.7497 104.562 59.715 104.615 59.6456 104.659C59.5785 104.7 59.5021 104.721 59.4165 104.721C59.273 104.721 59.1515 104.691 59.052 104.631C58.9549 104.568 58.9063 104.438 58.9063 104.239V103.281H58.7466C58.691 103.281 58.6448 103.262 58.6077 103.225C58.5707 103.188 58.5522 103.142 58.5522 103.086C58.5522 103.033 58.5707 102.989 58.6077 102.954C58.6448 102.917 58.691 102.899 58.7466 102.899H58.9063V102.677C58.9063 102.617 58.9259 102.567 58.9653 102.527C59.0069 102.486 59.0578 102.465 59.118 102.465C59.1758 102.465 59.2244 102.486 59.2638 102.527C59.3031 102.567 59.3228 102.617 59.3228 102.677V102.899H59.5692C59.6248 102.899 59.6711 102.917 59.7081 102.954C59.7451 102.991 59.7636 103.038 59.7636 103.093C59.7636 103.146 59.7451 103.192 59.7081 103.229C59.6711 103.263 59.6248 103.281 59.5692 103.281H59.3228V104.221C59.3228 104.27 59.3355 104.306 59.361 104.329C59.3864 104.35 59.4211 104.36 59.4651 104.36C59.4836 104.36 59.5091 104.356 59.5415 104.346C59.5692 104.335 59.5958 104.329 59.6213 104.329ZM63.1842 104.756C63.0176 104.756 62.8695 104.735 62.7399 104.693C62.6103 104.652 62.4888 104.581 62.3755 104.482C62.313 104.426 62.2817 104.365 62.2817 104.298C62.2817 104.244 62.3014 104.198 62.3407 104.159C62.3801 104.117 62.4275 104.096 62.4831 104.096C62.527 104.096 62.5664 104.11 62.6011 104.138C62.6936 104.214 62.7839 104.27 62.8718 104.305C62.9598 104.339 63.0639 104.357 63.1842 104.357C63.3138 104.357 63.4249 104.328 63.5174 104.27C63.6123 104.212 63.6598 104.14 63.6598 104.055C63.6598 103.951 63.6135 103.87 63.5209 103.812C63.4284 103.752 63.2814 103.706 63.0801 103.676C62.5733 103.602 62.3199 103.366 62.3199 102.968C62.3199 102.823 62.3581 102.696 62.4345 102.59C62.5108 102.481 62.615 102.399 62.7469 102.343C62.8788 102.286 63.0257 102.257 63.1877 102.257C63.3335 102.257 63.47 102.279 63.5973 102.323C63.7269 102.367 63.8345 102.424 63.9201 102.496C63.9872 102.549 64.0208 102.611 64.0208 102.68C64.0208 102.733 64.0011 102.781 63.9617 102.823C63.9224 102.862 63.8761 102.882 63.8229 102.882C63.7882 102.882 63.757 102.871 63.7292 102.85C63.669 102.802 63.5846 102.758 63.4758 102.718C63.3693 102.677 63.2733 102.656 63.1877 102.656C63.0419 102.656 62.9285 102.684 62.8475 102.739C62.7688 102.792 62.7295 102.863 62.7295 102.951C62.7295 103.05 62.77 103.126 62.851 103.177C62.9343 103.227 63.0639 103.269 63.2398 103.302C63.4388 103.336 63.5973 103.381 63.7153 103.437C63.8356 103.49 63.9259 103.564 63.986 103.659C64.0462 103.752 64.0763 103.875 64.0763 104.03C64.0763 104.176 64.0346 104.305 63.9513 104.416C63.8703 104.524 63.7616 104.609 63.625 104.669C63.4885 104.727 63.3416 104.756 63.1842 104.756ZM65.96 104.329C65.9924 104.329 66.0213 104.345 66.0468 104.378C66.0745 104.408 66.0884 104.448 66.0884 104.499C66.0884 104.562 66.0537 104.615 65.9843 104.659C65.9172 104.7 65.8408 104.721 65.7552 104.721C65.6117 104.721 65.4902 104.691 65.3907 104.631C65.2935 104.568 65.2449 104.438 65.2449 104.239V103.281H65.0853C65.0297 103.281 64.9835 103.262 64.9464 103.225C64.9094 103.188 64.8909 103.142 64.8909 103.086C64.8909 103.033 64.9094 102.989 64.9464 102.954C64.9835 102.917 65.0297 102.899 65.0853 102.899H65.2449V102.677C65.2449 102.617 65.2646 102.567 65.3039 102.527C65.3456 102.486 65.3965 102.465 65.4567 102.465C65.5145 102.465 65.5631 102.486 65.6025 102.527C65.6418 102.567 65.6615 102.617 65.6615 102.677V102.899H65.9079C65.9635 102.899 66.0097 102.917 66.0468 102.954C66.0838 102.991 66.1023 103.038 66.1023 103.093C66.1023 103.146 66.0838 103.192 66.0468 103.229C66.0097 103.263 65.9635 103.281 65.9079 103.281H65.6615V104.221C65.6615 104.27 65.6742 104.306 65.6997 104.329C65.7251 104.35 65.7598 104.36 65.8038 104.36C65.8223 104.36 65.8478 104.356 65.8802 104.346C65.9079 104.335 65.9345 104.329 65.96 104.329ZM68.6125 102.829C68.6727 102.829 68.7224 102.849 68.7618 102.888C68.8011 102.928 68.8208 102.979 68.8208 103.041V104.509C68.8208 104.57 68.8011 104.621 68.7618 104.662C68.7224 104.702 68.6727 104.721 68.6125 104.721C68.5524 104.721 68.5026 104.702 68.4633 104.662C68.4262 104.623 68.4066 104.573 68.4043 104.513C68.3464 104.58 68.2677 104.638 68.1682 104.686C68.071 104.733 67.9681 104.756 67.8593 104.756C67.6996 104.756 67.555 104.715 67.4254 104.634C67.2958 104.551 67.1928 104.437 67.1165 104.291C67.0424 104.145 67.0054 103.98 67.0054 103.794C67.0054 103.609 67.0424 103.444 67.1165 103.298C67.1905 103.15 67.2912 103.035 67.4185 102.954C67.5481 102.871 67.6904 102.829 67.8454 102.829C67.9565 102.829 68.0606 102.85 68.1578 102.892C68.255 102.931 68.3372 102.982 68.4043 103.045V103.041C68.4043 102.981 68.4239 102.931 68.4633 102.892C68.5026 102.85 68.5524 102.829 68.6125 102.829ZM67.9114 104.374C68.0618 104.374 68.1844 104.32 68.2793 104.211C68.3742 104.1 68.4216 103.961 68.4216 103.794C68.4216 103.628 68.3742 103.489 68.2793 103.378C68.1844 103.267 68.0618 103.211 67.9114 103.211C67.7633 103.211 67.6418 103.267 67.5469 103.378C67.452 103.489 67.4046 103.628 67.4046 103.794C67.4046 103.961 67.4509 104.1 67.5434 104.211C67.6383 104.32 67.7609 104.374 67.9114 104.374ZM70.862 102.829C70.9314 102.829 70.9892 102.849 71.0355 102.888C71.0841 102.928 71.1084 102.974 71.1084 103.027C71.1084 103.099 71.0899 103.153 71.0529 103.19C71.0158 103.225 70.9719 103.243 70.921 103.243C70.8863 103.243 70.8469 103.234 70.8029 103.218C70.796 103.216 70.7798 103.211 70.7544 103.204C70.7312 103.197 70.7058 103.194 70.678 103.194C70.6178 103.194 70.56 103.212 70.5044 103.249C70.4489 103.286 70.4026 103.343 70.3656 103.42C70.3309 103.494 70.3135 103.583 70.3135 103.687V104.509C70.3135 104.57 70.2939 104.621 70.2545 104.662C70.2152 104.702 70.1654 104.721 70.1053 104.721C70.0451 104.721 69.9953 104.702 69.956 104.662C69.9167 104.621 69.897 104.57 69.897 104.509V103.076C69.897 103.016 69.9167 102.966 69.956 102.927C69.9953 102.885 70.0451 102.864 70.1053 102.864C70.1654 102.864 70.2152 102.885 70.2545 102.927C70.2939 102.966 70.3135 103.016 70.3135 103.076V103.121C70.3667 103.026 70.4431 102.954 70.5426 102.906C70.6421 102.855 70.7486 102.829 70.862 102.829Z" fill="#9DB4BA"/>
<path d="M11.1036 82.1992C11.1975 82.1948 11.2896 82.2265 11.3609 82.2879C11.3929 82.3168 11.4183 82.3525 11.4351 82.3923C11.452 82.432 11.4599 82.475 11.4585 82.5182C11.4559 82.5787 11.4439 82.6385 11.423 82.6954L6.56142 94.373C6.49045 94.5266 6.37807 94.6033 6.22428 94.6033C6.15169 94.6029 6.08079 94.5813 6.02024 94.5413C5.95732 94.5027 5.91016 94.4431 5.88714 94.373L1.06111 82.7486C1.02693 82.6829 1.0087 82.6102 1.00789 82.5362C1.00693 82.4918 1.0151 82.4476 1.03188 82.4065C1.04866 82.3653 1.07371 82.328 1.10548 82.2969C1.13663 82.2652 1.17395 82.2402 1.21515 82.2234C1.25635 82.2067 1.30055 82.1985 1.34503 82.1995C1.52245 82.1995 1.65265 82.294 1.73563 82.483L6.24212 93.3099L10.7664 82.4296C10.8492 82.276 10.9616 82.1992 11.1036 82.1992ZM29.769 93.8944C29.8624 93.8967 29.9514 93.9348 30.0174 94.0007C30.0835 94.0667 30.1216 94.1555 30.1239 94.2488C30.1258 94.2968 30.1173 94.3446 30.0989 94.389C30.0805 94.4333 30.0527 94.4732 30.0174 94.5058C29.9504 94.5692 29.8614 94.6041 29.769 94.6032H23.08C22.9866 94.6009 22.8976 94.5629 22.8315 94.4969C22.7655 94.4309 22.7274 94.3421 22.7251 94.2488V82.5536C22.7249 82.5072 22.7343 82.4613 22.7526 82.4186C22.7709 82.3759 22.7978 82.3375 22.8315 82.3056C22.8635 82.2718 22.902 82.245 22.9447 82.2267C22.9875 82.2084 23.0335 82.1991 23.08 82.1992H29.769C29.8155 82.1991 29.8615 82.2084 29.9043 82.2267C29.947 82.245 29.9855 82.2718 30.0174 82.3056C30.0512 82.3374 30.0782 82.3759 30.0965 82.4186C30.1149 82.4612 30.1243 82.5072 30.1241 82.5536C30.126 82.6016 30.1175 82.6494 30.0991 82.6938C30.0808 82.7381 30.053 82.778 30.0177 82.8106C29.9507 82.874 29.8616 82.909 29.7693 82.908H23.4703V87.852H28.9706C29.064 87.8543 29.1529 87.8923 29.219 87.9583C29.285 88.0243 29.3232 88.1131 29.3254 88.2064C29.3274 88.2544 29.3188 88.3022 29.3005 88.3465C29.2821 88.3909 29.2543 88.4307 29.219 88.4633C29.152 88.5268 29.0629 88.5617 28.9706 88.5608H23.4703V93.8944H29.769ZM50.6878 88.4898C50.7359 88.4879 50.7837 88.4964 50.8282 88.5148C50.8726 88.5331 50.9125 88.5609 50.9451 88.5961C51.0086 88.6631 51.0436 88.752 51.0427 88.8442V93.2919C51.0463 93.3544 51.0335 93.4167 51.0055 93.4727C50.9775 93.5286 50.9352 93.5763 50.883 93.6109C50.3324 93.9802 49.732 94.2696 49.0999 94.4703C48.4666 94.6752 47.805 94.7799 47.1393 94.7804C45.921 94.7804 44.8298 94.5057 43.8658 93.9564C42.9142 93.4196 42.1285 92.6319 41.5947 91.6794C41.0445 90.7107 40.7695 89.618 40.7695 88.4013C40.7695 87.1845 41.0445 86.0918 41.5945 85.1233C42.1284 84.1707 42.914 83.383 43.8657 82.846C44.8296 82.2967 45.9208 82.0221 47.1392 82.0221C47.7769 82.0189 48.4122 82.0993 49.0289 82.2613C49.6005 82.4092 50.1432 82.6516 50.6346 82.9787C50.6853 83.0105 50.7268 83.0551 50.7548 83.108C50.7828 83.1608 50.7964 83.2201 50.7943 83.2799C50.7959 83.3287 50.7864 83.3772 50.7664 83.4217C50.7464 83.4663 50.7165 83.5056 50.679 83.5369C50.6191 83.5946 50.5405 83.6292 50.4574 83.6343C50.3763 83.628 50.2975 83.6038 50.2268 83.5635C49.2332 83.0084 48.2041 82.7309 47.1395 82.7309C46.0513 82.7309 45.0814 82.973 44.2297 83.4574C43.3884 83.9313 42.6969 84.6312 42.2336 85.4777C41.7544 86.3399 41.5148 87.3144 41.5148 88.4013C41.5148 89.4881 41.7543 90.4627 42.2333 91.325C42.6966 92.1715 43.3881 92.8714 44.2294 93.3454C45.0811 93.8297 46.051 94.0719 47.1392 94.0719C47.7019 94.069 48.2611 93.9824 48.7982 93.8149C49.3369 93.654 49.8527 93.4247 50.333 93.1327V89.1986H47.1392C47.0458 89.1964 46.9569 89.1583 46.8908 89.0923C46.8248 89.0263 46.7867 88.9375 46.7844 88.8442C46.7825 88.7963 46.791 88.7484 46.8094 88.7041C46.8277 88.6597 46.8555 88.6199 46.8908 88.5873C46.9579 88.5239 47.0469 88.4889 47.1392 88.4898H50.6878ZM71.9435 94.1247C71.9567 94.1708 71.9626 94.2186 71.961 94.2665C71.9635 94.3132 71.9552 94.3599 71.9368 94.403C71.9183 94.446 71.8902 94.4842 71.8546 94.5146C71.7852 94.5672 71.7016 94.5978 71.6147 94.6026C71.5277 94.6073 71.4413 94.586 71.3666 94.5412C71.3037 94.5026 71.2565 94.443 71.2335 94.3729L69.7436 90.7224L69.7611 90.7579H63.8175L62.3803 94.373C62.3604 94.4414 62.3181 94.5012 62.2602 94.5429C62.2024 94.5846 62.1323 94.6059 62.061 94.6033C61.967 94.6077 61.875 94.576 61.8037 94.5147C61.741 94.4599 61.7001 94.3845 61.6884 94.3021C61.6775 94.2426 61.6836 94.1812 61.7059 94.1249L66.4792 82.3942C66.5005 82.3185 66.5476 82.2526 66.6123 82.2079C66.6755 82.176 66.7457 82.1608 66.8163 82.1635C66.9938 82.1635 67.1121 82.2403 67.1712 82.3939L71.9435 94.1247ZM64.1012 90.0491H69.4773L66.7628 83.3688L64.1012 90.0491Z" fill="#27B4B8" stroke="#27B4B8" stroke-width="0.264464"/>
<defs>
<filter id="filter0_d_171_2054" x="31.7957" y="48.5066" width="3.07854" height="3.07902" filterUnits="userSpaceOnUse" color-interpolation-filters="sRGB">
<feFlood flood-opacity="0" result="BackgroundImageFix"/>
<feColorMatrix in="SourceAlpha" type="matrix" values="0 0 0 0 0 0 0 0 0 0 0 0 0 0 0 0 0 0 127 0" result="hardAlpha"/>
<feOffset/>
<feGaussianBlur stdDeviation="0.0513722"/>
<feColorMatrix type="matrix" values="0 0 0 0 1 0 0 0 0 1 0 0 0 0 1 0 0 0 0.851 0"/>
<feBlend mode="normal" in2="BackgroundImageFix" result="effect1_dropShadow_171_2054"/>
<feBlend mode="normal" in="SourceGraphic" in2="effect1_dropShadow_171_2054" result="shape"/>
</filter>
<filter id="filter1_d_171_2054" x="53.2767" y="13.3641" width="1.61452" height="1.61428" filterUnits="userSpaceOnUse" color-interpolation-filters="sRGB">
<feFlood flood-opacity="0" result="BackgroundImageFix"/>
<feColorMatrix in="SourceAlpha" type="matrix" values="0 0 0 0 0 0 0 0 0 0 0 0 0 0 0 0 0 0 127 0" result="hardAlpha"/>
<feOffset/>
<feGaussianBlur stdDeviation="0.0266779"/>
<feColorMatrix type="matrix" values="0 0 0 0 1 0 0 0 0 1 0 0 0 0 1 0 0 0 0.851 0"/>
<feBlend mode="normal" in2="BackgroundImageFix" result="effect1_dropShadow_171_2054"/>
<feBlend mode="normal" in="SourceGraphic" in2="effect1_dropShadow_171_2054" result="shape"/>
</filter>
</defs>
</svg>
